/* XPM */
static char *result[] = {
/* columns rows colors chars-per-pixel */
"64 64 161 2 ",
"   c #000000",
".  c #0D0B02",
"X  c #100E02",
"o  c #141201",
"O  c #1D1704",
"+  c #1D1A02",
"@  c #221D03",
"#  c #262301",
"$  c #2A2404",
"%  c #2D2B01",
"&  c #332B05",
"*  c #352C0C",
"=  c #373104",
"-  c #3D3306",
";  c #3B3901",
":  c #493B0A",
">  c #513F0C",
",  c #4B4305",
"<  c #524E00",
"1  c #56440C",
"2  c #545201",
"3  c #595105",
"4  c #5F5D02",
"5  c #604E0C",
"6  c #625607",
"7  c #605C00",
"8  c #685E04",
"9  c #765C12",
"0  c #686203",
"q  c #6F650F",
"w  c #736A04",
"e  c #7B7405",
"r  c #8A7B0A",
"t  c #876C12",
"y  c #8A6E13",
"u  c #997817",
"i  c #95791B",
"p  c #8F7528",
"a  c #967E25",
"s  c #8F8307",
"d  c #908507",
"f  c #958E01",
"g  c #928C08",
"h  c #959400",
"j  c #9C920F",
"k  c #9C8416",
"l  c #A09507",
"z  c #A19803",
"x  c #AE9B0C",
"c  c #B19C0B",
"v  c #A78517",
"b  c #AB8C15",
"n  c #AE871A",
"m  c #B68E1C",
"M  c #BC921D",
"N  c #B19E1D",
"B  c #B6AF00",
"V  c #B2A409",
"C  c #B8A80B",
"Z  c #B6B203",
"A  c #C19C19",
"S  c #DE9E15",
"D  c #C3B906",
"F  c #C7B20E",
"G  c #CFB50F",
"H  c #D0BD0C",
"J  c #C9A518",
"K  c #DFA312",
"L  c #CCB114",
"P  c #D1BA11",
"I  c #E2AB0F",
"U  c #E7BE06",
"Y  c #E4B10D",
"T  c #E7B90D",
"R  c #E9BE0B",
"E  c #E1A415",
"W  c #E2AA12",
"Q  c #E7B511",
"!  c #EBBB15",
"~  c #E7B218",
"^  c #EAB41D",
"/  c #E5BC1D",
"(  c #EBBA1B",
")  c #CFA726",
"_  c #C8AF26",
"`  c #C3A72B",
"'  c #D6A621",
"]  c #DCAB22",
"[  c #C7A338",
"{  c #DFBD34",
"}  c #DBB33E",
"|  c #E4B421",
" . c #ECB720",
".. c #E7B821",
"X. c #EFBB23",
"o. c #E3B72B",
"O. c #F0BE22",
"+. c #E7BF31",
"@. c #D0C403",
"#. c #D0CC02",
"$. c #EBC506",
"%. c #ECCC05",
"&. c #E9C10C",
"*. c #EECB0E",
"=. c #E1D607",
"-. c #EFDF07",
";. c #EBD70E",
":. c #EFDF0A",
">. c #F2D40D",
",. c #F4DC0B",
"<. c #F9DE0E",
"1. c #EBC110",
"2. c #E6C814",
"3. c #E9C913",
"4. c #EDC01D",
"5. c #F3CE16",
"6. c #F2C61E",
"7. c #F3CB1A",
"8. c #ECD211",
"9. c #EDDA12",
"0. c #E6D41B",
"q. c #F5D415",
"w. c #F6DB12",
"e. c #F8DC10",
"r. c #F3D21A",
"t. c #F2DC1B",
"y. c #E9E104",
"u. c #EDE70A",
"i. c #F5E304",
"p. c #F4EB04",
"a. c #FCEC05",
"s. c #F7E20E",
"d. c #F9E40C",
"f. c #F7EB0E",
"g. c #FAEB0A",
"h. c #F4F301",
"j. c #FDF303",
"k. c #FEFB02",
"l. c #FAF20A",
"z. c #F5E414",
"x. c #F8E010",
"c. c #F6E913",
"v. c #F3E019",
"b. c #E6C024",
"n. c #EDC725",
"m. c #E7C922",
"M. c #EECA23",
"N. c #EAC42C",
"B. c #EBCD2B",
"V. c #F1C120",
"C. c #F0C920",
"Z. c #EDD325",
"A. c #ECD02A",
"S. c #F0D422",
"D. c #F0D922",
"F. c #E7C235",
"G. c #E8C632",
"H. c #E9C831",
"J. c #E5C03A",
"K. c #E3B940",
"L. c None",
/* pixels */
"L.L.L.L.L.L.L.L.L.L.L.L.L.L.L.L.L.L.L.L.L.L.L.L.L.L.L.L.L.L.L.L.L.L.L.L.L.L.L.L.L.L.L.L.L.L.L.L.L.L.L.L.L.L.L.L.L.L.L.L.L.L.L.L.",
"L.L.L.L.L.L.L.L.L.L.L.L.L.L.L.L.L.L.L.L.L.L.L.L.L.L.L.L.L.L.L.L.L.L.L.L.L.L.L.L.L.L.L.L.L.L.L.L.L.L.L.L.L.L.L.L.L.L.L.L.L.L.L.L.",
"L.L.L.L.L.L.L.L.L.L.L.L.L.L.L.L.L.L.L.L.L.L.L.L.L.L.L.L.L.L.L.L.L.L.L.L.L.L.L.L.L.L.L.L.L.L.L.L.L.L.L.L.L.L.L.L.L.L.L.L.L.L.L.L.",
"L.L.L.L.L.L.L.L.L.L.L.L.L.L.L.L.L.L.L.L.L.L.L.L.L.L.L.L.L.L.L.L.L.L.L.L.L.L.L.L.L.L.L.L.L.L.L.L.L.L.L.L.L.L.L.L.L.L.L.L.L.L.L.L.",
"L.L.L.L.L.L.L.L.L.L.L.L.L.L.L.L.L.L.L.L.L.L.L.L.L.L.L.L.L.L.L.L.L.L.L.L.L.L.L.L.L.L.L.L.L.L.L.L.L.L.L.L.L.L.L.L.L.L.L.L.L.L.L.L.",
"L.L.L.L.L.L.L.L.L.L.L.L.L.L.L.L.L.L.L.L.L.L.L.L.L.L.L.L.L.L.L.L.L.L.L.L.L.L.L.L.L.L.L.L.L.L.L.L.L.L.L.L.L.L.L.L.L.L.L.L.L.L.L.L.",
"L.L.L.L.L.L.L.L.L.L.L.L.L.L.L.L.L.L.L.L.L.L.L.L.L.L.L.L.L.L.L.L.L.L.L.L.L.L.L.L.L.L.L.L.L.L.L.L.L.L.L.L.L.L.L.L.L.L.L.L.L.L.L.L.",
"L.L.L.L.L.L.L.L.L.L.L.L.L.L.L.L.L.L.L.L.L.L.L.L.L.L.L.L.L.L.L.L.L.L.L.L.L.L.L.L.L.L.L.L.L.L.L.L.L.L.L.L.L.L.L.L.L.L.L.L.L.L.L.L.",
"L.L.L.L.L.L.L.L.L.L.L.L.L.L.L.L.L.L.L.L.L.L.L.L.L.L.L.L.L.L.L.L.L.L.L.L.L.L.L.L.L.L.L.L.L.L.L.L.L.L.L.L.L.L.L.L.L.L.L.L.L.L.L.L.",
"L.L.L.L.L.L.L.L.L.L.L.L.L.L.L.L.L.L.L.L.L.L.L.L.L.L.L.L.L.L.L.L.L.L.L.L.L.L.L.L.L.L.L.L.L.L.L.L.L.L.L.L.L.L.L.L.L.L.L.L.L.L.L.L.",
"L.L.L.L.L.L.L.L.L.L.L.L.L.L.L.L.L.L.L.L.L.L.L.L.L.L.L.L.L.L.L.L.L.L.L.L.L.L.L.L.L.L.L.L.L.L.L.L.L.L.L.L.L.L.L.L.L.L.L.L.L.L.L.L.",
"L.L.L.L.L.L.L.L.L.L.L.L.L.L.L.L.L.L.L.L.L.                                            L.L.L.L.L.L.L.L.L.L.L.L.L.L.L.L.L.L.L.L.L.",
"L.L.L.L.L.L.L.L.L.L.L.L.L.L.L.L.L.                  . O $ & - - - - & $ O                     L.L.L.L.L.L.L.L.L.L.L.L.L.L.L.L.L.",
"L.L.L.L.L.L.L.L.L.L.L.L.L.            X - 6 r x L 2.8.q.q.r.5.5.7.5.5.7.7.6./ J b y 5 & X             L.L.L.L.L.L.L.L.L.L.L.L.L.",
"L.L.L.L.L.L.L.L.L.L.L.        . , r F ;.w.w.w.q.q.q.r.r.q.r.5.5.5.7.6.7.7.6.5.C.6.6.6.V.( A y : .         L.L.L.L.L.L.L.L.L.L.L.",
"L.L.L.L.L.L.L.L.L.      . 3 x ;.d.w.w.w.w.q.5.1.T Y I W K W W W W W W W E K E W ~ ( 4.C.V.V.n.O.| v 1 .       L.L.L.L.L.L.L.L.L.",
"L.L.L.L.L.L.L.      # s ;.d.<.d.e.w.*.R I I Q ! ! 6.6.6.6.7.5.q.q.w.q.w.w.e.w.>.*.T I K W ^ V.V.V.O.O.^ y @       L.L.L.L.L.L.L.",
"L.L.L.L.L.      # l s.d.d.d.d.>.R Y R *.q.q.7.7.7.7.6.6.6.7.q.j.j.d.w.w.e.e.<.<.d.g.a.g.,.&.E E ^ V.n.X.X. .u @       L.L.L.L.L.",
"L.L.L.L.      e :.d.d.d.d.;.T R >.<.w.q.q.q.q.7.q.<.d.a.a.j.j.j.j.k.j.j.l.a.g.a.d.d.d.g.l.l.j.i.T S ~ X.X.X.X.| 9       L.L.L.L.",
"L.L.L.    # D g.g.g.g.i.&.$.i.d.d.<.w.w.q.q.e.a.g.g.g.f.z.z.x.s.d.d.z.t.t.z.g.g.g.g.g.a.g.j.j.j.k.j.R S X.O.X.X.O.M @     L.L.L.",
"L.L.    % =.g.g.g.g.,.U ,.a.a.<.d.<.<.<.q.<.g.d.g.g.t.M.6.6.6.6.7.5.7.r.q.q.f.g.g.g.f.g.g.l.l.j.k.k.k.p.W ^ O.X.X.X.] @     L.L.",
"L.    @ =.g.l.g.g.s.$.a.a.a.a.i.d.<.<.w.e.<.d.c.z.x.x.q.7.6.6.6.6.7.7.q.r.w.f.c.d.z.s.g.g.g.j.j.k.j.k.k.k.W ( X.X.X.X.' O     L.",
"L.    D l.a.a.g.a.%.j.j.a.a.a.a.i.d.<.<.w.z.x.x.d.z.x.c.z.t.q.r.7.7.7.r.q.5.t.v.v.t.B.0.a.d.a.l.j.k.k.k.k.k.W X.X.X.X.X.m     L.",
"    2 j.l.l.a.l.a.i.j.j.j.a.a.a.i.d.<.<.w.G.z.t.t.t.t.t.w.t.t.t.v.v.q.t.t.t.r.C.M.C.t.d.a.a.l.l.l.j.k.k.k.k.i.X.X.X.X.X.X.>     ",
"    Z l.l.a.l.a.a.j.j.j.j.j.j.a.a.d.<.<.<.q.+.B.t.d.t.t.t.t.t.S.t.t.t.t.S.t.D.t.t.t.d.s.d.f.g.a.j.j.j.k.k.k.k.4.X.X.V.X.X.n     ",
"  . y.l.j.a.a.l.a.j.j.k.j.j.j.a.a.d.i.d.<.w.w.q.n.N.Z.v.c.c.z.t.S.S.S.S.S.S.S.S.S.S.t.q.d.g.g.g.l.j.j.k.k.k.k.5.V.O.X.X.X.o..   ",
"  . p.j.j.l.j.l.l.k.j.j.j.j.j.a.a.a.a.<.r.S.Z.Z.Z.r.q.5.7.r.e.l.k.l.c.t.D.A.C.A.M.A.Z.M.e.d.f.g.l.l.j.k.k.k.k.7.O.V.X.X.O.o..   ",
"  o p.j.j.l.j.l.a.j.j.j.j.j.j.j.a.a.a.e.B.B.B.B.B.Z.q.5.7.7.7.6.6.7.r.t.t.t.S.B.B.B.B.B.z.d.d.g.a.a.l.k.k.k.l.V.V.X.O.X.O...X   ",
"  . p.j.j.l.l.l.j.a.j.j.j.k.j.j.a.a.a.q.M.H.H.H.M.S.q.r.5.7.7.6.6.6.6.6.6.C.B.G.G.N.H.Z.t.x.d.d.g.a.l.j.k.k.r.V.V.O.O.O.X.( .   ",
"  . 9.j.j.j.j.l.l.l.j.j.j.j.k.j.a.a.a.a.+.A.M.G.F.M.5.q.5.7.7.7.7.6.6.V.C.n.F.F.F.B.A.G.e.d.d.f.g.g.j.l.j.q.V.V.V.V.V.X.O.N..   ",
"  . b.k.k.j.l.j.j.l.l.a.j.j.j.j.a.a.a.a.d.M.+.B.Z.D.A.G.G.G.N.G.N.+.F.F.F.G.Z.D.Z.G.n.w.w.x.s.d.d.g.a.g.q.6.V.6.V.V.V.V.r.{ .   ",
"  . o.z.j.j.k.l.j.a.a.l.l.j.j.j.j.j.a.a.a.a.<.w.M.M.Z.t.z.z.z.K.K.B.c.z.v.t.N.N.C.r.q.q.w.e.<.d.g.g.w.7.6.6.6.V.V.V.V.6.D.} .   ",
"  . o.C.g.k.k.j.j.j.l.a.a.l.l.j.j.j.a.a.a.d.d.d.<.e.>.q.q.q.q.z.z.t.7.6.6.6.7.7.q.r.q.q.w.w.e.x.w.7.6.6.6.6.6.C.6.V.C.z.J.} .   ",
"  . o.M.r.f.k.j.j.l.j.l.l.a.a.g.a.a.a.a.a.a.i.d.<.<.e.w.q.q.r.w.e.r.6.6.6.6.6.6.7.7.q.q.w.q.q.7.7.7.7.7.6.6.6.6.6.q.c.H.J.K..   ",
"  . o.C.r.q.g.k.j.j.j.a.l.a.a.g.g.g.g.g.a.d.d.d.<.<.w.w.w.q.q.r.7.7.7.6.6.6.6.7.7.r.q.r.r.7.q.q.r.7.7.C.7.C.C.S.g.z.A.H.J.} .   ",
"  . o.M.r.t.x.d.k.k.j.l.j.l.l.g.l.g.g.g.d.d.f.d.d.d.d.<.<.w.e.q.w.q.q.q.q.q.q.w.q.q.q.q.7.q.7.7.7.7.7.7.6.7.x.l.t.A.H.H.J.} .   ",
"  . o.M.0.t.x.d.g.j.j.k.j.l.l.a.a.g.g.g.a.d.d.g.d.d.x.d.d.x.x.x.x.w.w.w.w.w.q.w.q.q.q.r.q.7.q.7.7.7.r.r.f.l.c.v.D.A.B.F.J.K..   ",
"  . o.n.r.w.x.a.a.a.j.j.k.k.j.j.l.a.g.g.g.g.g.x.g.d.g.x.x.x.x.x.x.x.x.w.w.w.w.q.w.q.q.q.q.q.r.r.w.x.l.k.l.c.v.v.D.D.H.H.K.} .   ",
"    ) n.r.w.d.d.a.j.a.j.j.j.k.k.k.k.j.l.g.g.a.g.g.x.x.d.x.d.d.e.w.x.e.w.w.w.w.q.q.q.q.q.q.d.g.k.k.k.j.l.f.c.c.t.D.D.B.H.J.[     ",
"    i n.r.q.<.d.a.a.a.j.j.j.j.j.j.j.j.j.k.j.l.l.g.g.g.g.d.d.x.d.x.x.x.w.x.x.x.x.g.l.l.j.k.k.k.k.k.k.l.l.f.c.z.t.D.A.B.F.J.p     ",
"L.  * C.r.t.d.d.a.a.j.j.j.j.k.j.j.j.a.a.a.d.d.a.a.d.g.a.l.l.a.j.l.j.j.l.l.g.l.g.g.g.g.l.j.k.k.k.k.l.l.l.c.c.v.v.D.A.A.J.J.*   L.",
"L.    k r.q.s.g.a.a.a.j.j.j.j.j.j.j.a.a.i.<.<.e.e.q.q.7.7.7.6.6.6.6.7.q.q.w.<.d.d.g.g.a.l.k.k.k.k.k.k.l.c.c.c.v.D.A.A.J.k     L.",
"L.L.  X L q.e.d.a.a.a.j.j.j.j.j.j.j.a.a.a.<.<.e.e.5.q.7.7.7.6.6.6.7.7.q.q.w.x.x.d.a.g.l.j.k.k.k.k.k.l.l.l.c.v.v.D.A.A.` X   L.L.",
"L.L.    + P s.g.a.a.a.j.j.j.j.k.k.j.a.a.i.<.<.e.e.q.5.5.7.7.6.6.6.7.7.q.q.w.x.x.d.g.a.l.j.k.k.k.k.k.l.l.c.c.c.D.D.D._ @     L.L.",
"L.L.L.    o C f.a.a.a.j.j.j.j.j.j.j.a.i.a.d.<.<.q.>.5.5.7.6.6.6.6.7.7.q.q.q.e.x.d.d.g.l.j.k.k.k.k.k.l.l.c.c.c.v.D.N O     L.L.L.",
"L.L.L.L.      w -.a.j.j.j.j.k.j.j.j.a.a.d.<.<.e.e.q.5.5.7.7.6.6.V.7.7.q.q.e.w.x.d.g.g.a.j.j.k.k.k.k.l.l.l.c.v.0.q       L.L.L.L.",
"L.L.L.L.L.      # z p.j.j.j.k.j.j.j.a.a.i.d.<.e.q.q.q.q.7.7.7.6.6.7.7.q.q.w.e.x.x.g.g.l.j.k.k.k.k.k.l.l.c.v.j @       L.L.L.L.L.",
"L.L.L.L.L.L.L.      # f p.j.j.j.j.j.a.a.a.<.<.e.e.q.7.7.7.7.6.6.6.7.7.q.q.e.w.x.d.g.g.l.j.k.k.k.k.k.k.u.j $       L.L.L.L.L.L.L.",
"L.L.L.L.L.L.L.L.L.      . 7 B p.j.j.a.a.a.<.<.<.w.q.q.7.7.6.6.6.6.7.7.r.q.w.w.s.d.g.g.g.l.k.k.k.h.Z 4 .       L.L.L.L.L.L.L.L.L.",
"L.L.L.L.L.L.L.L.L.L.L.        o < f @.i.a.d.<.e.w.q.q.7.7.7.6.6.6.7.7.q.q.w.w.x.d.g.g.l.h.#.h 2 X         L.L.L.L.L.L.L.L.L.L.L.",
"L.L.L.L.L.L.L.L.L.L.L.L.L.            o - 8 r c G 3.5.5.7.6.6.6.6.7.7.q.q.q.8.H V d 0 ; o             L.L.L.L.L.L.L.L.L.L.L.L.L.",
"L.L.L.L.L.L.L.L.L.L.L.L.L.L.L.L.L.                  . @ $ & - - - - & # + .                   L.L.L.L.L.L.L.L.L.L.L.L.L.L.L.L.L.",
"L.L.L.L.L.L.L.L.L.L.L.L.L.L.L.L.L.L.L.L.L.                                            L.L.L.L.L.L.L.L.L.L.L.L.L.L.L.L.L.L.L.L.L.",
"L.L.L.L.L.L.L.L.L.L.L.L.L.L.L.L.L.L.L.L.L.L.L.L.L.L.L.L.L.L.L.L.L.L.L.L.L.L.L.L.L.L.L.L.L.L.L.L.L.L.L.L.L.L.L.L.L.L.L.L.L.L.L.L.",
"L.L.L.L.L.L.L.L.L.L.L.L.L.L.L.L.L.L.L.L.L.L.L.L.L.L.L.L.L.L.L.L.L.L.L.L.L.L.L.L.L.L.L.L.L.L.L.L.L.L.L.L.L.L.L.L.L.L.L.L.L.L.L.L.",
"L.L.L.L.L.L.L.L.L.L.L.L.L.L.L.L.L.L.L.L.L.L.L.L.L.L.L.L.L.L.L.L.L.L.L.L.L.L.L.L.L.L.L.L.L.L.L.L.L.L.L.L.L.L.L.L.L.L.L.L.L.L.L.L.",
"L.L.L.L.L.L.L.L.L.L.L.L.L.L.L.L.L.L.L.L.L.L.L.L.L.L.L.L.L.L.L.L.L.L.L.L.L.L.L.L.L.L.L.L.L.L.L.L.L.L.L.L.L.L.L.L.L.L.L.L.L.L.L.L.",
"L.L.L.L.L.L.L.L.L.L.L.L.L.L.L.L.L.L.L.L.L.L.L.L.L.L.L.L.L.L.L.L.L.L.L.L.L.L.L.L.L.L.L.L.L.L.L.L.L.L.L.L.L.L.L.L.L.L.L.L.L.L.L.L.",
"L.L.L.L.L.L.L.L.L.L.L.L.L.L.L.L.L.L.L.L.L.L.L.L.L.L.L.L.L.L.L.L.L.L.L.L.L.L.L.L.L.L.L.L.L.L.L.L.L.L.L.L.L.L.L.L.L.L.L.L.L.L.L.L.",
"L.L.L.L.L.L.L.L.L.L.L.L.L.L.L.L.L.L.L.L.L.L.L.L.L.L.L.L.L.L.L.L.L.L.L.L.L.L.L.L.L.L.L.L.L.L.L.L.L.L.L.L.L.L.L.L.L.L.L.L.L.L.L.L.",
"L.L.L.L.L.L.L.L.L.L.L.L.L.L.L.L.L.L.L.L.L.L.L.L.L.L.L.L.L.L.L.L.L.L.L.L.L.L.L.L.L.L.L.L.L.L.L.L.L.L.L.L.L.L.L.L.L.L.L.L.L.L.L.L.",
"L.L.L.L.L.L.L.L.L.L.L.L.L.L.L.L.L.L.L.L.L.L.L.L.L.L.L.L.L.L.L.L.L.L.L.L.L.L.L.L.L.L.L.L.L.L.L.L.L.L.L.L.L.L.L.L.L.L.L.L.L.L.L.L.",
"L.L.L.L.L.L.L.L.L.L.L.L.L.L.L.L.L.L.L.L.L.L.L.L.L.L.L.L.L.L.L.L.L.L.L.L.L.L.L.L.L.L.L.L.L.L.L.L.L.L.L.L.L.L.L.L.L.L.L.L.L.L.L.L.",
"L.L.L.L.L.L.L.L.L.L.L.L.L.L.L.L.L.L.L.L.L.L.L.L.L.L.L.L.L.L.L.L.L.L.L.L.L.L.L.L.L.L.L.L.L.L.L.L.L.L.L.L.L.L.L.L.L.L.L.L.L.L.L.L."
};
