/* XPM */
static char *result[] = {
/* columns rows colors chars-per-pixel */
"64 64 5 1 ",
"  c #FCA316",
". c #F9A414",
"X c #FFD63F",
"o c #FFFC3E",
"O c None",
/* pixels */
"OOOOOOOOOOOOOOOOOOOOOOOooooooooooooooooooooooooOOOOOOOOOOOOOOOOO",
"OOOOOOOOOOOOOOOOOOOOOOOooooooooooooooooooooooooOOOOOOOOOOOOOOOOO",
"OOOOOOOOOOOOOOOOOOOOOOOooooooooooooooooooooooooOOOOOOOOOOOOOOOOO",
"OOOOOOOOOOOOOOOOOOOOOOOooooooooooooooooooooooooOOOOOOOOOOOOOOOOO",
"OOOOOOOOOOOOOOOOOOOOOOOooooooooooooooooooooooooOOOOOOOOOOOOOOOOO",
"OOOOOOOOOOOOOOOOOOOOOOOooooooooooooooooooooooooOOOOOOOOOOOOOOOOO",
"OOOOOOOOOOOOOOOOOOOOOOOooooooooooooooooooooooooOOOOOOOOOOOOOOOOO",
"OOOOOOOOOOOOOOOOOOOOOOOooooooooooooooooooooooooOOOOOOOOOOOOOOOOO",
"OOOOOOOOOOOOOOOooooooooooooooooXXXXXXXXXXXXXXXXooooooooOOOOOOOOO",
"OOOOOOOOOOOOOOOooooooooooooooooXXXXXXXXXXXXXXXXooooooooOOOOOOOOO",
"OOOOOOOOOOOOOOOooooooooooooooooXXXXXXXXXXXXXXXXooooooooOOOOOOOOO",
"OOOOOOOOOOOOOOOooooooooooooooooXXXXXXXXXXXXXXXXooooooooOOOOOOOOO",
"OOOOOOOOOOOOOOOooooooooooooooooXXXXXXXXXXXXXXXXooooooooOOOOOOOOO",
"OOOOOOOOOOOOOOOooooooooooooooooXXXXXXXXXXXXXXXXooooooooOOOOOOOOO",
"OOOOOOOOOOOOOOOooooooooooooooooXXXXXXXXXXXXXXXXooooooooOOOOOOOOO",
"OOOOOOOOOOOOOOOooooooooooooooooXXXXXXXXXXXXXXXXooooooooOOOOOOOOO",
"OOOOOOOooooooooXXXXXXXXXXXXXXXXXXXXXXXXooooooooXXXXXXXXooooooooO",
"OOOOOOOooooooooXXXXXXXXXXXXXXXXXXXXXXXXooooooooXXXXXXXXooooooooO",
"OOOOOOOooooooooXXXXXXXXXXXXXXXXXXXXXXXXooooooooXXXXXXXXooooooooO",
"OOOOOOOooooooooXXXXXXXXXXXXXXXXXXXXXXXXooooooooXXXXXXXXooooooooO",
"OOOOOOOooooooooXXXXXXXXXXXXXXXXXXXXXXXXooooooooXXXXXXXXooooooooO",
"OOOOOOOooooooooXXXXXXXXXXXXXXXXXXXXXXXXooooooooXXXXXXXXooooooooO",
"OOOOOOOooooooooXXXXXXXXXXXXXXXXXXXXXXXXooooooooXXXXXXXXooooooooO",
"OOOOOOOooooooooXXXXXXXXXXXXXXXXXXXXXXXXooooooooXXXXXXXXooooooooO",
"OOOOOOOXXXXXXXXXXXXXXXXXXXXXXXXooooooooXXXXXXXXXXXXXXXXXXXXXXXXO",
"OOOOOOOXXXXXXXXXXXXXXXXXXXXXXXXooooooooXXXXXXXXXXXXXXXXXXXXXXXXO",
"OOOOOOOXXXXXXXXXXXXXXXXXXXXXXXXooooooooXXXXXXXXXXXXXXXXXXXXXXXXO",
"OOOOOOOXXXXXXXXXXXXXXXXXXXXXXXXooooooooXXXXXXXXXXXXXXXXXXXXXXXXO",
"OOOOOOOXXXXXXXXXXXXXXXXXXXXXXXXooooooooXXXXXXXXXXXXXXXXXXXXXXXXO",
"OOOOOOOXXXXXXXXXXXXXXXXXXXXXXXXooooooooXXXXXXXXXXXXXXXXXXXXXXXXO",
"OOOOOOOXXXXXXXXXXXXXXXXXXXXXXXXooooooooXXXXXXXXXXXXXXXXXXXXXXXXO",
"OOOOOOOXXXXXXXXXXXXXXXXXXXXXXXXooooooooXXXXXXXXXXXXXXXXXXXXXXXXO",
"OOOOOOOXXXXXXXXXXXXXXXXXXXXXXXX........XXXXXXXXXXXXXXXXXXXXXXXXO",
"OOOOOOOXXXXXXXXXXXXXXXXXXXXXXXX........XXXXXXXXXXXXXXXXXXXXXXXXO",
"OOOOOOOXXXXXXXXXXXXXXXXXXXXXXXX........XXXXXXXXXXXXXXXXXXXXXXXXO",
"OOOOOOOXXXXXXXXXXXXXXXXXXXXXXXX........XXXXXXXXXXXXXXXXXXXXXXXXO",
"OOOOOOOXXXXXXXXXXXXXXXXXXXXXXXX........XXXXXXXXXXXXXXXXXXXXXXXXO",
"OOOOOOOXXXXXXXXXXXXXXXXXXXXXXXX........XXXXXXXXXXXXXXXXXXXXXXXXO",
"OOOOOOOXXXXXXXXXXXXXXXXXXXXXXXX........XXXXXXXXXXXXXXXXXXXXXXXXO",
"OOOOOOOXXXXXXXXXXXXXXXXXXXXXXXX........XXXXXXXXXXXXXXXXXXXXXXXXO",
"OOOOOOO                XXXXXXXXXXXXXXXX........XXXXXXXX        O",
"OOOOOOO                XXXXXXXXXXXXXXXX........XXXXXXXX        O",
"OOOOOOO                XXXXXXXXXXXXXXXX........XXXXXXXX        O",
"OOOOOOO                XXXXXXXXXXXXXXXX........XXXXXXXX        O",
"OOOOOOO                XXXXXXXXXXXXXXXX........XXXXXXXX        O",
"OOOOOOO                XXXXXXXXXXXXXXXX........XXXXXXXX        O",
"OOOOOOO                XXXXXXXXXXXXXXXX........XXXXXXXX        O",
"OOOOOOO                XXXXXXXXXXXXXXXX........XXXXXXXX        O",
"OOOOOOOOOOOOOOO................XXXXXXXXXXXXXXXX........OOOOOOOOO",
"OOOOOOOOOOOOOOO................XXXXXXXXXXXXXXXX........OOOOOOOOO",
"OOOOOOOOOOOOOOO................XXXXXXXXXXXXXXXX........OOOOOOOOO",
"OOOOOOOOOOOOOOO................XXXXXXXXXXXXXXXX........OOOOOOOOO",
"OOOOOOOOOOOOOOO................XXXXXXXXXXXXXXXX........OOOOOOOOO",
"OOOOOOOOOOOOOOO................XXXXXXXXXXXXXXXX........OOOOOOOOO",
"OOOOOOOOOOOOOOO................XXXXXXXXXXXXXXXX........OOOOOOOOO",
"OOOOOOOOOOOOOOO................XXXXXXXXXXXXXXXX........OOOOOOOOO",
"OOOOOOOOOOOOOOOOOOOOOOO                        OOOOOOOOOOOOOOOOO",
"OOOOOOOOOOOOOOOOOOOOOOO                        OOOOOOOOOOOOOOOOO",
"OOOOOOOOOOOOOOOOOOOOOOO                        OOOOOOOOOOOOOOOOO",
"OOOOOOOOOOOOOOOOOOOOOOO                        OOOOOOOOOOOOOOOOO",
"OOOOOOOOOOOOOOOOOOOOOOO                        OOOOOOOOOOOOOOOOO",
"OOOOOOOOOOOOOOOOOOOOOOO                        OOOOOOOOOOOOOOOOO",
"OOOOOOOOOOOOOOOOOOOOOOO                        OOOOOOOOOOOOOOOOO",
"OOOOOOOOOOOOOOOOOOOOOOO                        OOOOOOOOOOOOOOOOO"
};
