/* XPM */
static char *result[] = {
/* columns rows colors chars-per-pixel */
"64 64 4 1 ",
"  c #F9A414",
". c #FFD63F",
"X c #FFFC3E",
"o c None",
/* pixels */
"oooooooooooooooooooooooXXXXXXXXXXXXXXXXooooooooooooooooooooooooo",
"oooooooooooooooooooooooXXXXXXXXXXXXXXXXooooooooooooooooooooooooo",
"oooooooooooooooooooooooXXXXXXXXXXXXXXXXooooooooooooooooooooooooo",
"oooooooooooooooooooooooXXXXXXXXXXXXXXXXooooooooooooooooooooooooo",
"oooooooooooooooooooooooXXXXXXXXXXXXXXXXooooooooooooooooooooooooo",
"oooooooooooooooooooooooXXXXXXXXXXXXXXXXooooooooooooooooooooooooo",
"oooooooooooooooooooooooXXXXXXXXXXXXXXXXooooooooooooooooooooooooo",
"oooooooooooooooooooooooXXXXXXXXXXXXXXXXooooooooooooooooooooooooo",
"ooooooooooooooooooooooo................ooooooooooooooooooooooooo",
"ooooooooooooooooooooooo................ooooooooooooooooooooooooo",
"ooooooooooooooooooooooo................ooooooooooooooooooooooooo",
"ooooooooooooooooooooooo................ooooooooooooooooooooooooo",
"ooooooooooooooooooooooo................ooooooooooooooooooooooooo",
"ooooooooooooooooooooooo................ooooooooooooooooooooooooo",
"ooooooooooooooooooooooo................ooooooooooooooooooooooooo",
"ooooooooooooooooooooooo................ooooooooooooooooooooooooo",
"ooooooooooooooooooooooo................ooooooooooooooooooooooooo",
"ooooooooooooooooooooooo................ooooooooooooooooooooooooo",
"ooooooooooooooooooooooo................ooooooooooooooooooooooooo",
"ooooooooooooooooooooooo................ooooooooooooooooooooooooo",
"ooooooooooooooooooooooo................ooooooooooooooooooooooooo",
"ooooooooooooooooooooooo................ooooooooooooooooooooooooo",
"ooooooooooooooooooooooo................ooooooooooooooooooooooooo",
"ooooooooooooooooooooooo................ooooooooooooooooooooooooo",
"oooooooooooooooooooooooXXXXXXXXXXXXXXXXooooooooooooooooooooooooo",
"oooooooooooooooooooooooXXXXXXXXXXXXXXXXooooooooooooooooooooooooo",
"oooooooooooooooooooooooXXXXXXXXXXXXXXXXooooooooooooooooooooooooo",
"oooooooooooooooooooooooXXXXXXXXXXXXXXXXooooooooooooooooooooooooo",
"oooooooooooooooooooooooXXXXXXXXXXXXXXXXooooooooooooooooooooooooo",
"oooooooooooooooooooooooXXXXXXXXXXXXXXXXooooooooooooooooooooooooo",
"oooooooooooooooooooooooXXXXXXXXXXXXXXXXooooooooooooooooooooooooo",
"oooooooooooooooooooooooXXXXXXXXXXXXXXXXooooooooooooooooooooooooo",
"ooooooooooooooooooooooo                ooooooooooooooooooooooooo",
"ooooooooooooooooooooooo                ooooooooooooooooooooooooo",
"ooooooooooooooooooooooo                ooooooooooooooooooooooooo",
"ooooooooooooooooooooooo                ooooooooooooooooooooooooo",
"ooooooooooooooooooooooo                ooooooooooooooooooooooooo",
"ooooooooooooooooooooooo                ooooooooooooooooooooooooo",
"ooooooooooooooooooooooo                ooooooooooooooooooooooooo",
"ooooooooooooooooooooooo                ooooooooooooooooooooooooo",
"ooooooooooooooooooooooo................ooooooooooooooooooooooooo",
"ooooooooooooooooooooooo................ooooooooooooooooooooooooo",
"ooooooooooooooooooooooo................ooooooooooooooooooooooooo",
"ooooooooooooooooooooooo................ooooooooooooooooooooooooo",
"ooooooooooooooooooooooo................ooooooooooooooooooooooooo",
"ooooooooooooooooooooooo................ooooooooooooooooooooooooo",
"ooooooooooooooooooooooo................ooooooooooooooooooooooooo",
"ooooooooooooooooooooooo................ooooooooooooooooooooooooo",
"ooooooooooooooooooooooo................ooooooooooooooooooooooooo",
"ooooooooooooooooooooooo................ooooooooooooooooooooooooo",
"ooooooooooooooooooooooo................ooooooooooooooooooooooooo",
"ooooooooooooooooooooooo................ooooooooooooooooooooooooo",
"ooooooooooooooooooooooo................ooooooooooooooooooooooooo",
"ooooooooooooooooooooooo................ooooooooooooooooooooooooo",
"ooooooooooooooooooooooo................ooooooooooooooooooooooooo",
"ooooooooooooooooooooooo................ooooooooooooooooooooooooo",
"ooooooooooooooooooooooo                ooooooooooooooooooooooooo",
"ooooooooooooooooooooooo                ooooooooooooooooooooooooo",
"ooooooooooooooooooooooo                ooooooooooooooooooooooooo",
"ooooooooooooooooooooooo                ooooooooooooooooooooooooo",
"ooooooooooooooooooooooo                ooooooooooooooooooooooooo",
"ooooooooooooooooooooooo                ooooooooooooooooooooooooo",
"ooooooooooooooooooooooo                ooooooooooooooooooooooooo",
"ooooooooooooooooooooooo                ooooooooooooooooooooooooo"
};
