/* XPM */
static char *result[] = {
/* columns rows colors chars-per-pixel */
"64 64 18 1 ",
"  c #F9A414",
". c #FFD63F",
"X c #FFFD3B",
"o c #FFFE3B",
"O c #FFFB3D",
"+ c #FFFB3E",
"@ c #FFFD3C",
"# c #FFFC3D",
"$ c #FFFD3D",
"% c #FFFE3C",
"& c #FFFF3C",
"* c #FFFE3D",
"= c #FFFC3E",
"- c #FFFD3E",
"; c #FFFD3F",
": c #FFFF3E",
"> c #FFFE3F",
", c None",
/* pixels */
",,,,,,,,,,,,,,,,================================,,,,,,,,,,,,,,,,",
",,,,,,,,,,,,,,,,================================,,,,,,,,,,,,,,,,",
",,,,,,,,,,,,,,,,================================,,,,,,,,,,,,,,,,",
",,,,,,,,,,,,,,,,================================,,,,,,,,,,,,,,,,",
",,,,,,,,,,,,,,,,================================,,,,,,,,,,,,,,,,",
",,,,,,,,,,,,,,,,================================,,,,,,,,,,,,,,,,",
",,,,,,,,,,,,,,,,================================,,,,,,,,,,,,,,,,",
",,,,,,,,,,,,,,,,================================,,,,,,,,,,,,,,,,",
",,,,,,,,========................................========,,,,,,,,",
",,,,,,,,========................................========,,,,,,,,",
",,,,,,,,========................................========,,,,,,,,",
",,,,,,,,========................................========,,,,,,,,",
",,,,,,,,========................................========,,,,,,,,",
",,,,,,,,========................................========,,,,,,,,",
",,,,,,,,========................................========,,,,,,,,",
",,,,,,,,========................................========,,,,,,,,",
"&>======................================................========",
"o*-O====................================................========",
"&:=#====................================................========",
"*%**;===................================................========",
"X@*%$===................================................========",
"#+#=====................================................========",
"O##=====................================................========",
"#-#=====................================................========",
"................========................========................",
"................========................========................",
"................========................========................",
"................========................========................",
"................========................========................",
"................========................========................",
"................========................========................",
"................========................========................",
"................        ................        ................",
"................        ................        ................",
"................        ................        ................",
"................        ................        ................",
"................        ................        ................",
"................        ................        ................",
"................        ................        ................",
"................        ................        ................",
"        ................                ................        ",
"        ................                ................        ",
"        ................                ................        ",
"        ................                ................        ",
"        ................                ................        ",
"        ................                ................        ",
"        ................                ................        ",
"        ................                ................        ",
",,,,,,,,        ................................        ,,,,,,,,",
",,,,,,,,        ................................        ,,,,,,,,",
",,,,,,,,        ................................        ,,,,,,,,",
",,,,,,,,        ................................        ,,,,,,,,",
",,,,,,,,        ................................        ,,,,,,,,",
",,,,,,,,        ................................        ,,,,,,,,",
",,,,,,,,        ................................        ,,,,,,,,",
",,,,,,,,        ................................        ,,,,,,,,",
",,,,,,,,,,,,,,,,                                ,,,,,,,,,,,,,,,,",
",,,,,,,,,,,,,,,,                                ,,,,,,,,,,,,,,,,",
",,,,,,,,,,,,,,,,                                ,,,,,,,,,,,,,,,,",
",,,,,,,,,,,,,,,,                                ,,,,,,,,,,,,,,,,",
",,,,,,,,,,,,,,,,                                ,,,,,,,,,,,,,,,,",
",,,,,,,,,,,,,,,,                                ,,,,,,,,,,,,,,,,",
",,,,,,,,,,,,,,,,                                ,,,,,,,,,,,,,,,,",
",,,,,,,,,,,,,,,,                                ,,,,,,,,,,,,,,,,"
};
