/* XPM */
static char *result[] = {
/* columns rows colors chars-per-pixel */
"64 64 5 1 ",
"  c #FCA316",
". c #F9A414",
"X c #FFD63F",
"o c #FFFC3E",
"O c None",
/* pixels */
"OOOOOOOOOOOOOOOOooooooooooooooooooooooooOOOOOOOOOOOOOOOOOOOOOOOO",
"OOOOOOOOOOOOOOOOooooooooooooooooooooooooOOOOOOOOOOOOOOOOOOOOOOOO",
"OOOOOOOOOOOOOOOOooooooooooooooooooooooooOOOOOOOOOOOOOOOOOOOOOOOO",
"OOOOOOOOOOOOOOOOooooooooooooooooooooooooOOOOOOOOOOOOOOOOOOOOOOOO",
"OOOOOOOOOOOOOOOOooooooooooooooooooooooooOOOOOOOOOOOOOOOOOOOOOOOO",
"OOOOOOOOOOOOOOOOooooooooooooooooooooooooOOOOOOOOOOOOOOOOOOOOOOOO",
"OOOOOOOOOOOOOOOOooooooooooooooooooooooooOOOOOOOOOOOOOOOOOOOOOOOO",
"OOOOOOOOOOOOOOOOooooooooooooooooooooooooOOOOOOOOOOOOOOOOOOOOOOOO",
"OOOOOOOOooooooooXXXXXXXXXXXXXXXXooooooooooooooooOOOOOOOOOOOOOOOO",
"OOOOOOOOooooooooXXXXXXXXXXXXXXXXooooooooooooooooOOOOOOOOOOOOOOOO",
"OOOOOOOOooooooooXXXXXXXXXXXXXXXXooooooooooooooooOOOOOOOOOOOOOOOO",
"OOOOOOOOooooooooXXXXXXXXXXXXXXXXooooooooooooooooOOOOOOOOOOOOOOOO",
"OOOOOOOOooooooooXXXXXXXXXXXXXXXXooooooooooooooooOOOOOOOOOOOOOOOO",
"OOOOOOOOooooooooXXXXXXXXXXXXXXXXooooooooooooooooOOOOOOOOOOOOOOOO",
"OOOOOOOOooooooooXXXXXXXXXXXXXXXXooooooooooooooooOOOOOOOOOOOOOOOO",
"OOOOOOOOooooooooXXXXXXXXXXXXXXXXooooooooooooooooOOOOOOOOOOOOOOOO",
"ooooooooXXXXXXXXooooooooXXXXXXXXXXXXXXXXXXXXXXXXooooooooOOOOOOOO",
"ooooooooXXXXXXXXooooooooXXXXXXXXXXXXXXXXXXXXXXXXooooooooOOOOOOOO",
"ooooooooXXXXXXXXooooooooXXXXXXXXXXXXXXXXXXXXXXXXooooooooOOOOOOOO",
"ooooooooXXXXXXXXooooooooXXXXXXXXXXXXXXXXXXXXXXXXooooooooOOOOOOOO",
"ooooooooXXXXXXXXooooooooXXXXXXXXXXXXXXXXXXXXXXXXooooooooOOOOOOOO",
"ooooooooXXXXXXXXooooooooXXXXXXXXXXXXXXXXXXXXXXXXooooooooOOOOOOOO",
"ooooooooXXXXXXXXooooooooXXXXXXXXXXXXXXXXXXXXXXXXooooooooOOOOOOOO",
"ooooooooXXXXXXXXooooooooXXXXXXXXXXXXXXXXXXXXXXXXooooooooOOOOOOOO",
"XXXXXXXXXXXXXXXXXXXXXXXXooooooooXXXXXXXXXXXXXXXXXXXXXXXXOOOOOOOO",
"XXXXXXXXXXXXXXXXXXXXXXXXooooooooXXXXXXXXXXXXXXXXXXXXXXXXOOOOOOOO",
"XXXXXXXXXXXXXXXXXXXXXXXXooooooooXXXXXXXXXXXXXXXXXXXXXXXXOOOOOOOO",
"XXXXXXXXXXXXXXXXXXXXXXXXooooooooXXXXXXXXXXXXXXXXXXXXXXXXOOOOOOOO",
"XXXXXXXXXXXXXXXXXXXXXXXXooooooooXXXXXXXXXXXXXXXXXXXXXXXXOOOOOOOO",
"XXXXXXXXXXXXXXXXXXXXXXXXooooooooXXXXXXXXXXXXXXXXXXXXXXXXOOOOOOOO",
"XXXXXXXXXXXXXXXXXXXXXXXXooooooooXXXXXXXXXXXXXXXXXXXXXXXXOOOOOOOO",
"XXXXXXXXXXXXXXXXXXXXXXXXooooooooXXXXXXXXXXXXXXXXXXXXXXXXOOOOOOOO",
"XXXXXXXXXXXXXXXXXXXXXXXX........XXXXXXXXXXXXXXXXXXXXXXXXOOOOOOOO",
"XXXXXXXXXXXXXXXXXXXXXXXX........XXXXXXXXXXXXXXXXXXXXXXXXOOOOOOOO",
"XXXXXXXXXXXXXXXXXXXXXXXX........XXXXXXXXXXXXXXXXXXXXXXXXOOOOOOOO",
"XXXXXXXXXXXXXXXXXXXXXXXX........XXXXXXXXXXXXXXXXXXXXXXXXOOOOOOOO",
"XXXXXXXXXXXXXXXXXXXXXXXX........XXXXXXXXXXXXXXXXXXXXXXXXOOOOOOOO",
"XXXXXXXXXXXXXXXXXXXXXXXX........XXXXXXXXXXXXXXXXXXXXXXXXOOOOOOOO",
"XXXXXXXXXXXXXXXXXXXXXXXX........XXXXXXXXXXXXXXXXXXXXXXXXOOOOOOOO",
"XXXXXXXXXXXXXXXXXXXXXXXX........XXXXXXXXXXXXXXXXXXXXXXXXOOOOOOOO",
".       XXXXXXXX........XXXXXXXXXXXXXXXX                OOOOOOOO",
".       XXXXXXXX........XXXXXXXXXXXXXXXX                OOOOOOOO",
".       XXXXXXXX........XXXXXXXXXXXXXXXX                OOOOOOOO",
".       XXXXXXXX........XXXXXXXXXXXXXXXX                OOOOOOOO",
"..      XXXXXXXX........XXXXXXXXXXXXXXXX                OOOOOOOO",
".       XXXXXXXX........XXXXXXXXXXXXXXXX                OOOOOOOO",
".       XXXXXXXX........XXXXXXXXXXXXXXXX                OOOOOOOO",
".       XXXXXXXX........XXXXXXXXXXXXXXXX                OOOOOOOO",
"OOOOOOOO........XXXXXXXXXXXXXXXX................OOOOOOOOOOOOOOOO",
"OOOOOOOO........XXXXXXXXXXXXXXXX................OOOOOOOOOOOOOOOO",
"OOOOOOOO........XXXXXXXXXXXXXXXX................OOOOOOOOOOOOOOOO",
"OOOOOOOO........XXXXXXXXXXXXXXXX................OOOOOOOOOOOOOOOO",
"OOOOOOOO........XXXXXXXXXXXXXXXX................OOOOOOOOOOOOOOOO",
"OOOOOOOO........XXXXXXXXXXXXXXXX................OOOOOOOOOOOOOOOO",
"OOOOOOOO........XXXXXXXXXXXXXXXX................OOOOOOOOOOOOOOOO",
"OOOOOOOO........XXXXXXXXXXXXXXXX................OOOOOOOOOOOOOOOO",
"OOOOOOOOOOOOOOOO                        OOOOOOOOOOOOOOOOOOOOOOOO",
"OOOOOOOOOOOOOOOO                        OOOOOOOOOOOOOOOOOOOOOOOO",
"OOOOOOOOOOOOOOOO                        OOOOOOOOOOOOOOOOOOOOOOOO",
"OOOOOOOOOOOOOOOO                        OOOOOOOOOOOOOOOOOOOOOOOO",
"OOOOOOOOOOOOOOOO                        OOOOOOOOOOOOOOOOOOOOOOOO",
"OOOOOOOOOOOOOOOO                        OOOOOOOOOOOOOOOOOOOOOOOO",
"OOOOOOOOOOOOOOOO                        OOOOOOOOOOOOOOOOOOOOOOOO",
"OOOOOOOOOOOOOOOO                        OOOOOOOOOOOOOOOOOOOOOOOO"
};
