/* XPM */
static char *result[] = {
/* columns rows colors chars-per-pixel */
"64 64 96 2 ",
"   c #FF56BD",
".  c #FF56BE",
"X  c #FF57BE",
"o  c #FF59BF",
"O  c #FF5ABF",
"+  c #FF5BBF",
"@  c #FF5CBF",
"#  c #FF5BC0",
"$  c #FF5CC0",
"%  c #FF5DC0",
"&  c #FF5DC1",
"*  c #FF5EC0",
"=  c #FF5FC0",
"-  c #FF5EC1",
";  c #FF5FC1",
":  c #FF5EC2",
">  c #FF60C1",
",  c #FF61C1",
"<  c #FF60C2",
"1  c #FF61C2",
"2  c #FF61C3",
"3  c #FF62C2",
"4  c #FF63C2",
"5  c #FF63C3",
"6  c #FF64C3",
"7  c #FF65C3",
"8  c #FF65C4",
"9  c #FF66C4",
"0  c #FF67C4",
"q  c #FF68C4",
"w  c #FF69C4",
"e  c #FF68C5",
"r  c #FF69C5",
"t  c #FF6AC5",
"y  c #FF6BC5",
"u  c #FF6AC6",
"i  c #FF6BC6",
"p  c #FF6CC5",
"a  c #FF6CC6",
"s  c #FF6DC6",
"d  c #FF6CC7",
"f  c #FF6DC7",
"g  c #FF6EC6",
"h  c #FF6EC7",
"j  c #FF6FC7",
"k  c #FF70C6",
"l  c #FF70C8",
"z  c #FF71C8",
"x  c #FF71C9",
"c  c #FF72C8",
"v  c #FF73C8",
"b  c #FF73C9",
"n  c #FF73CA",
"m  c #FF74C9",
"M  c #FF74CA",
"N  c #FF76CA",
"B  c #FF77CA",
"V  c #FF79CA",
"C  c #FF7ACB",
"Z  c #FF7BCC",
"A  c #FF7ECC",
"S  c #FF7ECD",
"D  c #FF7FCD",
"F  c #FF7ECE",
"G  c #FF80CD",
"H  c #FF82CD",
"J  c #FF80CE",
"K  c #FF83CF",
"L  c #FF85CF",
"P  c #FF84D0",
"I  c #FF86D0",
"U  c #FF88D0",
"Y  c #FF88D1",
"T  c #FF89D1",
"R  c #FF8AD1",
"E  c #FF8BD1",
"W  c #FF8AD2",
"Q  c #FF8BD2",
"!  c #FF8CD2",
"~  c #FF8CD3",
"^  c #FF8FD2",
"/  c #FF8FD3",
"(  c #FF92D4",
")  c #FF93D4",
"_  c #FF92D5",
"`  c #FF93D5",
"'  c #FF94D5",
"]  c #FF97D7",
"[  c #FFA1DB",
"{  c #FFB0E0",
"}  c #FFBBE5",
"|  c #FFC0E7",
" . c #FFC9EB",
".. c #FFD7EF",
"X. c #FFD8F0",
"o. c None",
/* pixels */
"o.o.o.o.o.o.o.o.o.o.o.o.o.o.o.o.o.o.o.o.o.o.o.o.o.o.o.o.o.o.o.o.o.o.o.o.o.o.o.o.o.o.o.o.o.o.o.o.o.o.o.o.o.o.o.o.o.o.o.o.o.o.o.o.",
"o.o.o.o.o.o.o.o.o.o.o.o.o.o.o.o.o.o.o.o.o.o.o.o.o.o.o.o.o.o.o.o.o.o.o.o.o.o.o.o.o.o.o.o.o.o.o.o.o.o.o.o.o.o.o.o.o.o.o.o.o.o.o.o.",
"o.o.o.o.k o.o.o.o.o.o.o.o.o.o.o.o.o.o.o.o.o.o.o.o.o.o.o.o.o.o.o.o.o.o.o.o.o.o.o.o.o.o.o.o.o.o.o.o.o.o.o.o.o.o.o.o.o.o.o.o.o.o.o.",
"o.o.o.X 7 ; $ o.o.o.o.o.o.o.o.o.o.o.o.o.o.o.o.o.o.o.o.o.o.o.o.o.o.o.o.o.o.o.o.o.o.o.o.o.o.o.o.o.o.o.o.o.o.o.o.o.o.o.o.o.o.o.o.o.",
"o.o.u 9 9 0 q - q o.o.o.o.o.o.o.o.o.o.o.o.o.o.o.o.o.o.o.o.o.o.o.o.o.o.o.o.o.o.o.o.o.o.o.o.o.o.o.o.o.o.o.o.o.o.o.o.o.o.o.o.o.o.o.",
"o.o.o.; 0 7 7 q 6 % o.o.o.o.o.o.o.o.o.o.o.o.o.o.o.o.o.o.o.o.o.o.o.o.o.o.o.o.o.o.o.o.o.o.o.o.o.o.o.o.o.o.o.o.o.o.o.o.o.o.o.o.o.o.",
"o.o.o.$ q 7 9 7 0 0 @ o.o.o.o.o.o.o.o.o.o.o.o.o.o.o.o.o.o.o.o.o.o.o.o.o.o.o.o.o.o.o.o.o.o.o.o.o.o.o.o.o.o.o.o.o.o.o.o.o.o.o.o.o.",
"o.o.o.o.* q 7 9 7 9 q # o.o.o.o.o.o.o.o.o.o.o.o.o.o.o.o.o.o.o.o.o.o.o.o.o.o.o.o.o.o.o.o.6 ; n o.o.o.o.o.o.o.o.o.o.o.o.o.o.o.o.o.",
"o.o.o.o.u 5 0 7 9 7 9 e % o.o.o.o.o.o.o.o.o.o.o.o.o.o.o.o.o.) . o.o.o.o.o.o.o.o.o.o.o.o.; t > c o.o.o.o.o.o.o.o.o.o.o.o.o.o.o.o.",
"o.o.o.o.o.; 9 9 7 9 8 7 e % D o.o.o.o.o.o.o.o.o.o.o.o.o.o.o.o.7 0 # o.o.o.o.o.o.o.o.o.o.s 4 r > x o.o.o.o.o.o.o.o.o.o.o.o.o.o.o.",
"o.o.o.o.o.o.@ q 9 7 9 9 7 q ; m o.o.o.o.o.o.o.o.o.o.o.o.o.o.o.O r 0 & o.o.o.o.o.o.o.o.o.o.> 9 q 1 t C i 9 > O + - < 1 ; o o.o.o.",
"o.o.o.o.o.o.o.$ e 7 9 9 9 7 q ; b o.o.o.o.o.o.o.o.o.o.o.o.o.o.L > q 7 5 o.o.o.o.o.o.o.B s 0 7 7 0 7 1 6 7 0 q q 0 0 0 q r = o.o.",
"o.o.o.o.o.o.o.o.+ e 7 9 9 9 7 q > b o.o.o.o.o.o.o.o.o.o.o.o.o.o.0 7 0 3 h T l 9 - O - 3 5 7 9 9 7 9 9 9 9 9 9 7 9 9 q 0 5 % o.o.",
"o.o.o.o.o.o.o.o.o.$ e 7 9 9 9 7 q 1 i X.o.o.o.o.o.o.o.o.o.o.N h 0 7 7 9 6 ; 4 7 0 e 0 9 9 9 7 9 9 9 9 9 7 9 9 0 0 6 $ * o.o.o.o.",
"o.o.o.o.o.o.o.o.o.G % q 7 9 9 9 7 0 1 s [ _ A f e 5 % o $ ; 3 4 7 9 9 7 9 0 9 9 9 7 9 9 9 9 9 9 9 9 9 9 0 q 7 - % d o.o.o.o.o.o.",
"o.o.o.o.o.o.o.o.o.o.F ; q 7 9 9 9 7 0 6 # * 1 5 7 9 0 e q 0 9 9 9 7 9 9 9 9 9 9 9 9 9 9 9 9 9 7 9 9 q 0 1 # 9 o.o.o.o.o.o.o.o.o.",
"o.o.o.o.o.o.o.o.o.o.o.N ; q 7 9 9 9 7 9 q 0 0 9 9 9 9 7 9 9 9 9 9 9 9 9 9 9 9 9 9 9 9 9 9 9 9 0 q 6 $ > o.o.o.o.o.o.o.o.o.o.o.o.",
"o.o.o.o.o.o.o.o.o.o.o.o.v > q 7 9 9 9 9 9 9 9 9 9 9 9 9 9 9 9 9 9 9 9 9 9 9 9 9 9 9 9 9 9 0 0 > $ p o.o.o.o.o.o.o.o.o.o.o.o.o.o.",
"o.o.o.o.o.o.o.o.o.o.o.o.o.b > 0 7 9 9 9 9 9 9 9 9 9 9 9 9 9 9 9 9 9 9 9 9 9 9 9 7 9 9 q 7 % > o.o.o.o.o.o.o.o.o.o.o.o.o.o.o.o.o.",
"o.o.o.o.o.o.o.o.o.o.o.o.o.o.M 4 9 9 9 9 9 9 9 9 9 9 9 9 9 9 9 9 9 9 9 9 9 9 9 7 9 q 5 $ w o.o.o.o.o.o.o.o.o.o.o.o.o.o.o.o.o.o.o.",
"o.o.o.o.o.o.o.o.o.o.o.o.o.o.' % 0 9 9 9 9 9 9 9 9 9 9 9 9 9 9 9 9 9 9 9 9 7 9 q 3 $ h o.o.o.o.o.o.o.o.o.o.o.o.o.o.o.o.o.o.o.o.o.",
"o.o.o.o.o.o.o.o.o.o.o.o.o.o.Z 1 0 9 9 9 9 9 9 9 9 9 9 9 9 9 9 9 9 9 9 7 7 0 6 $ c o.o.o.o.o.o.o.o.o.o.o.o.o.o.o.o.o.o.o.o.o.o.o.",
"o.o.o.o.o.o.o.o.o.o.o.o.o.o.s 5 9 9 9 9 9 9 9 9 9 9 9 9 9 9 9 9 9 9 7 9 q - w o.o.o.o.o.o.o.o.o.o.o.o.o.o.o.o.o.o.o.o.o.o.o.o.o.",
"o.o.o.o.o.o.o.o.o.o.o.o.o.o.0 7 9 9 9 9 9 9 9 9 9 9 9 9 9 9 9 9 9 7 9 9 $ W o.o.o.o.o.o.o.o.o.o.o.o.o.o.o.o.o.o.o.o.o.o.o.o.o.o.",
"o.o.o.o.o.o.o.o.o.o.o.o.o.o.3 9 9 9 9 9 9 9 9 9 9 9 9 9 9 9 9 9 7 9 8 ; o.o.o.o.o.o.o.o.o.o.o.o.o.o.o.o.o.o.o.o.o.o.o.o.o.o.o.o.",
"o.o.o.o.o.o.o.o.o.o.o.o.o.o.+ q 9 9 9 9 9 9 9 9 9 9 9 9 9 9 9 7 9 9 > o.o.o.o.o.o.o.o.o.o.o.o.o.o.o.o.o.o.o.o.o.o.o.o.o.o.o.o.o.",
"o.o.o.o.o.o.o.o.o.o.o.o.o.o.O e 7 9 9 9 9 9 9 9 9 9 9 9 9 9 9 9 0 * o.o.o.o.o.o.o.o.o.o.o.o.o.o.o.o.o.o.o.o.o.o.o.o.o.o.o.o.o.o.",
"o.o.o.o.o.o.o.o.o.o.o.o.o.o.% 0 9 9 9 9 9 9 9 9 9 9 9 9 9 9 9 9 6 r o.o.o.o.o.o.o.o.o.o.o.o.o.o.o.o.o.o.o.o.o.o.o.o.o.o.o.o.o.o.",
"o.o.o.o.o.o.o.o.o.o.o.o.o.o.> 0 9 9 9 9 9 9 9 9 9 9 9 9 9 9 9 0 1 S o.o.o.o.o.o.o.o.o.o.o.o.o.o.o.o.o.o.o.o.o.o.o.o.o.o.o.o.o.o.",
"o.o.o.o.o.o.o.o.o.o.o.o.o.l 5 9 9 9 9 9 9 9 9 9 9 9 9 9 9 9 9 9 6 s o.o.o.o.o.o.o.o.o.o.o.o.o.o.o.o.o.o.o.o.o.o.o.o.o.o.o.o.o.o.",
"o.o.o.o.o.o.o.o.V z o.o.o.q 7 9 9 9 9 9 9 9 9 9 9 9 9 9 9 9 9 9 0 $ { o.o.o.o.o.o.o.o.o.o.o.o.o.o.o.o.o.o.o.o.o.o.o.o.o.o.o.o.o.",
"o.o.o.o.o.o.o.o.  7 * o.o.4 9 9 9 9 9 9 9 9 9 9 7 9 9 9 9 7 9 7 9 7 0 o.o.o.o.o.o.o.o.o.o.o.o.o.o.o.o.o.o.o.o.o.o.o.o.o.o.o.o.o.",
"o.o.o.o.o.o.o.o.o.0 7 4 C 9 7 9 9 9 9 9 9 9 9 7 9 q 9 9 q 9 9 9 7 0 1 m o.o.o.o.o.o.o.o.o.o.o.o.o.o.o.o.o.o.o.o.o.o.o.o.o.o.o.o.",
"o.o.o.o.o.o.o.o.o.$ 0 0 3 9 9 7 9 9 9 9 9 9 7 0 3 + 1 3 $ 4 q 9 7 7 q ; A o.o.o.o.o.o.o.o.o.o.o.o.o.o.o.o.o.o.o.o.o.o.o.o.o.o.o.",
"o.o.o.o.o.o.o.o.o.o.; 9 0 7 9 9 9 9 9 9 9 7 0 * N o.o.o.o.c $ 7 0 7 7 q $ R o.o.o.o.o.o.o.o.o.o.o.o.o.o.o.o.o.o.o.o.o.o.o.o.o.o.",
"o.o.o.o.o.o.o.o.o.o.o.; 6 9 7 9 9 9 9 9 7 0 * / o.o.o.o.o.o.o.0 ; q 9 7 e $ Q o.o.o.o.o.o.o.o.o.o.o.o.o.o.o.o.o.o.o.o.o.o.o.o.o.",
"o.o.o.o.o.o.o.o.o.o.o.o.q 7 9 9 9 9 9 7 0 > K o.o.o.o.o.o.o.o.o.U $ 9 9 7 e $ Q o.o.o.o.o.o.o.o.o.o.o.o.o.o.o.o.o.o.o.o.o.o.o.o.",
"o.o.o.o.o.o.o.o.o.o.o.o.N 3 9 9 9 9 9 9 9 1 ..o.o.o.o.o.o.o.o.o.o.o.; 9 9 7 e $ ~ o.o.o.o.o.o.o.o.o.o.o.o.o.o.o.o.o.o.o.o.o.o.o.",
"o.o.o.o.o.o.o.o.o.o.o.o.0 7 9 9 9 9 7 0 ; Y o.o.o.o.o.o.o.o.o.o.o.o.o.- 9 0 7 e $ ~ o.o.o.o.o.o.o.o.o.o.o.o.o.o.o.o.o.o.o.o.o.o.",
"o.o.o.o.o.o.o.o.o.o.o.o.3 9 9 9 9 9 9 q $ } o.o.o.o.o.o.o.o.o.o.o.o.o.o.- 7 0 7 e $ Q o.o.o.o.o.o.o.o.o.o.o.o.o.o.o.o.o.o.o.o.o.",
"o.o.o.o.o.o.o.o.o.o.o.o.O q 9 9 9 9 9 6 i o.o.o.o.o.o.o.o.o.o.o.o.o.o.o.o.; 7 0 7 e $ Q o.o.o.o.o.o.o.o.o.o.o.o.o.o.o.o.o.o.o.o.",
"o.o.o.o.o.o.o.o.o.o.o.o.$ q 7 9 9 7 0 % ( o.o.o.o.o.o.o.o.o.o.o.o.o.o.o.o.o.4 6 0 7 e $ E o.o.o.o.o.o.o.o.o.o.o.o.o.o.o.o.o.o.o.",
"o.o.o.o.o.o.o.o.o.o.o.o.> 0 9 9 9 9 0 % o.o.o.o.o.o.o.o.o.o.o.o.o.o.o.o.o.o.o.3 6 0 7 e $ Q o.o.o.o.o.o.o.o.o.o.o.o.o.o.o.o.o.o.",
"o.o.o.o.o.o.H f o.o.o.a 6 9 9 9 9 9 5 j o.o.o.o.o.o.o.o.o.o.o.o.o.o.o.o.o.o.o.o., 5 0 7 e # ! o.o.o.o.o.o.o.o.o.0 1 @ o.o.o.o.o.",
"o.o.o.o.o.o.- 6 O o.o.e 6 9 9 9 7 q % ] o.o.o.o.o.o.o.o.o.o.o.o.o.o.o.o.o.o.o.o.o.t 3 0 7 0 1 7 6 ; + O % ; 3 6 7 9 q e 7 - ` o.",
"o.o.o.o.o.o.o.5 r ; r 0 7 9 9 9 9 0 ; o.o.o.o.o.o.o.o.o.o.o.o.o.o.o.o.o.o.o.o.o.o.o.r 3 0 7 0 7 9 0 q e 0 0 9 9 9 9 7 0 q > o.o.",
"o.o.o.o.o.o.o.= 9 q 7 7 9 7 9 9 9 4 b o.o.o.o.o.o.o.o.o.o.o.o.o.o.o.o.o.o.o.o.o.o.o.o.o.6 9 9 9 9 9 9 7 9 9 9 9 7 9 q 1 - o.o.o.",
"o.o.o.o.o.o.o.o.: 9 0 7 7 9 9 9 q # o.o.o.o.o.o.o.o.o.o.o.o.o.o.o.o.o.o.o.o.o.o.o.o.o.o.> 0 9 9 9 9 9 9 9 9 7 9 q 5 # o.o.o.o.o.",
"o.o.o.o.o.o.o.o.o.- 6 9 7 9 9 9 9 2 o.o.o.o.o.o.o.o.o.o.o.o.o.o.o.o.o.o.o.o.o.o.o.o.o.o.6 9 9 9 9 9 9 9 7 9 0 7 $ h o.o.o.o.o.o.",
"o.o.o.o.o.o.o.o.o.o.6 9 9 9 9 0 1 o.o.o.o.o.o.o.o.o.o.o.o.o.o.o.o.o.o.o.o.o.o.o.o.o.o.o.- 0 9 9 9 9 9 7 9 0 * 9 o.o.o.o.o.o.o.o.",
"o.o.o.o.o.o.o.o.o.o./ - 0 9 9 q + o.o.o.o.o.o.o.o.o.o.o.o.o.o.o.o.o.o.o.o.o.o.o.o.o.o.o.O e 9 9 9 9 7 9 6 ; ^ o.o.o.o.o.o.o.o.o.",
"o.o.o.o.o.o.o.o.o.o.I > 0 9 9 9 6 o.o.o.o.o.o.o.o.o.o.o.o.o.o.o.o.o.o.o.o.o.o.o.o.o.o.o.+ q 7 9 9 7 9 7 a  .o.o.o.o.o.o.o.o.o.o.",
"o.o.o.o.o.o.o.o.o.o.z 4 9 7 0 > o.o.o.o.o.o.o.o.o.o.o.o.o.o.o.o.o.o.o.o.o.o.o.o.o.o.o.o.- 0 9 9 7 9 9 6 O o.o.o.o.o.o.o.o.o.o.o.",
"o.o.o.o.o.o.o.o.o.o.0 7 9 9 q $ o.o.o.o.o.o.o.o.o.o.o.o.o.o.o.o.o.o.o.o.o.o.o.o.o.o.o.o.< 0 9 9 9 9 1 | o.o.o.o.o.o.o.o.o.o.o.o.",
"o.o.o.o.o.o.o.o.o.o.1 9 9 9 7 8 o.o.o.o.o.o.o.o.o.o.o.o.o.o.o.o.o.o.o.o.o.o.o.o.o.o.o.g 5 9 9 7 0 - W o.o.o.o.o.o.o.o.o.o.o.o.o.",
"o.o.o.o.o.o.o.o.o.o.O e 9 0 ; o.o.o.o.o.o.o.o.o.o.o.o.o.o.o.o.o.o.o.o.o.o.o.o.o.o.o.o.0 7 9 9 9 9 5 o.o.o.o.o.o.o.o.o.o.o.o.o.o.",
"o.o.o.o.o.o.o.o.o.o.$ q 9 q % o.o.o.o.o.o.o.o.o.o.o.o.o.o.o.o.o.o.o.o.o.o.o.o.o.o.o.o.3 9 9 7 q $ o.o.o.o.o.o.o.o.o.o.o.o.o.o.o.",
"o.o.o.o.o.o.o.o.o.o.> 0 9 6 o.o.o.o.o.o.o.o.o.o.o.o.o.o.o.o.o.o.o.o.o.o.o.o.o.o.o.o.o.$ q 9 9 6 y o.o.o.o.o.o.o.o.o.o.o.o.o.o.o.",
"o.o.o.o.o.o.o.o.o.o.5 9 0 % o.o.o.o.o.o.o.o.o.o.o.o.o.o.o.o.o.o.o.o.o.o.o.o.o.o.o.o.o.O q 7 q # o.o.o.o.o.o.o.o.o.o.o.o.o.o.o.o.",
"o.o.o.o.o.o.o.o.o.o.6 9 0 % o.o.o.o.o.o.o.o.o.o.o.o.o.o.o.o.o.o.o.o.o.o.o.o.o.o.o.o.o.o.q 0 3 o.o.o.o.o.o.o.o.o.o.o.o.o.o.o.o.o.",
"o.o.o.o.o.o.o.o.o.o.* r 5 o.o.o.o.o.o.o.o.o.o.o.o.o.o.o.o.o.o.o.o.o.o.o.o.o.o.o.o.o.o.o.9 q $ o.o.o.o.o.o.o.o.o.o.o.o.o.o.o.o.o.",
"o.o.o.o.o.o.o.o.o.o.1 7 - o.o.o.o.o.o.o.o.o.o.o.o.o.o.o.o.o.o.o.o.o.o.o.o.o.o.o.o.o.o.o.% 1 o.o.o.o.o.o.o.o.o.o.o.o.o.o.o.o.o.o.",
"o.o.o.o.o.o.o.o.o.o.o.t O o.o.o.o.o.o.o.o.o.o.o.o.o.o.o.o.o.o.o.o.o.o.o.o.o.o.o.o.o.o.o.P o.o.o.o.o.o.o.o.o.o.o.o.o.o.o.o.o.o.o.",
"o.o.o.o.o.o.o.o.o.o.o.o.J o.o.o.o.o.o.o.o.o.o.o.o.o.o.o.o.o.o.o.o.o.o.o.o.o.o.o.o.o.o.o.o.o.o.o.o.o.o.o.o.o.o.o.o.o.o.o.o.o.o.o."
};
