/* XPM */
static char *result[] = {
/* columns rows colors chars-per-pixel */
"64 64 12 1 ",
"  c #00031A",
". c #000C39",
"X c #001B61",
"o c #002C8E",
"O c #0040C4",
"+ c #0056FF",
"@ c #3A80FF",
"# c #599BFF",
"$ c #80C7FF",
"% c #AEE8FF",
"& c #E1FCFF",
"* c None",
/* pixels */
"****************************************************************",
"****************************************************************",
"****************************************************************",
"****************************************************************",
"****************************************************************",
"****************************************************************",
"****************************************************************",
"****************************************************************",
"****************************************************************",
"****************************************************************",
"****************************************************************",
"****************************************************************",
"****************************************************************",
"****************************************************************",
"****************************************************************",
"****************************************************************",
"****************************************************************",
"****************************************************************",
"****************************************************************",
"****************************************************************",
"****************************************************************",
"****************************************************************",
"****************************************************************",
"****************************************************************",
"****************************************************************",
"****************************************************************",
"****************************************************************",
"****************************************************************",
"****************************************************************",
"****************************************************************",
"****************************************************************",
"****************************************************************",
"****************************************************************",
"****************************************************************",
"****************************************************************",
"****************************************************************",
"****************************************************************",
"****************************************************************",
"****************************************************************",
"****************************************************************",
"****************************************************************",
"****************************************************************",
"*************************@@@@@@@@@@*****************************",
"*************************@@@@@@@@@@*****************************",
"*********************++++##$$$$$$##++++*************************",
"*********************++++##$$$$$$##++++*************************",
"*****************OOOO##$$$$&&&&&&$$$$##OOOO*********************",
"*****************OOOO##$$$$&&&&&&$$$$##OOOO*********************",
"***************oo##$$$$%%&&&&&&&&&&%%$$$$##oo*******************",
"***************oo##$$$$%%&&&&&&&&&&%%$$$$##oo*******************",
"***************oo$$$$%%%%%%&&&&&&%%%%%%$$$$oo*******************",
"***************oo$$$$%%%%%%&&&&&&%%%%%%$$$$oo*******************",
"***************XX$$%%%%  %%%%%%%%%%  %%%%$$XX*******************",
"***************XX$$%%%%  %%%%%%%%%%  %%%%$$XX*******************",
"***************XX$$$$%%%%%%%%%%%%%%%%%%$$$$XX*******************",
"***************XX$$$$%%%%%%%%%%%%%%%%%%$$$$XX*******************",
"***************XX##$$$$$$$$$$$$$$$$$$$$$$##XX*******************",
"***************XX##$$$$$$$$$$$$$$$$$$$$$$##XX*******************",
"*****************XXXX..................XXXX*********************",
"*****************XXXX..................XXXX*********************",
"****************************************************************",
"****************************************************************",
"****************************************************************",
"****************************************************************"
};
