/* XPM */
static char *result[] = {
/* columns rows colors chars-per-pixel */
"64 64 165 2 ",
"   c #050303",
".  c #0E0602",
"X  c #0F0904",
"o  c #0C0C0C",
"O  c #110A04",
"+  c #1E0D03",
"@  c #1A0F0E",
"#  c #141414",
"$  c #181415",
"%  c #1C1817",
"&  c #171518",
"*  c #1F161D",
"=  c #171D1E",
"-  c #191919",
";  c #200C0A",
":  c #2A0E08",
">  c #221207",
",  c #2B1405",
"<  c #2C100A",
"1  c #2E1C0E",
"2  c #331606",
"3  c #391305",
"4  c #361807",
"5  c #3D1B05",
"6  c #36140B",
"7  c #38120B",
"8  c #3A1C08",
"9  c #201610",
"0  c #231A13",
"q  c #2A1912",
"w  c #201719",
"e  c #241E1D",
"r  c #301810",
"t  c #27221D",
"y  c #191F20",
"u  c #1E2626",
"i  c #242423",
"p  c #2B2521",
"a  c #212925",
"s  c #282A27",
"d  c #272B2B",
"f  c #2C2C2C",
"g  c #392820",
"h  c #322E2A",
"j  c #302F30",
"k  c #253230",
"l  c #2C3131",
"z  c #343434",
"x  c #373837",
"c  c #353638",
"v  c #363C3C",
"b  c #3C3C3C",
"n  c #401909",
"m  c #541B0F",
"M  c #451810",
"N  c #4C1811",
"B  c #4F2406",
"V  c #532006",
"C  c #5E2906",
"Z  c #52240C",
"A  c #5B2209",
"S  c #542909",
"D  c #5D2B0C",
"F  c #502013",
"G  c #582C12",
"H  c #473119",
"J  c #5D3313",
"K  c #54331B",
"L  c #5B3318",
"P  c #652F04",
"I  c #632D0B",
"U  c #663003",
"Y  c #6A3106",
"T  c #6A330A",
"R  c #6A380C",
"E  c #74360B",
"W  c #76390E",
"Q  c #7B3A0E",
"!  c #633612",
"~  c #6E3913",
"^  c #613C1C",
"/  c #743613",
"(  c #763D16",
")  c #7C3C11",
"_  c #7B3C1A",
"`  c #412C24",
"'  c #533723",
"]  c #6B411C",
"[  c #72451F",
"{  c #7D471E",
"}  c #5F4225",
"|  c #43413D",
" . c #49413A",
".. c #654020",
"X. c #684826",
"o. c #744621",
"O. c #734C27",
"+. c #784821",
"@. c #774F2A",
"#. c #794F2A",
"$. c #7D512B",
"%. c #624B34",
"&. c #7F5932",
"*. c #413F40",
"=. c #434444",
"-. c #494644",
";. c #494847",
":. c #474748",
">. c #484648",
",. c #474949",
"<. c #4D4C4C",
"1. c #574F44",
"2. c #504E4F",
"3. c #51514F",
"4. c #4B4F51",
"5. c #514F50",
"6. c #4E5153",
"7. c #545454",
"8. c #585557",
"9. c #565759",
"0. c #595758",
"q. c #575A5C",
"w. c #5C5C5C",
"e. c #5D6262",
"r. c #636464",
"t. c #686767",
"y. c #666768",
"u. c #6C6C6C",
"i. c #6F706F",
"p. c #6B6E71",
"a. c #6E7172",
"s. c #717171",
"d. c #787B7C",
"f. c #813D0B",
"g. c #833F12",
"h. c #86410E",
"j. c #8A420D",
"k. c #844214",
"l. c #8A4311",
"z. c #8C4816",
"x. c #874619",
"c. c #8D4A19",
"v. c #914915",
"b. c #914C1A",
"n. c #8A4F22",
"m. c #8B5327",
"M. c #84572E",
"N. c #96572C",
"B. c #955A2B",
"V. c #995D2D",
"C. c #855B34",
"Z. c #8C5D35",
"A. c #915E30",
"S. c #995F31",
"D. c #9C6737",
"F. c #9E6837",
"G. c #9C6738",
"H. c #9D6838",
"J. c #A16A3A",
"K. c #8B8B8B",
"L. c #979797",
"P. c gray60",
"I. c gray80",
"U. c #E3E3E3",
"Y. c None",
/* pixels */
"Y.Y.Y.Y.Y.Y.Y.Y.Y.Y.Y.Y.Y.Y.Y.Y.Y.Y.Y.Y.Y.Y.Y.Y.Y.Y.U.L.* o o o o o X = P.U.U.Y.Y.Y.Y.Y.Y.Y.Y.Y.Y.Y.Y.Y.Y.Y.Y.Y.Y.Y.Y.Y.Y.Y.Y.Y.",
"Y.Y.Y.Y.Y.Y.Y.Y.Y.Y.Y.Y.Y.Y.Y.Y.Y.Y.Y.Y.Y.Y.Y.Y.Y.0.r.r.;.- *.7.6.*.% ;.r.r.9.i.Y.Y.Y.Y.Y.Y.Y.Y.Y.Y.Y.Y.Y.Y.Y.Y.Y.Y.Y.Y.Y.Y.Y.Y.",
"Y.Y.Y.Y.Y.Y.Y.Y.Y.Y.Y.Y.Y.Y.Y.Y.Y.Y.Y.Y.Y.Y.Y.u.i b <.w.r.;.:.r.e.;.;.e.w.<.b i u.K.Y.Y.Y.Y.Y.Y.Y.Y.Y.Y.Y.Y.Y.Y.Y.Y.Y.Y.Y.Y.Y.Y.",
"Y.Y.Y.Y.Y.Y.Y.Y.Y.Y.Y.Y.Y.Y.Y.Y.Y.Y.Y.Y.Y.Y.<.*.b <.r.u.u.r.;.<.<.<.t.u.u.r.<.b | <.s.Y.Y.Y.Y.Y.Y.Y.Y.Y.Y.Y.Y.Y.Y.Y.Y.Y.Y.Y.Y.Y.",
"Y.Y.Y.Y.Y.Y.Y.Y.Y.Y.Y.Y.Y.Y.Y.Y.Y.Y.Y.Y.w.0.u.t.w.=.<.q.9.q.7.c z 6.q.w.w.<.=.w.r.t.0.w.I.Y.Y.Y.Y.Y.Y.Y.Y.Y.Y.Y.Y.Y.Y.Y.Y.Y.Y.Y.",
"Y.Y.Y.Y.Y.Y.Y.Y.Y.Y.Y.Y.Y.Y.Y.Y.Y.Y.Y.9.<.r.u.u.r.w.b e u a i $ # u u a e b w.u.u.u.r.<.w.I.Y.Y.Y.Y.Y.Y.Y.Y.Y.Y.Y.Y.Y.Y.Y.Y.Y.Y.",
"Y.Y.Y.Y.Y.Y.Y.Y.Y.Y.Y.Y.Y.Y.Y.Y.Y.Y.9.- 7.u.t.y.r.;.w H O.R U U o.O.R U 3 * =.r.r.u.0.,.<.r.Y.Y.Y.Y.Y.Y.Y.Y.Y.Y.Y.Y.Y.Y.Y.Y.Y.Y.",
"Y.Y.Y.Y.Y.Y.Y.Y.Y.Y.Y.Y.Y.Y.Y.Y.Y.Y.3.,.<.w.w.,.-.K A M.H.b.z.j.V.H.c.l./ ! %.;.:.:.:.7.r.0.d.Y.Y.Y.Y.Y.Y.Y.Y.Y.Y.Y.Y.Y.Y.Y.Y.Y.",
"Y.Y.Y.Y.Y.Y.Y.Y.Y.Y.Y.Y.Y.Y.Y.Y.Y.<.u.t.;.,.1.K Z Q h.N.F.b.j.j.B.F.c.l.j.V.Z.N n 9 =.y.u.u.<.K.Y.Y.Y.Y.Y.Y.Y.Y.Y.Y.Y.Y.Y.Y.Y.Y.",
"Y.Y.Y.Y.Y.Y.Y.Y.Y.Y.Y.Y.Y.Y.Y.Y.s.<.t.u.w.| X.A.x.h.j.B.G.v.j.j.B.F.z.l.j.V.G.k.) S  .r.u.t.=.u.Y.Y.Y.Y.Y.Y.Y.Y.Y.Y.Y.Y.Y.Y.Y.Y.",
"Y.Y.Y.Y.Y.Y.Y.Y.Y.Y.Y.Y.Y.Y.Y.Y.7.r.u.r.=.G m.H.c.l.j.N.F.c.l.g.B.G.x.l.j.B.G.z.l.g.L b r.r.b i Y.Y.Y.Y.Y.Y.Y.Y.Y.Y.Y.Y.Y.Y.Y.Y.",
"Y.Y.Y.Y.Y.Y.Y.Y.Y.Y.Y.Y.Y.Y.Y.0.<.u.u.e.k A B.H.c.l.j.N.G.c.l.j.B.G.z.l.j.B.G.l.l.z.D k q.;.;.b 0.Y.Y.Y.Y.Y.Y.Y.Y.Y.Y.Y.Y.Y.Y.Y.",
"Y.Y.Y.Y.Y.Y.Y.Y.Y.Y.Y.Y.Y.Y.Y.w.z w.r.<.' E B.G.c.l.j.B.G.c.g.j.B.D.c.j.j.B.G.z.l.l.{ %.:.:.e.2.e.Y.Y.Y.Y.Y.Y.Y.Y.Y.Y.Y.Y.Y.Y.Y.",
"Y.Y.Y.Y.Y.Y.Y.Y.Y.Y.Y.Y.Y.Y.Y.r.z ;.=.0 Y j.N.G.c.l.j.B.F.c.j.j.B.D.x.l.j.B.G.z.l.j.V.&.t 9.u.0.w.Y.Y.Y.Y.Y.Y.Y.Y.Y.Y.Y.Y.Y.Y.Y.",
"Y.Y.Y.Y.Y.Y.Y.Y.Y.Y.Y.Y.Y.Y.Y.7.u.<.# , W j.B.G.c.j.j.B.F.c.l.j.B.D.z.j.j.V.G.z.j.j.S.C.g 7.u.u.7.Y.Y.Y.Y.Y.Y.Y.Y.Y.Y.Y.Y.Y.Y.Y.",
"Y.Y.Y.Y.Y.Y.Y.Y.Y.Y.Y.Y.Y.Y.Y.;.s.<.< T l.j.B.H.c.j.j.B.F.v.g.j.B.D.c.l.j.B.G.z.l.j.B.G.~ g 0.u.<.Y.Y.Y.Y.Y.Y.Y.Y.Y.Y.Y.Y.Y.Y.Y.",
"Y.Y.Y.Y.Y.Y.Y.Y.Y.Y.Y.Y.Y.Y.Y.<.u.<.6 Q z.j.B.D.c.l.j.B.D.c.j.j.B.G.c.l.j.B.G.z.l.j.V.H.) 7 <.p.<.Y.Y.Y.Y.Y.Y.Y.Y.Y.Y.Y.Y.Y.Y.Y.",
"Y.Y.Y.Y.Y.Y.Y.Y.Y.Y.Y.Y.Y.Y.Y.<.s.5.6 Q z.j.B.D.c.l.j.B.D.c.l.j.B.G.z.l.j.B.G.z.l.j.B.F.) 7 5.s.<.Y.Y.Y.Y.Y.Y.Y.Y.Y.Y.Y.Y.Y.Y.Y.",
"Y.Y.Y.Y.Y.Y.Y.Y.Y.Y.Y.Y.Y.Y.Y.b 0.b 6 Q j.j.B.D.b.j.j.B.D.c.j.j.B.G.c.h.j.B.G.z.j.j.V.G.) 6 b 8.b Y.Y.Y.Y.Y.Y.Y.Y.Y.Y.Y.Y.Y.Y.Y.",
"Y.Y.Y.Y.Y.Y.Y.Y.Y.Y.Y.Y.Y.Y.Y.# i # 2 ) z.j.B.D.c.j.j.B.D.c.l.j.B.G.c.j.j.B.G.z.l.j.V.D.g.2 & s # Y.Y.Y.Y.Y.Y.Y.Y.Y.Y.Y.Y.Y.Y.Y.",
"Y.Y.Y.Y.Y.Y.Y.Y.Y.Y.Y.Y.Y.Y.Y.b w.b 6 Q j.j.B.D.c.l.j.B.F.c.j.j.B.G.z.j.j.B.F.z.l.j.B.G.) 6 ` q.*.Y.Y.Y.Y.Y.Y.Y.Y.Y.Y.Y.Y.Y.Y.Y.",
"Y.Y.Y.Y.Y.Y.Y.Y.Y.Y.Y.Y.Y.Y.Y.<.s.2.6 Q z.j.B.D.c.j.j.B.F.v.l.j.B.G.z.l.j.B.G.z.j.l.V.H.) 7 q.a.3.- Y.Y.Y.Y.Y.Y.Y.Y.Y.Y.Y.Y.Y.Y.",
"Y.Y.Y.Y.Y.Y.Y.Y.Y.Y.Y.Y.Y.Y.Y.<.u.<.6 Q v.f.B.D.c.l.j.N.F.c.j.j.B.D.x.l.j.B.D.z.j.z.D.H.) 7 2.u.<.- Y.Y.Y.Y.Y.Y.Y.Y.Y.Y.Y.Y.Y.Y.",
"Y.Y.Y.Y.Y.Y.Y.Y.Y.Y.Y.Y.Y.Y.- <.s.2.3 Q v.j.B.D.c.j.j.N.G.c.j.j.B.D.c.j.j.B.D.z.Q Y [ $.I : 7.u.<.- Y.Y.Y.Y.Y.Y.Y.Y.Y.Y.Y.Y.Y.Y.",
"Y.Y.Y.Y.Y.Y.Y.Y.Y.Y.Y.Y.Y.Y.- =.r.=.6 Q v.j.B.D.c.j.j.B.D.c.l.j.B.D.c.l.j.V.J.h.8 p p t t # =.r.=.# Y.Y.Y.Y.Y.Y.Y.Y.Y.Y.Y.Y.Y.Y.",
"Y.Y.Y.Y.Y.Y.Y.Y.Y.Y.Y.Y.Y.Y.# - f y 2 ) j.j.B.F.c.j.j.B.D.c.l.g.B.D.z.l.g.N.H.( q a.i.6.d.b - f * # Y.Y.Y.Y.Y.Y.Y.Y.Y.Y.Y.Y.Y.Y.",
"Y.Y.Y.Y.Y.Y.Y.Y.Y.Y.Y.Y.Y.Y.# z 7.c 6 Q j.j.B.F.c.j.j.B.F.c.g.j.B.D.c.j.h.B.J.) q 9.7.*.w.h z 7.x # Y.Y.Y.Y.Y.Y.Y.Y.Y.Y.Y.Y.Y.Y.",
"Y.Y.Y.Y.Y.Y.Y.Y.Y.Y.Y.Y.Y.Y.- <.p.<.6 Q v.f.B.D.c.j.j.B.D.c.j.j.B.D.c.g.j.V.G.k.I m J ' M $ 7.a.3.- Y.Y.Y.Y.Y.Y.Y.Y.Y.Y.Y.Y.Y.Y.",
"Y.Y.Y.Y.Y.Y.Y.Y.Y.Y.Y.Y.Y.Y.- <.u.<.6 Q l.g.B.D.b.j.j.B.D.z.l.j.B.G.c.l.j.B.G.z.j.g.B.G./ 6 <.u.<.- Y.Y.Y.Y.Y.Y.Y.Y.Y.Y.Y.Y.Y.Y.",
"Y.Y.Y.Y.Y.Y.Y.Y.Y.Y.Y.Y.Y.Y.- <.s.2.6 Q v.j.B.F.c.j.j.B.F.z.j.j.B.G.z.h.j.V.G.z.j.z.V.H.) 7 3.i.<.- Y.Y.Y.Y.Y.Y.Y.Y.Y.Y.Y.Y.Y.Y.",
"Y.Y.Y.Y.Y.Y.Y.Y.Y.Y.Y.Y.Y.Y.- ;.u.<.6 Q z.f.N.D.n.l.j.B.F.c.j.j.B.G.c.l.h.B.G.z.l.h.V.H.) 6 <.u.;.- Y.Y.Y.Y.Y.Y.Y.Y.Y.Y.Y.Y.Y.Y.",
"Y.Y.Y.Y.Y.Y.Y.Y.Y.Y.Y.Y.Y.Y.# d *.f 2 ) l.j.N.J.c.j.j.B.F.c.l.j.B.G.z.j.j.B.G.z.j.j.V.F.) 6 f =.f # Y.Y.Y.Y.Y.Y.Y.Y.Y.Y.Y.Y.Y.Y.",
"Y.Y.Y.Y.Y.Y.Y.Y.Y.Y.Y.Y.Y.Y.# f =.f 2 Q z.j.V.J.b.l.j.B.F.v.j.j.B.G.c.h.j.V.G.z.l.j.A.F.{ 2 j =.f # Y.Y.Y.Y.Y.Y.Y.Y.Y.Y.Y.Y.Y.Y.",
"Y.Y.Y.Y.Y.Y.Y.Y.Y.Y.Y.Y.Y.Y.# ;.u.<.6 Q j.Q +.M.) E f.B.F.v.j.j.B.D.c.j.j.B.G.z.l.j.V.F.Q 3 <.u.<.- Y.Y.Y.Y.Y.Y.Y.Y.Y.Y.Y.Y.Y.Y.",
"Y.Y.Y.Y.Y.Y.Y.Y.Y.Y.Y.Y.Y.Y.- <.p.2.6 Q v.U , > + > U V.F.c.l.g.B.D.z.l.h.B.G.z.l.j.V.H.Q 7 2.u.<.- Y.Y.Y.Y.Y.Y.Y.Y.Y.Y.Y.Y.Y.Y.",
"Y.Y.Y.Y.Y.Y.Y.Y.Y.Y.Y.Y.Y.Y.- <.u.<.6 Q z.) S O O D Q N.G.c.l.j.B.D.z.l.j.B.G.z.j.j.V.F.Q 6 <.u.<.- Y.Y.Y.Y.Y.Y.Y.Y.Y.Y.Y.Y.Y.Y.",
"Y.Y.Y.Y.Y.Y.Y.Y.Y.Y.Y.Y.Y.Y.- <.s.5.6 Q z.E ] O.! I E B.G.c.l.j.B.G.x.l.j.V.G.z.l.j.A.F.) 7 7.u.<.- Y.Y.Y.Y.Y.Y.Y.Y.Y.Y.Y.Y.Y.Y.",
"Y.Y.Y.Y.Y.Y.Y.Y.Y.Y.Y.Y.Y.Y.# x 5.z 6 ) l.V } J.c.5 C B.F.c.g.j.B.G.z.l.j.B.G.z.l.j.B.F.) 6 x 2.z # Y.Y.Y.Y.Y.Y.Y.Y.Y.Y.Y.Y.Y.Y.",
"Y.Y.Y.Y.Y.Y.Y.Y.Y.Y.Y.Y.Y.Y.# - f = , Q l.I ] $.~ V U B.F.c.j.j.B.G.z.l.j.B.G.l.l.j.V.F.) 2 = h * # Y.Y.Y.Y.Y.Y.Y.Y.Y.Y.Y.Y.Y.Y.",
"Y.Y.Y.Y.Y.Y.Y.Y.Y.Y.Y.Y.Y.Y.# :.r.=.6 Q l.l.! 1 4 E f.B.F.v.j.j.B.G.c.l.j.B.G.z.j.j.V.F.Q 7 :.r.=.- Y.Y.Y.Y.Y.Y.Y.Y.Y.Y.Y.Y.Y.Y.",
"Y.Y.Y.Y.Y.Y.Y.Y.Y.Y.Y.Y.Y.Y.# <.s.2.6 Q z.j.n.M.( h.j.B.G.z.l.g.B.G.z.j.j.B.G.z.j.j.V.G.) 7 5.u.<.- Y.Y.Y.Y.Y.Y.Y.Y.Y.Y.Y.Y.Y.Y.",
"Y.Y.Y.Y.Y.Y.Y.Y.Y.Y.Y.Y.Y.Y.- <.u.<.6 Q z.f.N.J.b.l.j.B.D.c.l.j.B.G.c.h.j.B.G.z.l.j.V.F.) 7 2.u.<.- Y.Y.Y.Y.Y.Y.Y.Y.Y.Y.Y.Y.Y.Y.",
"Y.Y.Y.Y.Y.Y.Y.Y.Y.Y.Y.Y.Y.Y.- 2.s.5.6 Q z.j.B.D.c.j.j.B.D.c.l.j.B.G.c.j.j.B.G.z.l.j.B.G.) 7 5.s.3.- Y.Y.Y.Y.Y.Y.Y.Y.Y.Y.Y.Y.Y.Y.",
"Y.Y.Y.Y.Y.Y.Y.Y.Y.Y.Y.Y.Y.Y.# b w.b 6 Q j.f.N.D.c.j.j.B.D.c.j.j.B.G.c.l.h.B.D.z.l.j.V.H.) 7 *.0.b # Y.Y.Y.Y.Y.Y.Y.Y.Y.Y.Y.Y.Y.Y.",
"Y.Y.Y.Y.Y.Y.Y.Y.Y.Y.Y.Y.Y.Y.o # i & 2 f.z.j.N.J.c.l.j.B.F.v.l.j.B.G.x.l.j.B.G.z.j.j.B.G.{ 2 - i # # Y.Y.Y.Y.Y.Y.Y.Y.Y.Y.Y.Y.Y.Y.",
"Y.Y.Y.Y.Y.Y.Y.Y.Y.Y.Y.Y.Y.Y.- b 0.b 6 Q v.f.B.D.c.l.j.B.F.v.g.j.B.G.z.l.j.B.G.z.z.j.V.F.Q 3 b 0.b # Y.Y.Y.Y.Y.Y.Y.Y.Y.Y.Y.Y.Y.Y.",
"Y.Y.Y.Y.Y.Y.Y.Y.Y.Y.Y.Y.Y.Y.# <.p.2.6 Q v.f.B.D.c.l.j.B.F.c.j.j.B.G.z.l.j.B.G.z.j.j.A.F.Q 6 3.s.<.- Y.Y.Y.Y.Y.Y.Y.Y.Y.Y.Y.Y.Y.Y.",
"Y.Y.Y.Y.Y.Y.Y.Y.Y.Y.Y.Y.Y.Y.- <.u.<.6 Q j.j.B.D.c.j.j.N.G.c.j.j.B.G.z.j.j.V.G.z.j.j.V.G.Q 6 <.u.<.- Y.Y.Y.Y.Y.Y.Y.Y.Y.Y.Y.Y.Y.Y.",
"Y.Y.Y.Y.Y.Y.Y.Y.Y.Y.Y.Y.Y.Y.- <.a.5.6 Q z.g.B.D.v.j.j.B.F.c.l.j.B.G.c.l.j.B.G.z.h.j.V.D.) 7 5.s.<.- Y.Y.Y.Y.Y.Y.Y.Y.Y.Y.Y.Y.Y.Y.",
"Y.Y.Y.Y.Y.Y.Y.Y.Y.Y.Y.Y.Y.Y.# ,.r.>.6 Q v.f.B.D.c.j.j.B.F.c.l.g.B.G.z.l.j.B.G.z.l.h.V.J.) 7 ;.r.;.- Y.Y.Y.Y.Y.Y.Y.Y.Y.Y.Y.Y.Y.Y.",
"Y.Y.Y.Y.Y.Y.Y.Y.Y.Y.Y.Y.Y.Y.# i x a 2 Q v.j.B.D.c.j.j.B.D.v.j.j.B.G.c.h.j.B.G.z.l.k.B.F._ 6 a x i # Y.Y.Y.Y.Y.Y.Y.Y.Y.Y.Y.Y.Y.Y.",
"Y.Y.Y.Y.Y.Y.Y.Y.Y.Y.Y.Y.Y.Y.# z <.z 4 ) l.j.B.D.b.j.j.B.D.c.j.g.B.G.c.j.h.V.H.x.I m ! ^ N @ z <.z # Y.Y.Y.Y.Y.Y.Y.Y.Y.Y.Y.Y.Y.Y.",
"Y.Y.Y.Y.Y.Y.Y.Y.Y.Y.Y.Y.Y.Y.- <.u.5.7 Q j.j.B.D.c.j.j.B.D.z.l.j.B.D.z.j.j.B.H.) r 8.5.v 0.f <.p.<.# Y.Y.Y.Y.Y.Y.Y.Y.Y.Y.Y.Y.Y.Y.",
"Y.Y.Y.Y.Y.Y.Y.Y.Y.Y.Y.Y.Y.Y.- ;.u.2.7 Q v.f.B.D.c.l.j.B.F.z.l.j.B.G.x.l.j.B.J.( 0 a.p.6.d.=.<.u.<.- Y.Y.Y.Y.Y.Y.Y.Y.Y.Y.Y.Y.Y.Y.",
"Y.Y.Y.Y.Y.Y.Y.Y.Y.Y.Y.Y.Y.Y.- <.u.2.6 Q z.j.B.D.c.l.j.B.F.c.j.j.B.D.z.l.j.B.H.) 5 s h i h % <.u.<.- Y.Y.Y.Y.Y.Y.Y.Y.Y.Y.Y.Y.Y.Y.",
"Y.Y.Y.Y.Y.Y.Y.Y.Y.Y.Y.Y.Y.Y.# <.u.<.7 Q j.j.B.G.c.l.j.B.F.c.l.j.B.D.z.l.j.V.D.z.E T o.#.C < <.u.<.- Y.Y.Y.Y.Y.Y.Y.Y.Y.Y.Y.Y.Y.Y.",
"Y.Y.Y.Y.Y.Y.Y.Y.Y.Y.Y.Y.Y.Y.# z ;.z 6 Q z.f.B.G.c.j.j.B.J.v.l.j.B.D.c.j.j.B.F.c.l.z.V.J.g.2 z :.j # Y.Y.Y.Y.Y.Y.Y.Y.Y.Y.Y.Y.Y.Y.",
"Y.Y.Y.Y.Y.Y.Y.Y.Y.Y.Y.Y.Y.Y.# s b s 2 ) z.j.B.G.c.j.j.N.F.v.g.j.B.D.x.l.j.B.G.z.l.j.B.D.) 2 d b s # Y.Y.Y.Y.Y.Y.Y.Y.Y.Y.Y.Y.Y.Y.",
"Y.Y.Y.Y.Y.Y.Y.Y.Y.Y.Y.Y.Y.Y.# :.u.;.6 Q v.j.B.D.c.j.j.B.F.c.l.j.B.D.c.l.j.B.D.z.l.j.B.F.Q 7 <.u.;.- Y.Y.Y.Y.Y.Y.Y.Y.Y.Y.Y.Y.Y.Y.",
"Y.Y.Y.Y.Y.Y.Y.Y.Y.Y.Y.Y.Y.Y.# <.u.4.6 Q j.j.B.D.c.l.j.N.G.c.j.j.B.D.z.j.j.B.D.z.l.j.B.J.) 7 2.u.<.& Y.Y.Y.Y.Y.Y.Y.Y.Y.Y.Y.Y.Y.Y.",
"Y.Y.Y.Y.Y.Y.Y.Y.Y.Y.Y.Y.Y.Y.- <.u.<.6 Q z.h.N.F.c.h.j.B.G.c.g.f.B.F.x.j.j.B.G.z.j.j.V.D.Q 7 <.u.<.- Y.Y.Y.Y.Y.Y.Y.Y.Y.Y.Y.Y.Y.Y.",
"Y.Y.Y.Y.Y.Y.Y.Y.Y.Y.Y.Y.Y.Y.- <.s.<.6 Q v.j.B.H.b.z.j.V.J.v.l.v.V.J.v.l.j.V.J.z.l.j.V.J.) 7 7.u.<.- Y.Y.Y.Y.Y.Y.Y.Y.Y.Y.Y.Y.Y.Y.",
"Y.Y.Y.Y.Y.Y.Y.Y.Y.Y.Y.Y.Y.Y.# b 0.b : C T U [ @.~ T U o.@.~ Y T o.@.~ Y T o.#.R T T o.#.D : b 7.b - Y.Y.Y.Y.Y.Y.Y.Y.Y.Y.Y.Y.Y.Y.",
"Y.Y.Y.Y.Y.Y.Y.Y.Y.Y.Y.Y.Y.Y.o   o     . . O O O . . . O X . X . X X . . . O O . . . X O .   o o   o Y.Y.Y.Y.Y.Y.Y.Y.Y.Y.Y.Y.Y.Y."
};
