/* XPM */
static char *result[] = {
/* columns rows colors chars-per-pixel */
"36 64 169 2 ",
"   c #000000",
".  c #0D0000",
"X  c #00030B",
"o  c #070808",
"O  c #0A0A0B",
"+  c #130300",
"@  c #1E0100",
"#  c #1E0E04",
"$  c #130E0D",
"%  c #1E0E08",
"&  c #18100E",
"*  c #000016",
"=  c #0B0D11",
"-  c #021215",
";  c #00141C",
":  c #151515",
">  c #1E1518",
",  c #161A1B",
"<  c #1B1919",
"1  c #250200",
"2  c #290100",
"3  c #270800",
"4  c #2A0D00",
"5  c #370000",
"6  c #3C0B00",
"7  c #2D1101",
"8  c #301302",
"9  c #221E1D",
"0  c #35231C",
"q  c #051D20",
"w  c #0A1E21",
"e  c #161F21",
"r  c #0D2024",
"t  c #00212F",
"y  c #0A232B",
"u  c #1E2729",
"i  c #0D2730",
"p  c #002C31",
"a  c #232324",
"s  c #262728",
"d  c #262D2F",
"f  c #2B2B2B",
"g  c #312D2C",
"h  c #2A2F30",
"j  c #273031",
"k  c #2E3637",
"l  c #343434",
"z  c #383636",
"x  c #373738",
"c  c #363C3C",
"v  c #3C3C3C",
"b  c #420000",
"n  c #4A0000",
"m  c #440F00",
"M  c #431500",
"N  c #5C1600",
"B  c #611F00",
"V  c #482600",
"C  c #472208",
"Z  c #552100",
"A  c #5E2400",
"S  c #5A2900",
"D  c #5F2D09",
"F  c #4E3617",
"G  c #5C3219",
"H  c #6A2D00",
"J  c #762F00",
"K  c #613000",
"L  c #61300D",
"P  c #6C340B",
"I  c #753402",
"U  c #793301",
"Y  c #7C3B03",
"T  c #76390E",
"R  c #7E3D0F",
"E  c #72360B",
"W  c #643312",
"Q  c #683914",
"!  c #743A13",
"~  c #7A3D12",
"^  c #5A392A",
"/  c #413E3E",
"(  c #644016",
")  c #67431E",
"_  c #6A411F",
"`  c #7F4012",
"'  c #5E4023",
"]  c #554328",
"[  c #6E4821",
"{  c #6B4C2E",
"}  c #7F4C24",
"|  c #6A513A",
" . c #373D42",
".. c #3E4344",
"X. c #3F464A",
"o. c #444444",
"O. c #494746",
"+. c #484847",
"@. c #464A4B",
"#. c #4C4C4C",
"$. c #504F4E",
"%. c #4D5152",
"&. c #545555",
"*. c #595756",
"=. c #545758",
"-. c #56595A",
";. c #5A5B5B",
":. c #605F5F",
">. c #61605F",
",. c #586264",
"<. c #656464",
"1. c #686767",
"2. c #696867",
"3. c #6C6B6B",
"4. c #616B6D",
"5. c #706F6F",
"6. c #71706F",
"7. c #6A6F70",
"8. c #6F7070",
"9. c #737272",
"0. c #747879",
"q. c #863E06",
"w. c #893F07",
"e. c #853F0D",
"r. c #893F08",
"t. c #8C4107",
"y. c #85400F",
"u. c #8A420E",
"i. c #91450E",
"p. c #854213",
"a. c #8B4514",
"s. c #8D4817",
"d. c #89451C",
"f. c #814A1F",
"g. c #8F491A",
"h. c #904714",
"j. c #914916",
"k. c #924A1B",
"l. c #804E26",
"z. c #8D4A25",
"x. c #8A5226",
"c. c #825129",
"v. c #835125",
"b. c #955A2D",
"n. c #9A5D2D",
"m. c #825631",
"M. c #815932",
"N. c #8A5E34",
"B. c #975E30",
"V. c #9B5F31",
"C. c #8C6036",
"Z. c #9C6334",
"A. c #91663A",
"S. c #966A3B",
"D. c #9E6D3E",
"F. c #986538",
"G. c #A06F3F",
"H. c #9F6F40",
"J. c #A16F40",
"K. c #A27141",
"L. c #AE7845",
"P. c #A87444",
"I. c #898786",
"U. c #8A8988",
"Y. c #9C9D9D",
"T. c #9FA0A1",
"R. c #AFAFAE",
"E. c #B2B2B2",
"W. c None",
/* pixels */
"W.W.W.W.W.W.W.W.W.W.W.W.W.W.  O         O   W.W.W.W.W.W.W.W.W.W.W.W.W.W.",
"W.W.W.W.W.W.W.W.W.W.o     v &.  *.>.;.*.  *.v     O W.W.W.W.W.W.W.W.W.W.",
"W.W.W.W.W.W.W.W.      #.#.*.1.#.o.<.>.O.#.2.*.#.#.      W.W.W.W.W.W.W.W.",
"W.W.W.W.W.W.W.f v l l *.3.5.3.3.v $.$.c 7.3.7.3.&.l l v f W.W.W.W.W.W.W.",
"W.W.W.W.W.W.  &.8.3.3.f +.1.<.<.3.x c 3.<.<.2.+.a 3.3.8.&.  W.W.W.W.W.W.",
"W.W.W.W.W.o &.1.2.1.1.3.#.= q ; r X X ; ; r = #.3.1.2.<.3.;.  W.W.W.W.W.",
"W.W.W.W.    <.9.2.7.3.@.* F N.U I I } N.Y Y 6 * @.3.3.9.=.v -.  W.W.W.W.",
"W.W.W.l #.#.o.;.<.X.@.G N m.P.j.g.t.B.P.s.j.! Q { @.@.%.o.$.3.&.f W.W.W.",
"W.W.   .9.3.v @.*.V 6 p.i.b.H.a.a.t.b.D.a.a.t.V.H.5 M   +.9.2.9.v   W.W.",
"W.W.  / 3.<.5. .( P.g.a.t.b.G.a.a.y.b.H.u.s.t.B.H.s.k.Z o.1.1.2.v   W.W.",
"W.  o.2.2.2.c K b.K.a.a.t.b.K.a.a.t.b.H.a.a.t.C.H.u.a.a.W c 2.5.l   O W.",
"W.  -.9.2.5.p N V.H.a.a.w.b.G.a.a.t.b.H.a.a.t.b.H.u.a.k.N t 5.z &.#.  W.",
"W.  f ;.1.&.^ U B.K.a.a.w.b.H.a.a.t.b.H.y.a.t.b.G.a.a.u.l.| $. .<.&.  W.",
"W.l s / ;.  Y i.b.K.a.a.w.b.G.a.a.t.b.H.u.a.y.Z.G.u.s.q.Z.S.  2.5.&.a W.",
"  *.9.*.  % ~ t.b.D.a.a.t.b.K.a.a.t.B.G.a.a.w.b.H.u.a.t.V.A.> >.1.3.;.  ",
"  *.9.=.1 ~ a.w.b.K.a.a.w.b.G.a.a.t.B.D.a.a.w.Z.G.y.a.t.V.J.~ 0 *.3.;.  ",
"  *.7.&.3 a.j.w.b.G.a.a.y.b.G.a.a.t.b.G.a.a.t.B.G.u.s.r.B.G.e.2 &.5.*.  ",
"  ;.9.-.1 p.s.w.b.K.a.a.t.b.G.u.a.t.B.G.a.a.t.B.G.u.a.r.V.G.e.4 -.0.;.  ",
"  %.<.#.2 p.s.w.b.G.a.s.t.b.G.a.a.t.N.G.p.a.t.b.G.u.s.w.B.J.y.3 #.<.&.  ",
"  O $ X 7 p.s.w.b.K.a.a.t.N.G.a.a.t.b.G.a.a.t.b.G.u.a.w.B.J.e.7 X & O   ",
"  &.2.%.1 p.s.w.b.G.a.a.t.b.G.a.a.t.B.G.a.a.t.b.G.u.s.w.B.G.p.2 %.1.&.  ",
"  ;.9.-.1 a.s.w.b.G.a.a.t.b.G.a.a.t.b.G.a.a.t.B.G.p.s.w.B.G.e.2 -.9.;.  ",
"  &.3.&.1 a.s.w.b.G.a.a.t.b.G.a.a.t.b.G.a.a.t.N.G.u.j.a.Z.K.d.2 -.3.*.  ",
"  *.9.=.1 a.a.w.b.G.a.p.t.b.G.a.p.t.b.D.a.a.t.B.J.p.e.J x.A.J 1 -.9.;.  ",
"  *.8.=.1 a.a.t.b.D.a.a.t.b.D.a.a.t.b.G.a.a.t.b.G.y.8 - :   e   *.3.*.  ",
"  < a - 4 a.a.y.b.D.a.a.y.b.G.a.a.y.b.G.a.a.t.b.G.f.. Y.I.#.R.v   f <   ",
"  o.*...1 a.a.w.b.K.s.a.t.b.G.a.a.t.B.G.a.a.t.B.K.p.  4.=.i 0.a o.-.o.  ",
"  ;.0.;.1 a.s.w.b.K.a.a.t.b.G.a.a.t.B.G.y.a.t.B.G.y.Q b S [ b   ;.9.;.  ",
"  *.9.&.1 p.s.w.b.G.a.a.t.b.G.a.a.t.b.G.a.a.t.N.G.u.h.s.Z.K.d.2 -.3.*.  ",
"  *.3.&.2 p.s.w.b.K.a.a.t.b.G.a.a.y.b.G.a.a.t.b.J.u.a.w.V.J.e.2 =.8.;.  ",
"  ;.0.-.1 a.s.w.b.G.a.a.y.b.D.a.a.y.b.G.a.a.t.B.G.p.s.w.B.G.y.2 ;.9.:.  ",
"  k / f 4 p.s.w.b.D.a.s.t.b.G.a.a.t.b.G.a.a.t.b.G.u.s.w.B.J.e.7 j v l   ",
"  l / h 4 p.a.q.b.K.s.s.t.b.G.a.a.t.B.G.y.a.t.b.G.u.s.w.V.G.e.4 j o.l   ",
"  :.9.-.1 e.j.q.x.A.p.p.w.b.G.a.a.t.B.G.u.a.y.Z.G.p.a.w.V.J.p.2 -.9.;.  ",
"  *.7.&.1 p.j.L   # +   H b.G.a.a.t.b.G.a.a.t.b.G.u.a.r.B.J.e.2 =.5.;.  ",
"  -.9.&.1 a.a.s.P     ! t.b.G.a.p.t.B.D.a.a.t.B.G.a.s.r.B.G.e.2 =.3.*.  ",
"  ;.0.*.1 p.h.I ) M.P L Y b.G.a.a.t.b.D.u.a.t.B.G.u.s.w.B.J.y.2 ;.0.>.  ",
"  o.*.o.3 p.k.M ] L.g.4 A n.G.a.a.y.B.G.a.a.y.b.G.u.s.w.B.G.y.4 ..*.o.  ",
"  : u - 7 p.h.K ' S.` C H B.G.a.a.t.b.G.p.a.w.V.J.u.s.w.B.G.e.7 - 9 :   ",
"  *.5.&.1 p.a.a.T X + ` t.b.G.a.a.t.B.G.a.a.w.B.D.u.a.w.V.G.y.2 -.5.;.  ",
"  *.9.&.1 p.s.t.x.A.` a.t.b.H.a.a.t.b.K.a.a.t.b.G.u.a.w.B.J.p.2 =.9.*.  ",
"  *.9.=.1 p.s.w.b.P.s.a.t.b.D.a.p.t.b.K.a.a.q.Z.K.u.g.w.B.G.e.2 =.3.;.  ",
"  ;.9.-.1 a.s.r.b.D.a.a.t.b.D.a.a.t.b.G.a.a.t.b.D.u.s.w.B.G.y.2 *.9.;.  ",
"  &.1.%.1 p.a.r.b.K.s.a.t.b.H.a.a.y.b.K.u.a.t.C.G.u.s.w.B.J.p.2 %.1.=.  ",
"  o $ X 7 a.a.t.b.D.a.a.t.b.G.a.a.t.b.K.a.a.y.B.G.u.s.w.B.G.p.8 X & o   ",
"  #.<.@.1 a.a.t.b.K.a.a.t.b.G.a.a.t.B.G.u.a.t.B.G.p.s.w.B.G.y.2 #.<.&.  ",
"  ;.9.;.@ a.s.y.b.H.a.a.t.b.G.a.a.y.b.G.a.a.t.b.G.u.s.w.V.H.e.2 ;.9.,.  ",
"  *.3.&.1 p.a.t.b.H.a.a.w.b.D.a.a.t.B.D.y.a.t.B.D.u.s.w.B.J.e.2 %.8.*.  ",
"  *.9.=.1 p.s.w.b.H.a.a.t.b.G.a.a.y.b.K.a.a.q.B.H.y.a.t.B.G.e.2 -.6.;.  ",
"  ;.9.-.1 a.s.w.b.K.a.a.y.b.G.a.a.r.b.K.a.a.t.b.D.a.a.q.b.G.r.1 -.9.;.  ",
"  a f r 7 p.a.w.b.D.a.s.t.b.G.a.a.t.b.J.u.a.t.Z.J.u.a.k.G.P.z.8 w g a   ",
"  / $.v 3 a.s.w.b.D.a.a.t.b.G.a.a.t.b.H.a.a.w.b.G.u.Q n K [ b . v #.v   ",
"  ;.0.*.1 p.s.w.b.K.a.a.t.b.D.a.a.t.b.K.a.a.t.B.J.p.+ ,.%.y 3., ;.0.:.  ",
"  *.8.&.2 p.s.w.b.K.a.a.t.b.D.a.a.y.b.K.a.a.r.b.J.d.  T.I.%.E.v #.9.*.  ",
"  -.6.&.1 p.s.w.b.H.a.a.t.b.G.a.a.t.b.K.a.a.w.n.J.u.7 q < X s   -.3.*.  ",
"  :.0.*.1 a.s.w.b.K.a.a.t.b.G.a.a.t.b.H.u.a.w.C.G.u.~ U v.N.U @ ;.9.<.  ",
"  z O.k 3 a.a.q.b.H.a.s.t.b.H.a.d.t.b.H.a.a.w.b.G.u.h.u.Z.J.a.8 k #.v   ",
"  f z u 4 a.a.t.b.K.a.a.t.b.D.a.a.r.b.K.a.a.w.B.G.p.a.w.V.G.e.4 u l f   ",
"  ;.9.-.1 p.s.y.b.G.a.s.t.b.K.a.a.t.b.J.a.a.t.B.G.u.s.r.B.J.e.2 -.9.;.  ",
"  *.7.=.1 a.a.t.b.D.a.a.t.b.G.a.a.t.b.K.u.a.t.B.G.a.a.w.V.G.e.2 -.3.;.  ",
"  *.8.=.1 a.a.t.b.D.a.a.y.b.D.a.a.r.b.J.a.a.r.b.D.u.a.r.V.D.p.2 &.5.*.  ",
"  ;.0.-.1 a.k.t.n.P.s.j.t.b.P.a.s.t.V.K.a.h.t.Z.K.i.h.t.Z.K.u.2 ;.9.,.  ",
"  #.>.+.@ T ~ I } C.~ ! I v.C.T ~ I c.N.T ~ I c.C.T ~ I c.N.E 1 #.:.#.  ",
"                                                                        "
};
