/* XPM */
static char *result[] = {
/* columns rows colors chars-per-pixel */
"64 64 228 2 ",
"   c #020103",
".  c #0B0404",
"X  c #0A0908",
"o  c #0C0B0B",
"O  c #120A06",
"+  c #150809",
"@  c #130D0B",
"#  c #0F100A",
"$  c #12130C",
"%  c #1A120E",
"&  c #070C10",
"*  c #0D0D12",
"=  c #130E12",
"-  c #180F10",
";  c #0E1114",
":  c #0D181C",
">  c #141314",
",  c #1A1415",
"<  c #141915",
"1  c #1C1B16",
"2  c #15151A",
"3  c #1B161A",
"4  c #161A1C",
"5  c #1B1C1D",
"6  c #270D16",
"7  c #291313",
"8  c #231A16",
"9  c #241618",
"0  c #231D1B",
"q  c #291E1B",
"w  c #1C211E",
"e  c #24221D",
"r  c #2C231E",
"t  c #32241D",
"y  c #39271D",
"u  c #181720",
"i  c #151C21",
"p  c #1C1D22",
"a  c #221E22",
"s  c #2A1C23",
"d  c #391C27",
"f  c #1D2223",
"g  c #1C2428",
"h  c #232324",
"j  c #2B2523",
"k  c #252926",
"l  c #2D2925",
"z  c #24252A",
"x  c #29252A",
"c  c #25292B",
"v  c #2B2A2B",
"b  c #322523",
"n  c #342A26",
"m  c #392826",
"M  c #332D2B",
"N  c #392E2B",
"B  c #2C312F",
"V  c #35312D",
"C  c #3B322E",
"Z  c #2B2B32",
"A  c #332D32",
"S  c #3A2E35",
"D  c #2E3133",
"F  c #353232",
"G  c #3C3532",
"H  c #3D3935",
"J  c #36353A",
"K  c #3B353B",
"L  c #33383C",
"P  c #3C3A3B",
"I  c #441B28",
"U  c #452A27",
"Y  c #482E35",
"T  c #413633",
"R  c #433A36",
"E  c #4B3B33",
"W  c #443C3B",
"Q  c #493E3B",
"!  c #563B3A",
"~  c #3D403E",
"^  c #46413D",
"/  c #4B423C",
"(  c #4A4839",
")  c #52463D",
"_  c #524A3E",
"`  c #604B3E",
"'  c #3D3C41",
"]  c #423D41",
"[  c #463F43",
"{  c #454244",
"}  c #4B4442",
"|  c #4D4945",
" . c #47434A",
".. c #4C464B",
"X. c #4C4A4B",
"o. c #514644",
"O. c #574747",
"+. c #544B45",
"@. c #5A4C43",
"#. c #534D4A",
"$. c #5A4E4A",
"%. c #56524D",
"&. c #5B5548",
"*. c #5C534C",
"=. c #4D4D51",
"-. c #534E51",
";. c #545455",
":. c #5B5551",
">. c #5D5956",
",. c #56555A",
"<. c #58575D",
"1. c #5C5B5B",
"2. c #724E4D",
"3. c #62544D",
"4. c #6A564A",
"5. c #635553",
"6. c #685654",
"7. c #635A55",
"8. c #6B5C55",
"9. c #645C5A",
"0. c #6A5D5B",
"q. c #745D54",
"w. c #5F605C",
"e. c #63615E",
"r. c #68655A",
"t. c #6B615E",
"y. c #72625B",
"u. c #7A6659",
"i. c #7F705B",
"p. c #5D5C61",
"a. c #615F64",
"s. c #6C5F60",
"d. c #7F5867",
"f. c #646364",
"g. c #6D6361",
"h. c #65646A",
"j. c #696769",
"k. c #6B6A6C",
"l. c #726663",
"z. c #746965",
"x. c #7A6A64",
"c. c #756B69",
"v. c #7A6D6A",
"b. c #7C736C",
"n. c #6D6C72",
"m. c #706F75",
"M. c #737274",
"N. c #7B7473",
"B. c #75747A",
"V. c #79777C",
"C. c #7B7B7D",
"Z. c red",
"A. c #816358",
"S. c #835C69",
"D. c #896B6C",
"F. c #897568",
"G. c #96786B",
"H. c #887A75",
"J. c #967D75",
"K. c #A27E73",
"L. c #908071",
"P. c #9A8579",
"I. c #A58177",
"U. c #A4857A",
"Y. c #A38A7C",
"T. c #AB8C7D",
"R. c #A5927D",
"E. c #7D7C82",
"W. c #807F86",
"Q. c #828185",
"!. c #85848A",
"~. c #89888E",
"^. c #998A86",
"/. c #8D8C92",
"(. c #949399",
"). c #A48C82",
"_. c #A78986",
"`. c #AB8C82",
"'. c #B48E82",
"]. c #B48E8A",
"[. c #AB9384",
"{. c #A79589",
"}. c #B29384",
"|. c #B4948A",
" X c #B89689",
".X c #B59B8C",
"XX c #BB9D8D",
"oX c #AB9B92",
"OX c #B69D96",
"+X c #BD9C92",
"@X c #B8A08D",
"#X c #AEA09C",
"$X c #BCA394",
"%X c #B4A39B",
"&X c #BBA69A",
"*X c #9C9BA1",
"=X c #A9A5A8",
"-X c #BEADA2",
";X c #BAA8A5",
":X c #C19C8E",
">X c #C29D98",
",X c #C3A495",
"<X c #C9A696",
"1X c #C7A996",
"2X c #C5A49C",
"3X c #C9A39C",
"4X c #C4AB9D",
"5X c #CCAD9A",
"6X c #CCAC9D",
"7X c #C4ADA2",
"8X c #CAACA2",
"9X c #CAA8A4",
"0X c #D3AEA6",
"qX c #C5B1A4",
"wX c #CDB3A3",
"eX c #C5B2AB",
"rX c #CCB3AB",
"tX c #CAB9AC",
"yX c #D2B4A4",
"uX c #D2B4AC",
"iX c #D5BBA8",
"pX c #D4BAAC",
"aX c #CDB9B1",
"sX c #D3BCB3",
"dX c #D8BAB4",
"fX c #D8C2B6",
"gX c #DEC7C2",
"hX c #E8CCC0",
/* pixels */
"@ @ % @ O O # @ $ % $ $ $ O # # $ $ $ < $ $ $ $ # X # # $ $ $ $ $ $ $ $ $ $ # # # $ # $ $ $ $ $ < $ $ @ - - @ + - = @ @ o @ o + ",
"O O + O O X # O $ @ # # # # $ # X # # $ > $ # # $ < $ < $ w w < $ $ $ $ $ # # # $ $ $ $ $ $ # # $ # X @ @ @ @ o @ @ + + o . . . ",
"8 8 0 0 8 0 e j e e e l k l l V B B D F H H H L l l k v k k l B r w e w w w 1 1 w < $ w $ # # # 1 , , , , , - - > > @ > = @ o + ",
"n M C C C V G H H ^ ^ } | X.%.%.;.>.w.a.f.f.f.j.f.f.f.f.j.j.f.f.r.f.w.w.>.;.>.>.X.| | ~ ( ~ H H F M l n v N v k j s j 0 0 0 0 5 ",
"n M G C N G G R { ( | #.%.>.w.w.p.h.h.n.n.n.h.E.C.C.C.E.C.E.E.C.C.C.M.M.M.b.k.k.k.k.j.f.w.>.;.;.{ } Q ] W W K H G S V S M M M M ",
"M N N G F C G H ^ { | %.>.w.r.w.h.n.m.B.E.E.E.E.B.V.V.V.C.C.C.C.M.M.M.M.k.k.r.k.k.j.f.w.1.;.;.;.X.} { { { { Q W G H F F F A A M ",
"G T T T G G G H ^ ^ ^ | %.;.>.w.h.n.n.E.B.E.E.E.C.C.E.E.Q.!.!.!.Q.Q.Q.C.C.M.M.M.n.k.j.f.w.p.<.;...} { Q [ W P K F F F F V A M M ",
"C C T G N N C C V V H ~ ( ( #.#.,.,.p.p.p.p.p.p.w.h.h.h.n.M.B.B.C.M.M.k.k.k.f.k.w.p.1.,.;.;.=.X.} { Q P W W H F K H F G G V A A ",
"G m R N T R N C V M F H W ^ | X.X. .=.,.p.p.,.,.p.p.h.' p.p.E.(./.;.%.X.X.,.X.,.X. . .' P P  .X.W P H K H K G G M Q W A A G l v ",
"T m R G T R N C / / } o.%.*.9.e.p.h.h.m.h.E.E.E.E.E./.E.E.B.(.(.=XM.f.f.k.n.p.p.h.h.a.p.p.<.=.{ ..} [ Q W Q K K v W P M G A v j ",
"T N Y S G Q M C Q / } | %.>.9.e.B.V.E.E.E.E.E./.E.E.~.E.E.E././.(.h.f.k.n.E.M.M.n.h.a.f.h.h.<.X.X.| { { { Q W F v W K A S A v b ",
"T m T N T R m S H R W Q o.#.:.>.h.n.B.V.E.E.E./.*XE.~.h.h.p.E.E.!.h.k.k.k.V.V.Q.M.h.p.<.p.p.,.=.X.} Q W P K G A j W R M M N v j ",
"Y m T N N R N G T W Q / o.#.%.>.,.p.h.k.n.m.m.m.E.h.p.'  .' p.h.~ B ~ P L =.p.V.n.n.k.f.,.=.X.X.{ Q W P H G M v x R R v M A k j ",
"T m S m m T m S R T W W / } o.#.-.-.<.p.h.h.p.p.=.' ' & >         X ; X   < k P ~ X.;.1.;.X.{ { { [ R K K G F M j K G j M M j s ",
"Y b S b m T m N G T G T H W Q { X.=.X.;.<.-.' Z   & & & p * p 4 w < w #   o . X X < c P { X.{ ~ { W P K K H G A s H G v v M j 0 ",
"S b m t b S b N R R R R R W Q Q  .[ '  ...' a & u ; z & a & *   #   > ; > k 5 o X X $ h P { { ~ P T G G G G M M s H G b v v j e ",
"N m C r n T q n T T C ( C T T ( n ) W S K h = 5 # < < ; & & ; 2 * o * = , - @ @ o @ .   a ] { K G G T T G G N M v b n v l l e 0 ",
"C m m q n T r m T C T T T C T T T C Q Q s O @ 0 X $ 4 4 ; o o * 2 = @ @ - O O O + , - + , x J P S C T T T G N N j v l M n e e 1 ",
"n n C r n T t N U C C T C C C T T n R G @ O 0 , $ 8 q q 0 0 , 8 q 9 q b b r 7 7 O + @ - o = c { S G T T T H N N j b n l l e 0 1 ",
"n n m r n T t C T C T C C U C C C C V 0 % n n @ r t y y t b U T U U ! 4.q.4.! E y % % 0 @ o w H C H T T T T G C j b M M n r e 8 ",
"n n n r n R t C T C T T T C N N V ( r % e r 8 t ` ( ( U U U ` ` @.2.A.G.G.G.q.q.4.y r t 8 $ w w N G T R R T G N r l M V V l e 1 ",
"r t m 8 n R n T R C T C N C C C V V e e r O % q.R.L.A.A.4.` A.G.K.G.G.K.K.K.G.F.4.m y N e < w < N G T R W R T S l n V V V l e 1 ",
"r t n e N R n T R R T T T C C N V V r e 8 r 4..X1X1X1X:XT.T.R.}.:X:X'.'.T.T.U.Y.y.` &.+.e $ w e G C T R R W T T b M C H G n r 0 ",
"r r y r m R m T E T E T T T T C V V V % O 8.&XtX1X5X5X5X5X1X@X@X<X:X<X3X5X,X@X@XP.^.oXL.M @ h x S C T R W T T K n M H H H V e e ",
"r r b N T R E E / Q Q R R T T T ( V V . 9 ^.7XP..XY.[..XR.5XiX1X:X:X5XyX1XT.}.XX$XH.Z.=XH.H + j W W W R Q R R W V C H H T G l e ",
"r b n n N C C C R T T T T T R R ( ~ j O O.^.H.D.F.q.A.J.L.L.R.@XyX0X1XR.L.F.A.q.6.Z.F.^.;X9.  s Y R R W W T W W G G H W H C r w ",
"b b n N C C T C N C N C C T R R j | %.G ! 5.0.oX$XR.P.R.R.R.R.R.T.}.[.T.P.P.R.`.Z.).^.H.=Xs.. b [ Q Q Q W Q / Q R R W ^ ^ V l w ",
"r t n C R R E / R T R T R R Q / %.G o.o.$.H._.].).P.G.u.L.R.R.A.A.F.L.L.G.F.Z.Z.{.J._.P.0.Q t s O.O.O.o.o.o.o.o.W ^ ^ ^ H G r 8 ",
"r t m C R / / / ) / / / / / / o.:.} &.&.z.%X7XOXU.).G.u.F.R.L.4.T.A.u.G.F.q.Z.Z.P.u.{.oXb.t.7.^ o.O.O.+.O.O.+.+.} } } } ^ H l e ",
"r b n m C C C C E R T T T T T R l 7.7.( F.%X{.9X8X2X$X@X@XP.L.P.yXJ.q.G.T.U.U.[..XR.oX%X&X{.8.*.o.} o.} } o.} } } | | | ( H n e ",
"j b b M m C C C C C N C C C T G ( | l y ^.fX.X.X`.T.I.T.T.I.L.R.uX}.G.F.I.}.}.R.$X&X{.R.-XL.y _ / / / } / } } } | } +.| } R V k ",
"q r n n G R E / R E Q Q ) o.@.@.&.( _ _ F.tXfXhX8XyX:X X5X1X:X:X+X3X+XI.K.}.XXT.R.@X&X&XeXL.m _ O.o.o.O.o.o.o.o./ | | | | ^ V l ",
"e r e M ( C t T R R T R Q ( _ _ ( &.&.` b.#XfXfXiXiXiX5X5X<X<X3X3X3X>X>X+X+X+X,X6XqX4XtX-Xu.E 7.@.$.#.O.#.$.#.$.-.*.#.} X.} n e ",
"e r e n ( H l H R E R R Q ( / _ _ &.&.&.z.oXfXaXfXfXyX5X<X:X:X:X9X>X].].].>X8XpX7XqXqXtXoXu.@.8.3.:.*.*.$.$.*.:.$.:.#.} %.| V e ",
"e l 8 l ^ H r C R T R ( Q ) _ o._ _ 7.8.r.P.aXaXiXiXiXyX5X<X3X3X3X>X].].|.OX8XuX7X8XsX;XP.t.8.8.6.5.5.:.>.>.5.7.-.>.$.#.:.| F l ",
"e j e l ^ G r C T ( R E / ) _ @.&._ 7.t.*.L.aXdXfXfXiXyXyX0X0X0X>X3X2X2X>X2X2X4XrXtXdX;Xz.8.y.0.9.9.9.6.5.9.9.0.5.9.:.| :.#.V l ",
"k l e l ^ V r H ( T / E / ) @.@.7.&.>.8.O.D.;XgXfXfXiX0X0X3X3X0X3X3X>X9X3X9X7X9XaXuXaX{.6.6.c.6.9.0.9.6.9.9.9.9.:.7.%.+.%.| G l ",
"l M e l ^ V r H R ( E ( ) _ @.+.&.&.*.*.5.0._.aXfXiX0X5X:X].].].].]._._.].OX7XrXuXrXOXH.6.0.s.6.0.9.9.6.5.9.9.9.:.1.*.%.:.%.G l ",
"v M r l ^ G r R / ^ / / / +.+.@.+.7.*.:.q.5.x.OXuX0X6X<X:X:X].].W.:X_.K._.|.&X9XeX;X^.0.0.l.0.0.0.0.9.9.9.9.s.0.7.e.*.%.>.&.H l ",
"V V j n ( H t T / / / / ) +.&.&.o.6.*.3.l.O.O.P.rX0X0X3X3X3X3X9X:X:X+X,X2X4X2X7X&X.XD.2.l.v.0.g.s.s.0.0.9.0.0.g.9.t.>.:.w.;.H V ",
"v V M V H C V R R _ &.$.*.*.&._ 7.3.+.&.$.6.8.) U.1XyX1X6X6X:XK.W.'.'.:X@X$X$X&X[.%XL.v.z.6.l.t.v.v.l.l.g.t.g.g.9.7.>.9.>.%.^ H ",
"V C V G ^ H V ( / o.+.&.*.3.&.@.&.&.8.z.l.q.q.q.u.}.wX5X5X0X>XXX:X:X:X>X,X@X}.[.&X@Xi.8.c.D.H.z.g.0.s.0.0.t.j.z.9.9.7.7.>.%.^ H ",
"V H V H ^ R C / #.*.:.*.3.8.7.7.&.&.3.&.6.y.q.u._ Y.5XwX5X3X,X,X+X:X:X:X@X XR.R.qX-XL.y.l.l.N.v.z.c.l.j.l.z.z.z.9.7.9.1.>.%.^ H ",
"V G F H / ^ G / &.*.3.*.*.8.7.&.7.r.r.( :.v.8.3.y.[.iXwX<X+X XXX X'.'.T.R..X@X&X&XeX{.b.x.c.c.l.c.c.c.c.z.z.c.c.e.9.>.7.e.:.} ^ ",
"V F C H ( ^ G ( o.+.&.@.&.r.r.r.r.r.b.g.z.g.@.t.{.-XsXwX9XOX].].'.T.T.T.[.@X4XwXqX-X).z.z.H.N.v.g.g.g.g.l.z.j.z.r.9.>.9.>.:.#.^ ",
"V H V H { ^ R o.+.&.7.7.t.y.y.y.k.%.e.9.#.V m ^.-XfXfXrXdXrX9X>X.XXX$X,X4X4X4XqX-XtX%X8.H } a.H.v.v.v.c.z.z.g.g.g.9.e.>.7.:.#.( ",
"V H G W | ^ ( o.*.9.r.7.8.7.3.+.( l G h a 8 8 H.-XaXsXaXdXdXuXdX2X4X8XwXwX7X7X-X-X-XoXR + 9 x ..s.g.g.l.l.g.g.g.g.e.9.7.>.>.%.| ",
"G H W ^ #.} / %.*.:.*.+.^ C l 1   # k + k ^ , G #XeXtXuXdXdX0XdXuXwX4X3X1X4X7XqXeXP.%.X + A +   v A W #.>.f.z.c.g.t.1.7.1.1.%.| ",
"R R } $.#...#.{ W A a 2 o * ; p s u s Z u u l V M H.aXgXdXuXuX9X6X4X4X7XqX;X&XOXH.R + 3 x a p z = o o o 5 F | 9.p.a.a.9.9.a.-.[ ",
"} W [ [ F V A x 3 5 4 u 2 p z Z x u z z 3 p k v < R c.{.eXfXdXuXwX2X.X&XqXoXF.@.V 8 , 0 a ; ; z A v f 2 > > 5 p s F -.a.k.s.-.W ",
"X.W K A e 5 5 > > 4 p p p i g z Z u u z p p h w e w j R y.).&XeX-XqXeX&XP.*.m % @ , a x p ; u z 5 5 5 5 5 5 5 0 2 0 x K [ -.-.[ ",
"~ B v k 4 4 f p p g g p p i u i Z u u u z f f 5 B h 1 1 e H 7.b.H.L.P.x./ 0 - - r h a u u a z z f f p f h p p 5 x h 3 = s S [ [ ",
"B w f w : w c k 4 p p p i i p z Z u u u z z p u w h v B w $ w r l j 9 9 0 k j a x h 2 o ; p a u c z h f f 5 5 p h h a 5 p a x p ",
"f 4 4 w < w f 5 p 5 4 3 u p p Z Z u u u z Z p u w w k c B k w w 5 3 3 4 3 3 p a 2 p a 3 4 p p p 5 5 4 4 w h k c 5 h h p a a p = ",
"w 4 5 h 4 w f < f h p p 3 u p a z z u u Z z u Z 5 h h 4 w B B B z D ' D i & * p p g c x z p h c k k f f 5 4 4 4 h h p 4 5 h a p ",
"< < h c f h h 4 4 5 p p p p p g z z u u Z Z s A < x A h 5 k k 4 g i 4 p g Z z p Z z p p h 5 5 f g h c z h g w 4 4 f h f h c h 3 ",
"4 2 p k 5 p g p 5 5 w g g k g w u g z g u z Z Z Z s J p 2 h 4 z g g f f f : w : c k g w w w h h h h f h h f f p f f f h h k h k ",
"4 4 p k i f h f k g g w < : w c g Z z g u u u u Z u a p z Z u p p f f f f g k g k h h h h e w e f a f a p 5 5 5 < 4 4 5 f g k k ",
"u 2 g g w f g g f f g w : : w c u u u u u g g g p a ' D a 2 2 D p 4 f w w 5 w 4 k l c z k k j h k h h h h h h h v v c c c z k g ",
"i i g g : f z g 4 f g k k g k c z z Z Z z u : u Z p p p Z x u ; 4 5 5 5 5 w w w 5 5 5 a e w 5 < a a h a a 5 p 5 2 2 5 f f f g k ",
"i : g g u i g p x p s d k t l e 6 u u s a 2 ; 2 i D ' Z x Z Z a , 2 5 p h x l v a x Z Z Z Z x x M A x v x x x x k h h g h f f f ",
"i : i g u u x a x s 6 6 1 8 6 7 d d d ] S x z Z & z Z g u 2 a p a a 0 9 , 1 3 3 s s x x x x x x h s j s s a a h x x c z h h h h ",
"i : : g 2 u s s 6 d Y Y I I d I I d 6 6 + .   = ,.D & g K a 2   a 9 a 9 3 3 = = = - 2 = 2 3 u u 3 9 3 3 , 3 , < o = ; 4 p h k c ",
": : i : u u s s 6 [ S.D.S.2.2.2.S.d.d.d.N.D.~.=X*X=X=X=Xj.a ] W., 9 9 s x N K K ] ] ' ' ' ' [ [ [ ........{  . .-.X.{ P F z h p "
};
