/* XPM */
static char *_9af7f0fa454402ddf0b679836dcc9f0fldYaBCTLiS2HIZE[] = {
/* columns rows colors chars-per-pixel */
"64 64 235 2 ",
"   c #020103",
".  c #0B0404",
"X  c #0C0B0B",
"o  c #0A0908",
"O  c #120A06",
"+  c #120D0B",
"@  c #150909",
"#  c #0F100A",
"$  c #12120C",
"%  c #1A120E",
"&  c #0D0D11",
"*  c #070C10",
"=  c #130E12",
"-  c #180F10",
";  c #0E1418",
":  c #141314",
">  c #1A1414",
",  c #141915",
"<  c #1C1A16",
"1  c #15151A",
"2  c #1B151A",
"3  c #161A1C",
"4  c #1B1C1D",
"5  c #270D15",
"6  c #231B16",
"7  c #231D1B",
"8  c #291E1B",
"9  c #241617",
"0  c #291313",
"q  c #1C211E",
"w  c #24221D",
"e  c #2C231D",
"r  c #32241D",
"t  c #3E261C",
"y  c #151D21",
"u  c #1C1D22",
"i  c #1B1A25",
"p  c #221E22",
"a  c #291D24",
"s  c #361D29",
"d  c #1D2223",
"f  c #1C2427",
"g  c #232325",
"h  c #2B2523",
"j  c #252925",
"k  c #2C2925",
"l  c #24252A",
"z  c #2A252B",
"x  c #25292B",
"c  c #2B2A2B",
"v  c #322523",
"b  c #342A26",
"n  c #332D2B",
"m  c #392D2B",
"M  c #392827",
"N  c #2D322F",
"B  c #35312D",
"V  c #3B312E",
"C  c #2B2C32",
"Z  c #362E33",
"A  c #2E3233",
"S  c #353232",
"D  c #3C3532",
"F  c #3D3935",
"G  c #36353A",
"H  c #3B353A",
"J  c #3C3A3B",
"K  c #33383C",
"L  c #441A27",
"P  c #462A27",
"I  c #413633",
"U  c #433A35",
"Y  c #443C3A",
"T  c #493E3B",
"R  c #4B3B33",
"E  c #563B3A",
"W  c #4B2E38",
"Q  c #3C413D",
"!  c #46413D",
"~  c #4B423C",
"^  c #4C473A",
"/  c #52463D",
"(  c #52493E",
")  c #5C4C3F",
"_  c #614B3E",
"`  c #3D3C41",
"'  c #423D41",
"]  c #463F43",
"[  c #454243",
"{  c #4B4442",
"}  c #4D4945",
"|  c #4B454B",
" . c #4C4A4C",
".. c #454449",
"X. c #514644",
"o. c #544B44",
"O. c #5A4C43",
"+. c #534D4A",
"@. c #5A4E4A",
"#. c #574747",
"$. c #5A5246",
"%. c #55524D",
"&. c #5C534C",
"*. c #5E594C",
"=. c #4D4C51",
"-. c #534E51",
";. c #545355",
":. c #5B5552",
">. c #5D5A56",
",. c #56555A",
"<. c #58575D",
"1. c #5C5C5B",
"2. c #575853",
"3. c #4F5042",
"4. c #62544D",
"5. c #6A554A",
"6. c #74594D",
"7. c #635553",
"8. c #635A55",
"9. c #6B5B55",
"0. c #645C5A",
"q. c #6A5D5B",
"w. c #685654",
"e. c #735D54",
"r. c #755E57",
"t. c #71494E",
"y. c #63615E",
"u. c #6B615E",
"i. c #686157",
"p. c #73645C",
"a. c #7B6659",
"s. c #7F705B",
"d. c #5D5C62",
"f. c #615F64",
"g. c #6B5F61",
"h. c #7F5867",
"j. c #646364",
"k. c #6D6361",
"l. c #65646A",
"z. c #6B6A6C",
"x. c #6A6769",
"c. c #726663",
"v. c #736965",
"b. c #7A6C65",
"n. c #756B69",
"m. c #7A6D6B",
"M. c #796663",
"N. c #7A726D",
"B. c #6D6C71",
"V. c #706F75",
"C. c #7F6E76",
"Z. c #737275",
"A. c #75747A",
"S. c #79777C",
"D. c #7B7A7D",
"F. c #7D7372",
"G. c #826558",
"H. c #845C68",
"J. c #866E62",
"K. c #897569",
"L. c #95786A",
"P. c #8B7A74",
"I. c #867A77",
"U. c #977D73",
"Y. c #8E6970",
"T. c #A27E74",
"R. c #825F59",
"E. c #96816C",
"W. c #99857A",
"Q. c #8E8076",
"!. c #A4847B",
"~. c #A28A7D",
"^. c #AC8C7C",
"/. c #A78277",
"(. c #A5927D",
"). c #7D7C81",
"_. c #807F85",
"`. c #828186",
"'. c #87868C",
"]. c #9A8B84",
"[. c #988989",
"{. c #8D8C93",
"}. c #949398",
"|. c #A58D82",
" X c #AC8B83",
".X c #A58A86",
"XX c #B48E8A",
"oX c #B48E84",
"OX c #AC9383",
"+X c #A4938B",
"@X c #AA9688",
"#X c #B29485",
"$X c #B4948B",
"%X c #B59B8B",
"&X c #BB9C8D",
"*X c #B8968A",
"=X c #AA9B91",
"-X c #BD9C92",
";X c #B59D95",
":X c #BAA18D",
">X c #BDA395",
",X c #B5A39B",
"<X c #BAA699",
"1X c #AFA19B",
"2X c #A8A4A7",
"3X c #BDACA2",
"4X c #B6A6A4",
"5X c #ABACB0",
"6X c #9C9BA1",
"7X c #C39D98",
"8X c #C29C8D",
"9X c #C3A495",
"0X c #C4A49C",
"qX c #CAA49B",
"wX c #C4AB9D",
"eX c #CCAC9C",
"rX c #C8A896",
"tX c #CCAD9B",
"yX c #C4ACA2",
"uX c #CBACA2",
"iX c #C9A7A4",
"pX c #C5B1A4",
"aX c #CDB2A4",
"sX c #CCB4AB",
"dX c #C7B5AB",
"fX c #D2B3A5",
"gX c #D4BAAC",
"hX c #D4B7AA",
"jX c #CDB9B2",
"kX c #D3BCB3",
"lX c #D7BBB4",
"zX c #D5AFAB",
"xX c #D8C2B6",
"cX c #DDC7C2",
"vX c #E8CCC0",
/* pixels */
"+ + % + O O + + $ % $ $ # # # O $ $ , , % : $ $ # o # # $ $ $ $ , % $ $ $ $ # # # # # $ $ $ $ $ $ % # + = = + + = + + + + @ X X ",
"O O @ O o o O + # $ # # # # $ $ o # # # $ # # # $ , $ , , , q , $ $ $ # # # # # $ $ $ $ $ $ $ $ $ # + X + + + @ + + @ X X . . . ",
"9 6 8 8 6 8 w h w w w j j c k B N c N S G F F F k x j x k x N j w w q q q q < < q , , q $ # # # 2 > > > 2 > > : > - = = = + @ X ",
"b n B B B V D F U ! ! } } 3.%.%.2.2.y.j.j.x.j.j.x.y.j.x.j.x.y.j.i.y.y.y.1.2.2.*. .3.[ Q ^ Q F F S n b c n b h h h g h 8 7 7 7 7 ",
"b n m V Z D D F ! } } 3.2.2.y.y.d.l.l.z.B.l.).B.D.D.).D.).).).`.D.D.D.Z.Z.N.Z.z.z.z.x.y.1.1.2.2.[ ! Y ' Y Y J F D S Z n n b c n ",
"n m D V V V D F ! { } %.2.>.8.y.l.B.V.A.).).).).D.Z.A.S.D.D.D.).Z.Z.Z.Z.z.z.z.x.z.z.y.y.1.;.;.-. .} { [ [ [ ' U D S D D Z S Z n ",
"D I I I D D D U ! ! ! } %.2.>.1.l.V.B.).).V.).).D.D.D.).`.`.'.'.`.`.D.D.D.Z.Z.Z.B.z.z.j.d.1.<.,.} [ T ' ] ' J H G D S S S n n Z ",
"V D I V m m m D B B D ! [ } 3.%.,.,.d.d.d.d.d.d.d.j.l.z.B.Z.Z.A.Z.N.Z.Z.z.z.j.y.d.d.1.,.;.;. . .| [ T Y Y U F D H D D D S S Z n ",
"I n U V I T n m n n D D Y ~ }  .| =.=.=.d.d.,.,.d.<.l.=.d.d.`.{.{.2.3.=.=.,. .,. .....` J ` .. .] U F H J H G D c T U Z S D c h ",
"D M U V V T n Z ~ ~ { } %.2.0.0.f.l.l.B.B.).).).).).{.).).).{.}.5XZ.l.j.l.B.d.f.l.l.d.d.d.<.=...| [ [ ! T Y U D c Y J Z S S b h ",
"W n W V I U M D T [ { X.@.>.y.y.V.S.).).).).).'.).).'.V.).V.{.{.}.l.l.l.A.).Z.Z.B.l.f.l.l.l.,. .+. .[ [ ' Y J D c Y Y n m Z c c ",
"I M I m I Y m I I U U ~ } @.:.2.l.B.A.S.).).).{.6X).{.l.B.d.).).'.l.B.z.l.D.S.`.V.l.d.d.d.d.,.;. .[ ' Y U J S Z h Y H n n Z h h ",
"I M I M V Y M V Y U T ] } +.&.:.,.d.l.z.B.V.V.A.).f.d.` ..` d.l.Q N ` J G =.f.A.B.B.z.f.,.=. . .[ [ U J D D Z b h U H n Z n z h ",
"I M I M M I M Z U U U Y T } X.+.=.;.,.f.l.f.d.d.=.` ` * 1           & o   1 g ` Q  .,.1.2. .[ ` { T U H J D S n h I G v n n h g ",
"I s m s v I v m I I D I J U T [ =.|  .;.d.=.` C     ; * u & u 1 f ; q $   X o o * : x F .. .[ Q [ Y J H G D D n g H D c c n h 8 ",
"m v M v s I v m Y I U U U Y T T | ] ` ..| ` p * i 1 i * u o ;   #   , $ : j 2 # o o = g F ....Q J I D D D D Z n h F G h n b g 7 ",
"m m m 8 M I e b V I I I I I ^ V b ( Y Z H h + 4 & ; , & & * ; 1 & X X 1 > : + O o @ .   p ` [ H D D I I I D m M c v n k k e w 7 ",
"m m V 8 M V r b I I I I ^ V I I I D T T a X + 4 X : 3 3 ; X & X 1 = + @ + O O O @ > = @ 1 z G J m D I I I D m n c v k n k h w < ",
"M b m e M I e V V V I V b I V P I b R D + O w > $ 6 w e 7 6 2 6 8 9 8 v M e 0 0 O @ % + X = x ! V D I I D D V m h v c n k e w < ",
"v b m 8 b I r V P I V I V V V V V V B 7 % b b + e b r r r r P I P P E 5.e.5./ E t % % 6 : X g G Z D I U U I V V h v b n n e w < ",
"M b b 6 b I b V I I I V V V V V B F k % w e 6 r $./ R P t t _ _ t.t.R.L.U.L.r.6.5.r e r 6 , < w V I I U U I D m e k B B n k w < ",
"r r M e b U M I I I I V V V V V F B w w e O 6 6.(.E.J.6.6.6.G.E.L.L.L.T./.L.L.J.5.P r B w , < , Z V I U U U D I k b B B B k w 6 ",
"e r b 6 b U b D I U I I I V V V B B r w 6 e 5.@XtXwXrX8X^./.(.(.8X8X^.8X^.^.~.W.e.$.4.) w $ q g D V I U Y U W H v b V F V n w w ",
"e e M w m R b I U R I I I I V V B B b % O 8.3XjX:XtXtXfXtX8XrX:X8XrX8XrXeX9X&X:X(.W.=XQ.n + g h m D I U U U H D b B F D F B w w ",
"w e v m I U U R ~ T R U I I I F ^ N B . 0 ].pX].=X^. X%X(.pXgXtX8X8XtXfXrX#XOX%X>XP.=X2XI.D + g Y T U T Y Y Y U n V F F F V k w ",
"r h b b m V V V U U I I I U I R ^ ^ e . #.[.P.K.J.e.a.U.E.E.(.(.hXfXwXOXE.J.a.a.5.b.K.[.4X0.. a I U U U U U U U D D F Y U S e q ",
"e b M V m V I V V V V V V D I T h } &.D ] t.r.=X>X~.~.(.E.E.(.(.OX%X@XW.W.~.~.OXP..XW.U.4Xg.. v ] T ] T T Y T T R U Y Y ! B k w ",
"e e M V U R T ~ U I I I U R T ~ %.F X.X.#.P..X=X~.~.K.a.E.:X(.s.G.J.L.E.L.J.K.~.$XW.[.Q.0.T 8 a #.#.X.#.X.X.X.X.! ! ! ! U V k < ",
"e r b V U R ~ ~ / ~ ~ ~ ~ / ~ X.:.{ $.$.s.,XyX;X!.|.U.a.K.(.E.5.~.J.a.L.K.6.6.J.W.a.+X1Xb.p.8.! X.#.#.X.#.X.+.#.{ ^ { { ! F k w ",
"e v b m V V V V U U I I I I I I k 8.i.^ P.1X.XyXuX0X-X:X&XE.K.E.aXU.a.L.^.~.!.OX%X(.=X<X3X+X9.4.X.{ X.} ~ X.{ X.{ } } } ! F B w ",
"e h v b V V V V m V m V m I I I ^ ( k k ].xX%X%X X^./.^.#XE.E.:XfX$XL.Y.!.#X#X^.>X<X@X(.3XQ.t ^ X.T ] / { { { ~ { X.} +.^ ! B w ",
"e e b m I I R T T R T T ~ X.o.O.$.^ ( ( K.dXxXvXuXfX9X#XrXrX8XrX-X0X-XT.T.#X&X^.(.%X<X3X3XQ.b / X.X.X.#.X.X.X.X.{ } } } { ! B k ",
"w k w n ^ F r F I V I U R ~ ( ( ^ *.$.) N.1XxXxXxXgXfXfXtXtXrXqXqXqX7X7X*X-X7X9XuXpXwXdX3Xs.^ 5.O.@.+.#.+.@.-.@.+.:. .[ o.{ n w ",
"w e 8 k ^ F r V ^ ^ I R ~ ^ ( ( ( ) *.4.b.=XxXkXxXgXfXtXrX8X8X8XqX7X-XXXXX7XuXgXyXpXaXdX=Xp.O.w.4.:.&.@.@.@.&.:.+.7.+.} %.{ B e ",
"w h w k ! F e F V R U ~ ~ ^ ( ( ( ) 8.8.i.].jXjXgXgXfXfXtXrXqXqXqX7XXXXXXX-XuXsXuXyXkXdXW.p.w.i.7.7.7.7.>.:.7.w.&.7.-.} 2.} B k ",
"w h w k ! B e V D ^ U ! R / ( o.*.( 8.i.4.P.dXlXvXxXgXfXfXfXzXzXqX0X7X7X0X<X0XuXsXjXkX;Xb.w.p.q.q.7.0.0.7.0.0.0.:.0.:.+.2.3.D k ",
"h k w k ! B e F ! I ! ~ ^ / o.O.*.3.8.8.@.m.3XcXxXxXgXfXqXqXiXqX7XiX0X0XiXiXiXsXhXjXjX+Xw.w.c.w.q.0.7.0.7.0.0.0.&.0.%.+.%.X.S k ",
"c n w k ! D r F ^ R ^ ~ / ( o.O.*.3.&.8.7.q..XjXgXgXfXrX7X8XXXXXXXXX.X X X;XiXsXjXsX;XI.w.w.c.w.q.0.0.7.7.0.0.0.2.0.&.o.:.@.F k ",
"c B e k ! B r I ~ U R ~ / ( o.$.o.7.4.7.q.t.M.;XhXfXtXrX8X*XXXXX_.XX!.!. X;X-XyXyX3X_.r.g.M.g.q.q.q.q.0.0.0.q.q.>.q.:.%.>.%.F k ",
"B B e b ^ F k I ~ ! ~ ^ / ( $.$./ 9.@.&.M.#.#.].zXtXtXqXqXqXqXqX8X7X-X7X<X0XuXyX0X>XY.4.c.m.q.k.g.g.q.q.g.q.g.k.0.u.>.2.8.%.! B ",
"c B B B F B n U R X.$.%.$.&.$./ 8.4.$.O.&.4.9._ !.wXfXrXeXtX*X/._.oX8X8X:X>X>X<X@X,XQ.b.M.8.M.k.m.n.v.k.k.k.k.k.0.8.>.0.>.%.^ G ",
"B V B F ~ F V ! ~ X.$.@.&.4.*.$.&.$.9.v.M.9.9.e.a.#XaXtXfXtXqX-X8X8X8X8X9X:X#X(.<X:Xs.9.b.N.I.c.k.k.g.q.g.k.k.v.0.0.>.8.>.%.! F ",
"B S S D ! U V ^ o.&.8.&.4.8.8.4.*.*.*.&.8.p.r.p.) W.aXtXtXqX7XqX8X8X7X8X:X#X(.(.pX3XQ.p.a.v.N.n.v.v.c.c.k.c.x.v.0.0.>.>.>.&.^ J ",
"B D D F ^ ! D ^ $.&.&.&.*.9.8.4.*.i.y.^ 4.m.9.4.a.@XhXaXrX&X*X*X*XoXoXT.(.%X:X>X3XpX+XK.n.n.n.c.n.n.n.n.v.n.n.v.u.0.>.0.>.2.{ Y ",
"B S B F [ ! D ^ ( o.$.o.$.y.i.i.i.y.N.k.v.k.O.i.+X3XxXaXuX-XXX+X#X^.^.^.OX:XwXdX3X3X+Xp.v.I.C.V.k.k.k.c.v.v.v.v.k.0.8.8.8.2.+.! ",
"B D D F { ! R } o.&.8.8.i.p.p.p.v.2.u.>.} V m ].3XxXxXdXgXsXiXiX&X&X>X>XwXwXwXpX<XxX,X8.I { 0.I.m.n.m.n.n.k.k.k.k.i.1.1.y.2.+.^ ",
"B F D Y } [ ! +.4.8.i.9.9.8.4.$.^ x G h 8 7 6 I.3XjXkXkXlXlXsXzXqXwXuXuXaXpXwX3X3X3X=XU @ 9 z #.q.k.k.c.c.k.k.k.k.i.8.>.0.2.%.{ ",
"D J U T +.} ^ +.:.:.:.3.! V k <   # j X g Y 9 D =XdXjXjXlXhXzXlXhXaXuXwXwXwXyXpXpX].%.o @ Z =   v Z Y +.8.u.z.n.k.j.0.1.0.>.%.} ",
"U U { @.+.X.+.] J S g : X X ; i p 2 l C 4 2 c B n I.jXcXlXzXzXiXeXwXwXuXwX3X<X1XI.U @ 2 c p i l 1 & X X 2 S  .0.1.f.f.q.0.f.-.] ",
"[ U ] ] D S Z l 2 i 1 1 y i l C a 2 g c 4 4 x j % ! m.+XsXxXcXzXaX<X>X<XpX=XK.O.V 6 > 7 i = : l C c g 1 : : 4 d g D -.f.x.g.-.Y ",
"} J D S w 4 4 & 1 1 y u i i f l l i i i d q g q w q e T p.].<XdXyXpXpX,XW.&.M % O > p j 4 : y l 4 3 2 3 2 4 4 4 : p c H ] -.-.#.",
"Q N N g 3 3 g d u d l f u y y y C i i i f g q 4 N w , < w F 8.N.I.P.W.n.{ 8 - % h g u 2 i p l l u d d g g d p 4 z p 2 = i Z ] ] ",
"N d d q , q x j y 4 u 4 3 y u l C i 1 1 l l u 4 q d N k q , q e b h 6 9 p h h g h g 1 X = i l 1 x x g d d q 4 u p g g 4 p l p i ",
"q q 4 q , 3 d u u i 4 4 1 u p C C i i i x l u i 3 q g x x j q q 2 4 2 2 : 1 i p 1 i u i 3 u i u 4 4 3 3 4 d j x 4 g g 4 p p 2 : ",
"q , u f 3 q d : d g u i 2 4 i u l l i i C l p C d g p 3 q N N x l S ` A i X & i i g z c l u g x l j f d q 4 3 3 g g u 3 4 g g u ",
", 1 f c f g g 3 3 2 u u u u u l p i i i C z i Z > c S g q j l q f y 3 y x x l d C f u u g 4 4 q f g j l f d 4 3 3 d g g g x g 2 ",
"1 1 u x u u f y 4 4 q f f f f q i f l i f l C z z l G p 1 g 1 f f f f d 3 4 3 3 x l f q q g g j g j g g d p d d d d d d f j g j ",
"3 1 g f 4 u g f x f f q , y f x f l l i i i u i Z i p i l C i g u d d d f f j f j g j d w q q g u u p u 4 u 4 4 : 3 3 d d g l l ",
"y 1 f f y d l f d f f q y , q f i i i i i i i i i i ` A p 1 1 C u y u q q 4 q 3 j h h x j h g w j g g l j g g g c c x l x j f j ",
"y 3 f f 3 f x f q q f j f j j j l l l z i y y y x u u i x c 2 & 3 4 4 4 4 q q q 4 4 d p g 4 4 < g p p p 7 u 4 4 3 2 4 q d f f j ",
"f ; f f y i f i l l p a j k k e 5 2 i a p 1 = 1 y C K C l C C l 2 2 4 7 g h x c a l C C C C C a c n c c c c z z j g g g g d d d ",
"y ; y f 1 1 l a z a 9 5 < % 5 5 s s s ' Z z l C & x C x 2 1 p i p 7 7 i < 2 2 2 p a a l z l l z a z a a p p p p z x l l g g d g ",
"y ; y y 1 i a a 5 M W W L L L L L s 5 5 - . . = ,.A * f H l 2   p 7 9 2 2 > : = = 2 = = 1 1 i p 2 2 2 2 2 1 2 2 X = : 3 4 g j z ",
"y ; y y = 2 a s 5 ] H.Y.H.t.t.t.H.h.h.h.C.Y.'.2X6X2X2X5Xz.i ' S.2 9 9 s z Z H I ' ' ' ` ` ` ] ] ] #.| | { | [ [ =. ...J S x g u "
};
