/* XPM */
static char *result[] = {
/* columns rows colors chars-per-pixel */
"64 64 225 2 ",
"   c #020103",
".  c #0B0404",
"X  c #0A0908",
"o  c #0C0B0B",
"O  c #120A06",
"+  c #150809",
"@  c #130D0B",
"#  c #0F100A",
"$  c #12130C",
"%  c #1A120E",
"&  c #070C10",
"*  c #0D0D12",
"=  c #130E12",
"-  c #180F10",
";  c #0E1114",
":  c #0D181C",
">  c #141314",
",  c #1A1415",
"<  c #141915",
"1  c #1C1B16",
"2  c #15151A",
"3  c #1B161A",
"4  c #161A1C",
"5  c #1B1C1D",
"6  c #270D16",
"7  c #2D1417",
"8  c #231A16",
"9  c #231518",
"0  c #231D1B",
"q  c #291E1B",
"w  c #1C211E",
"e  c #24221D",
"r  c #2C231E",
"t  c #32241D",
"y  c #39271D",
"u  c #181720",
"i  c #151C21",
"p  c #1C1D22",
"a  c #221E22",
"s  c #2A1C23",
"d  c #391C27",
"f  c #1D2223",
"g  c #1C2428",
"h  c #232324",
"j  c #2B2523",
"k  c #252926",
"l  c #2D2925",
"z  c #24252A",
"x  c #29252A",
"c  c #25292B",
"v  c #2B2A2B",
"b  c #322523",
"n  c #342A26",
"m  c #392826",
"M  c #332D2B",
"N  c #392E2B",
"B  c #2C312F",
"V  c #35312D",
"C  c #3B322E",
"Z  c #2B2B32",
"A  c #332D32",
"S  c #3A2E35",
"D  c #2E3133",
"F  c #353232",
"G  c #3C3532",
"H  c #3D3935",
"J  c #36353A",
"K  c #3B353B",
"L  c #33383C",
"P  c #3C3A3B",
"I  c #441B28",
"U  c #452A27",
"Y  c #482E35",
"T  c #413633",
"R  c #433A36",
"E  c #4B3B33",
"W  c #443C3B",
"Q  c #493E3B",
"!  c #563B3A",
"~  c #3D403E",
"^  c #46413D",
"/  c #4B423C",
"(  c #4A4839",
")  c #52463D",
"_  c #524A3E",
"`  c #604B3E",
"'  c #3D3C41",
"]  c #423D41",
"[  c #463F43",
"{  c #454244",
"}  c #4B4442",
"|  c #4D4945",
" . c #47434A",
".. c #4C464B",
"X. c #4C4A4B",
"o. c #514644",
"O. c #574747",
"+. c #544B45",
"@. c #5A4C43",
"#. c #534D4A",
"$. c #5A4E4A",
"%. c #56524D",
"&. c #5B5548",
"*. c #5C534C",
"=. c #4D4D51",
"-. c #534E51",
";. c #545455",
":. c #5B5551",
">. c #5D5956",
",. c #56555A",
"<. c #58575D",
"1. c #5C5B5B",
"2. c #724C4D",
"3. c #62544D",
"4. c #69564A",
"5. c #635553",
"6. c #685654",
"7. c #635A55",
"8. c #6B5C55",
"9. c #645C5A",
"0. c #6A5D5B",
"q. c #735D55",
"w. c #5F605C",
"e. c #63615E",
"r. c #68655A",
"t. c #6B615E",
"y. c #72625B",
"u. c #7A6659",
"i. c #7F705B",
"p. c #5D5C61",
"a. c #615F64",
"s. c #6C5F60",
"d. c #7F5867",
"f. c #646364",
"g. c #6D6361",
"h. c #65646A",
"j. c #696769",
"k. c #6B6A6C",
"l. c #726663",
"z. c #746965",
"x. c #7A6A64",
"c. c #756B69",
"v. c #7A6D6A",
"b. c #7C736C",
"n. c #6D6C72",
"m. c #706F75",
"M. c #737274",
"N. c #7B7473",
"B. c #75747A",
"V. c #79777C",
"C. c #7B7B7D",
"Z. c red",
"A. c #FF7300",
"S. c #816358",
"D. c #835C69",
"F. c #887569",
"G. c #8D706F",
"H. c #96796B",
"J. c #887A75",
"K. c #A27E73",
"L. c #908071",
"P. c #998579",
"I. c #A4867B",
"U. c #AB8C7D",
"Y. c #A5927D",
"T. c #7D7C82",
"R. c #807F86",
"E. c #828185",
"W. c #85848A",
"Q. c #89888E",
"!. c #998A86",
"~. c #8D8C92",
"^. c #949399",
"/. c #A58A84",
"(. c #AC8C83",
"). c #B48E83",
"_. c #B48E8A",
"`. c #AB9484",
"'. c #A79489",
"]. c #B29384",
"[. c #B4948A",
"{. c #B89689",
"}. c #B59B8B",
"|. c #BC9D8D",
" X c #AB9B92",
".X c #B69D96",
"XX c #BD9C92",
"oX c #B8A08D",
"OX c #AEA09C",
"+X c #BDA394",
"@X c #B4A39B",
"#X c #BBA69A",
"$X c #9C9BA1",
"%X c #A9A5A8",
"&X c #BEADA2",
"*X c #BAA8A5",
"=X c #C19C8E",
"-X c #C29D98",
";X c #C3A495",
":X c #C9A696",
">X c #C7A996",
",X c #C5A49C",
"<X c #C9A39C",
"1X c #C4AB9D",
"2X c #CCAD9A",
"3X c #CCAC9D",
"4X c #C4ADA2",
"5X c #CAACA2",
"6X c #CAA8A4",
"7X c #D3AEA6",
"8X c #C5B1A4",
"9X c #CDB3A3",
"0X c #C5B2AB",
"qX c #CCB3AB",
"wX c #CAB9AC",
"eX c #D2B4A4",
"rX c #D2B4AC",
"tX c #D5BBA8",
"yX c #D4BAAC",
"uX c #CDB9B1",
"iX c #D3BCB3",
"pX c #D8BAB4",
"aX c #D8C2B6",
"sX c #DEC7C2",
"dX c #E8CCC0",
/* pixels */
"@ @ % @ O O # @ $ % $ $ $ O # # $ $ $ $ < $ $ $ # X # # # $ $ $ < $ $ $ $ $ # # # # # $ $ $ $ $ $ $ $ @ - - = @ @ - @ @ @ + X + ",
"O O + O O X # O $ @ # # # # $ # X # $ # $ $ # # $ < $ < < w < 1 $ $ $ $ # # # # $ $ $ $ $ $ $ $ $ # @ o @ @ @ X @ @ @ O X X . . ",
"8 8 0 0 8 0 e j e e e l k l l V B B F F H L H H k l k v l l l B e e w e w w 1 w w < $ w $ $ # # 5 , , , , , , > > > @ - @ @ o @ ",
"n M C C C V G H H ^ ^ } | X.%.%.;.,.w.p.f.j.f.j.j.f.f.f.f.f.f.f.r.f.w.w.>.>.;.&.X.| | ~ ( ~ H H M M M l M M j j j s j a 0 a 0 0 ",
"n M G C N G G R { ( | #.%.>.w.w.p.h.h.n.n.n.h.T.C.C.T.C.T.T.T.T.C.C.M.M.M.M.k.k.k.k.j.f.w.1.,.;.} ] Q ] W W P K F F A N A M v M ",
"M N N G F C G H ^ { | %.>.w.r.w.h.n.m.V.T.T.T.T.B.B.B.V.C.C.C.C.C.M.M.M.k.k.k.k.k.h.f.w.1.;.%.%.| | { { { { Q P K G G G A N A M ",
"G T T T G G G H ^ ^ ^ | %.;.>.w.n.n.n.T.m.T.T.T.C.T.T.R.E.W.W.Q.E.C.C.C.C.M.b.M.n.k.h.f.w.1.<.,.| { { W ] W P G G F F F F N M M ",
"C C T G N N C C V V H ~ ( ( #.#.=.<.p.p.p.p.p.p.w.f.f.h.n.M.M.B.M.C.M.M.k.k.f.r.a.w.1.1.,.=.=.X...{ Q W Q W K G K H F G F F A A ",
"G m R N T R N C V M F H W ^ | X...=.=.=.p.p.,.,.p.p.h.' p.p.T.^.Q.1.X.X.=.;.=.,.X. . .P L ' { X.W W K K H K G F M W W M F F M j ",
"T m R G T R N C / / } o.%.*.9.e.a.h.h.n.n.T.T.T.T.T.~.T.T.B.^.^.%XM.k.f.j.n.p.p.h.h.p.p.p.,.=. ...{ ^ Q Q W P K v W P A F G v v ",
"T N Y S G Q M C Q / } | %.>.9.e.m.V.T.T.T.T.T.~.T.T.Q.T.T.T.~.~.^.h.f.k.n.T.M.M.n.h.a.f.k.f.<.X.#.| { { ] Q W G v W K N V S b x ",
"T m T N T R m S H R W Q o.#.:.>.h.n.B.V.T.T.T.~.$XT.Q.h.h.p.T.T.W.f.k.k.k.V.V.E.M.f.p.p.p.p.<.=.....Q W P P F N b W K M N A j j ",
"Y m T N N R N G T W Q / o.#.%.>.,.p.h.k.n.m.m.T.T.h.p.'  .' p.h.~ B ~ P L ;.p.V.m.n.k.f.;.=.X.X.{ ] W P G F S v x K K v M A j j ",
"T m S m m T m S R T W W / } o.#.=.;.,.a.a.a.p.p.=.' ' & 2           o X   > k P ~ X.;.1.;.X.{ { { ^ W R H H S M j R G n v M j h ",
"Y b S b m T m N G T G T H W Q { =...=.;.p.=.' Z     & & p * p 4 f < w ;   o   X X > c P { { { ~ ] W K H K H F A j G G v v M j a ",
"S b m t b S b N R R R R R W Q Q ..] '  ...' a & u ; z & p X ;   #   > ; < k 1 = X X > h P X.{ ~ P H G G F G V N s H F j n n h r ",
"N m C r n T q n T T C ( C T T ( n ) W S K h = 5 ; < ; ; ; & ; 2 & X * = 3 @ @ O X @ . . a ]  .G G G T T T G N N v b n B l j e 0 ",
"C m m q n T r m T C T T T C T T T C Q Q s O @ 0 o $ 4 4 ; o & o 3 = @ @ % O O O + , - @ = z J P S C T T T G N M j j n v l r e 1 ",
"n n C r n T t N U C C T C C C T T n R G @ O 0 , $ 8 r r 0 0 8 9 q q q b b r 7 7 O O @ @ X - v { G S T T T G G N j j n n l r 0 1 ",
"n n m r n T t C T C T C C U C C C C V 0 % n n @ r r y y r t m E m U ! 4.q.4.) E t Z.% 0 @ * f H S G T R T G G N j n M M n r e 1 ",
"n n n r n R t C T C T T T C N N V H r % e r 8 t ` ` E y y U ` ` 2.2.S.H.H.G.S.q.4.n A.l 8 < 1 w C C T R T T G N r l V V V j e 1 ",
"r t m 8 n R n T R C T C N C C C V H e e r O % q.Y.L.S.u.4.4.S.H.H.H.H.K.I.H.A.F.Z.U y N e < w < N G T R W R T S l n V V V l e 1 ",
"r t n e N R n T R R T T T C C N V V t e 8 r 4.}.2X>X=X=XU.U.Y.Y.=X).U.).A.U.I.Z.Z.@.&.#.e # 0 0 G G T R R W T T j M C H G n r e ",
"r r y r m R m T E T E T T T T C V V n % O r.#XwX>X2X2XtX2X=X>XoX:X:X:X<X2X;XZ.Z.Z.P. XL.V @ h v N G T R W T T K n M G H H V e e ",
"r r b N T R E E / Q Q R R T T T ( B V . 9 !.4XP.}.I.`.}.Y.2XtX>X=X:X2X9X>X].Z.Z.Z.J.A.%XJ.H @ h W W R Q R R W R C C H R H G l e ",
"r b n n N C C C R T T T T T R R ( ^ j O O.!.J.G.F.q.i.H.L.L.Y.oXeX7X>XU.L.Z.Z.A.Z.x.F.!.*X9.. a Y R R R R R R R C G H H R V r w ",
"b b n N C C T C N C N C C T R R j | *.G ! 5.0. X@X/.P.Y.Y.Y.Y.Y.U.Y.].U.P.Z.A.A.A.Z.P.J.%Xs.. b [ Q Q Q [ Q ^ / R R W ^ ^ V j e ",
"r t n C R R E / R T R T R R Q / %.G o.o.$.J./._.I.I.H.u.L.Y.Y.S.S.F.L.P.Z.A.A.A.A.Z.'.P.0.! q s o.O.#.o.o.o.o.o.^ ^ ^ ^ ^ G j 1 ",
"r t m C R / / / ) / / / / / / o.:.} &.#.x.@X4X.XI./.H.S.F.Y.L.` P.F.S.G.Z.A.A.A.A.Z.'.OXb.g.7.E #.O.o.#.O.o.#.O.} / } } ^ G l e ",
"r b n m C C C C E R T T T T T R l 7.r.( F.@X'.6X1X,XoX}.oXP.L.I.eXH.S.H.Z.Z.Z.Z.Z.Z. X#X&X'.8.3.o.) o.} } o.} o.} | | | ^ H l e ",
"j b b M m C C C C C N C C C T G ( | n y !.aX}.}.).U.I.].U.P.L.Y.eX].H.G.I.].].Y.+X#X`.!.#XL.y _ ) [ Q o.} / } / | } | #.( ^ V r ",
"q r n n G R E / R E Q Q ) o.@.@.&.( ( _ F.wXaXdX5XeX=X].2X2X=X=XXX<X=XK.K.].{.`.Y.oX#X&X&XL.m ) o.o.o.o.o.o.o.o.} | | | | ^ V l ",
"e j e n ( H l C R H R R Q / ) _ ( &.&.` b.@XaXaXaXtXtX2X2X2X:X-X<X<X-X-XXXXX-X;X9X4X1XwX&Xu.E 3.*.$.$.#.#.$.#.$.#.%.| } #.} v e ",
"e r e n ( H t H R E R R E ( ) _ _ &.&.&.z. XuXaXtXtXeX2X:X=X=X=X<X,X_._._.XX5XyX1X5X0XwX Xu.@.8.*.:.$.$.$.%.:.5.%.:.#.| %.| V r ",
"e j e l ^ G r C R ( R / / ( _ _ _ _ 7.7.r.P.uXiXaXtXtXeX2X:X<X<X<X-X_._.[.XX5XqX4X0XuX0XL.t.8.8.9.5.5.5.>.5.5.7.$.5.-.#.%.#.V j ",
"e j w t ^ G r G R T R E / ) _ +.&._ 8.e.:.L.0XaXaXaXtXeXeX7X7X7X<X,X-X,XXX,X,X1XqXqXpX@Xx.8.u.0.9.9.9.5.5.7.9.9.:.9.:.#.:.| G l ",
"j l e j ^ G r G ( ( R / / ) @.$.7.&.>.8.$.D.&XsXdXaXtX7X7X<X<X7X<X<X,X,X6X6X6X4XrXuXuX'.6.6.l.6.9.9.5.6.5.5.9.0.*.>.%.#.:.#.V k ",
"l V e l ^ V r H E R R / ( _ +.@.&.&.*.*.5.0.!.pXtXtXeX<X-X_._._._.=XR.(._..X6XqXuXqX.XJ.6.6.l.6.0.0.9.9.9.9.9.9.:.9.*.X.:.#.H l ",
"B V r l ^ G r T / E / ( ) +.+.*.@.5.*.5.8.5.l.XXrX9X3X<X=X=X=X_.R._.I.I./.[.#X6X6X*X!.0.s.l.s.0.0.0.0.0.9.9.0.0.>.e.>.&.>.&.H l ",
"V V j l ( H t R / / / / ) +.@.@.o.7.3.*.d.@.O.!.qX7X3X<X<X<X-X-X=X-XXX;X,X,X4X4X#X.XF.3.d.v.0.g.s.0.0.0.s.0.s.f.9.t.7.%.w.:.H V ",
"n V n V H G V T ^ _ $.&.*.&.*._ 3.3.#.&.$.3.8.` P.1XeX:X2X3X{.I.).R.=X=XoX;X+X#X'.@XL.v.l.6.l.g.v.c.c.g.g.t.g.g.9.7.7.1.7.%.^ H ",
"V V V G ^ H V ( E | $.#.&.3.&.&.&.&.8.z.x.8.8.q.u.}.eX2X7X3X<X=X_.=X=X<X;XoX].`.#XoXi.8.c.F.J.l.g.g.0.0.t.g.g.z.9.9.>.7.>.%.^ H ",
"V H V H ^ R C / $.&.:.3.5.8.7.3.&.&.&.*.7.y.q.y.` P.2X9X2X<X;X;X=X=X=X=XoX].Y.Y.8X4XL.y.l.l.N.c.c.c.l.g.g.z.j.z.9.7.1.1.>.%./ H ",
"V F G H } R H ( &.:.3.&.&.8.7.&.r.r.r./ *.v.8.4.u.`.9X9X:X|.{.{.=X=XK.).Y.}.oX#X#X0X'.b.x.c.c.l.c.c.c.c.c.c.c.c.t.9.7.7.w.:.} ^ ",
"V G C H / ^ H ( / $.&.#.&.r.r.8.r.r.N.g.z.g.$.y.'.&XyX9X6XXX_._.U.U.U.U.].oX1X9X&X&X!.z.u.C.N.v.0.g.g.l.g.c.z.z.t.9.>.9.>.>.| ^ ",
"V F G H } ^ R } $.&.:.6.r.t.u.r.k.%.r.>.#.N n !.&XaXaXwXrXqX6X,X{.=X+X+X1X1X4X4X#XaX@X8.T o.a.J.v.v.v.c.z.z.g.g.t.e.9.>.7.>.X.( ",
"V H H W | / ^ +.*.9.r.7.6.6.3.&.( k J j a 9 8 J.&XuXiXiXpXpX7XpX<X1X3X5X9X9X1X&X&X0X XT O 9 v O.0.t.g.g.z.g.g.g.g.e.9.>.9.>.%.| ",
"G H H ^ #.} / %.*.:.*.+.^ G l 1   # j @ h W 1 G OX0XuXuXpXrX7XpXeX7X3X1X1X#X4X8X&X!.%.. + A @   M S W #.>.f.z.c.g.t.9.7.1.>.%.| ",
"R T } -.#.#.#.[ W A h > X & 2 5 s u s Z u u v V n J.uXsXpXrXrX7X3X1X1X1X4X&X#X.XJ.R + , x s p z > * X o 5 F X.1.9.s.s.a.9.9.-.[ ",
"} W [ [ F V A z p 3 p 2 u i x Z z u z x u u c l < R v.'.0XaXpXpX9X#X}.#X4X XF.$.V 8 , a p = ; g Z v h 2 > > 5 a a J -.a.h.s.-.] ",
"X.P H A e 5 5 ; ; 2 p p p i g z x u u z a f h w e w j W y.!.#XwX4X8X0X*XP.*.m % @ , a k p 2 u Z 5 5 5 5 5 5 5 5 > a v K [ -.-...",
"~ V v k 4 5 f 5 p g g p p i i u Z g u u h g w 4 B e < 1 e G >.b.J.L.P.x./ q - - r h a 3 u p z g p f f p f a p 5 z a 3 = a S [ [ ",
"B f w w < w c k 4 p p p i i p z Z u u u z z u u w k B l w < w r v j 9 9 0 j j a x h 2 o ; p p u c k h f f 5 p 5 h a h 5 u s z p ",
"w w 4 w : 4 g 5 p 4 5 3 u p p Z Z u u u Z x u z 4 w h c l k w w 3 1 5 3 2 3 p p 2 5 a u 3 p a p p 4 4 4 w f k v p h h 5 a a 5 = ",
"w < 5 g w w f > f h p p 3 u p a z z u u Z z u Z p h h 5 f B D c z J ' D i & ; i p p x x z f h z k k g f 5 4 4 4 h h 5 5 5 h h a ",
"< 2 g v h f h 5 2 5 p p p p p g g Z u u Z z s Z > v A h w g k w f i 4 i z Z z p D h p g f p 5 f h h z k h g w 4 4 f g h h z h 2 ",
"5 2 f z p 5 h i 5 5 w g g k g g u g z g g z Z Z x z J p 2 h 2 h g g f f f 4 w : c k g w w h h h h h h h h f f f f f f h h k h k ",
"2 2 p k 5 f g f c g g w < < w g g Z z i u u u u A u s p z Z u h p f f g f g g g k j h f w e w e 5 h p p p 5 5 5 > 4 4 5 f g k k ",
"4 4 g g i f z g f g f w < < w c u p u u u u g g p p ' D a 2 2 Z i 5 w w 5 5 w 5 k k c x k k j h k k k h h h h a v v c c k k z g ",
"i i g g : f g g w w g g k g g B z z Z x z u u u Z p i f x Z u * 5 4 4 5 w w w w 5 5 5 a e w 5 1 a a a a a 5 p p 4 4 5 5 f h g k ",
"i : g g u i z h z a s d k l j r 6 u u s a 2 ; 2 i D ' Z x x Z z 3 3 5 a h x v v a x Z Z Z Z x x M v v x v v x x h h h h g g p f ",
"i : i g 2 u z a x s 6 6 w % 6 6 d d d ] S x z Z & z Z g u ; z p 5 a 9 5 1 , 3 , s s z x x x x x s z x s a a a a x c c z h h h h ",
"i : : g 2 u s s 6 d Y Y I I d I I d 6 6 + .   = ,.D & g J z 2 . a q 9 3 , 2 > - = - 2 = 2 3 u u 3 9 9 3 , , 3 > o = ; 4 5 f h c ",
"i : : i u u s s 6 [ D.G.D.2.2.2.D.d.d.d.N.G.Q.%X$X%X%X%Xn.9 ] V.2 9 s s m A S K ] ] ' ' ' ' [ [ [ ..........{  .-.X. .P F v h f "
};
