/* XPM */
static char *result[] = {
/* columns rows colors chars-per-pixel */
"64 64 225 2 ",
"   c #020103",
".  c #0B0404",
"X  c #0A0908",
"o  c #0C0B0B",
"O  c #120A06",
"+  c #150809",
"@  c #130D0B",
"#  c #0F100A",
"$  c #12130C",
"%  c #1A120E",
"&  c #070C10",
"*  c #0D0D12",
"=  c #130E12",
"-  c #180F10",
";  c #0E1114",
":  c #0D181C",
">  c #141314",
",  c #1A1415",
"<  c #141915",
"1  c #1C1B16",
"2  c #15151A",
"3  c #1B161A",
"4  c #161A1C",
"5  c #1B1C1D",
"6  c #270D16",
"7  c #291313",
"8  c #231A16",
"9  c #241618",
"0  c #231D1B",
"q  c #291E1B",
"w  c #1C211E",
"e  c #24221D",
"r  c #2C231E",
"t  c #32241D",
"y  c #39271D",
"u  c #181720",
"i  c #151C21",
"p  c #1C1D22",
"a  c #221E22",
"s  c #2A1C23",
"d  c #391C27",
"f  c #1D2223",
"g  c #1C2428",
"h  c #232324",
"j  c #2B2523",
"k  c #252926",
"l  c #2D2925",
"z  c #24252A",
"x  c #29252A",
"c  c #25292B",
"v  c #2B2A2B",
"b  c #322523",
"n  c #342A26",
"m  c #392826",
"M  c #332D2B",
"N  c #392E2B",
"B  c #2C312F",
"V  c #35312D",
"C  c #3B322E",
"Z  c #2B2B32",
"A  c #332D32",
"S  c #3A2E35",
"D  c #2E3133",
"F  c #353232",
"G  c #3C3532",
"H  c #3D3935",
"J  c #36353A",
"K  c #3B353B",
"L  c #33383C",
"P  c #3C3A3B",
"I  c #441B28",
"U  c #452A27",
"Y  c #482E35",
"T  c #413633",
"R  c #433A36",
"E  c #4B3B33",
"W  c #443C3B",
"Q  c #493E3B",
"!  c #563B3A",
"~  c #3D403E",
"^  c #46413D",
"/  c #4B423C",
"(  c #4A4839",
")  c #52463D",
"_  c #524A3E",
"`  c #604B3E",
"'  c #3D3C41",
"]  c #423D41",
"[  c #463F43",
"{  c #454244",
"}  c #4B4442",
"|  c #4D4945",
" . c #47434A",
".. c #4C464B",
"X. c #4C4A4B",
"o. c #514644",
"O. c #574747",
"+. c #544B45",
"@. c #5A4C43",
"#. c #534D4A",
"$. c #5A4E4A",
"%. c #56524D",
"&. c #5B5548",
"*. c #5C534C",
"=. c #4D4D51",
"-. c #534E51",
";. c #545455",
":. c #5B5551",
">. c #5D5956",
",. c #56555A",
"<. c #58575D",
"1. c #5C5B5B",
"2. c #724C4D",
"3. c #62544D",
"4. c #69564A",
"5. c #635553",
"6. c #685654",
"7. c #635A55",
"8. c #6B5C55",
"9. c #645C5A",
"0. c #6A5D5B",
"q. c #735D55",
"w. c #5F605C",
"e. c #63615E",
"r. c #68655A",
"t. c #6B615E",
"y. c #72625B",
"u. c #7A6659",
"i. c #7F705B",
"p. c #5D5C61",
"a. c #615F64",
"s. c #6C5F60",
"d. c #7F5867",
"f. c #646364",
"g. c #6D6361",
"h. c #65646A",
"j. c #696769",
"k. c #6B6A6C",
"l. c #726663",
"z. c #746965",
"x. c #7A6A64",
"c. c #756B69",
"v. c #7A6D6A",
"b. c #7C736C",
"n. c #6D6C72",
"m. c #706F75",
"M. c #737274",
"N. c #7B7473",
"B. c #75747A",
"V. c #79777C",
"C. c #7B7B7D",
"Z. c red",
"A. c #FF7300",
"S. c #816358",
"D. c #835C69",
"F. c #887569",
"G. c #8D706F",
"H. c #96796B",
"J. c #887A75",
"K. c #A27E73",
"L. c #908071",
"P. c #998579",
"I. c #A4867B",
"U. c #AB8C7D",
"Y. c #A5927D",
"T. c #7D7C82",
"R. c #807F86",
"E. c #828185",
"W. c #85848A",
"Q. c #89888E",
"!. c #998A86",
"~. c #8D8C92",
"^. c #949399",
"/. c #A58A84",
"(. c #AC8C83",
"). c #B48E83",
"_. c #B48E8A",
"`. c #AB9484",
"'. c #A79489",
"]. c #B29384",
"[. c #B4948A",
"{. c #B89689",
"}. c #B59B8B",
"|. c #BC9D8D",
" X c #AB9B92",
".X c #B69D96",
"XX c #BD9C92",
"oX c #B8A08D",
"OX c #AEA09C",
"+X c #BDA394",
"@X c #B4A39B",
"#X c #BBA69A",
"$X c #9C9BA1",
"%X c #A9A5A8",
"&X c #BEADA2",
"*X c #BAA8A5",
"=X c #C19C8E",
"-X c #C29D98",
";X c #C3A495",
":X c #C9A696",
">X c #C7A996",
",X c #C5A49C",
"<X c #C9A39C",
"1X c #C4AB9D",
"2X c #CCAD9A",
"3X c #CCAC9D",
"4X c #C4ADA2",
"5X c #CAACA2",
"6X c #CAA8A4",
"7X c #D3AEA6",
"8X c #C5B1A4",
"9X c #CDB3A3",
"0X c #C5B2AB",
"qX c #CCB3AB",
"wX c #CAB9AC",
"eX c #D2B4A4",
"rX c #D2B4AC",
"tX c #D5BBA8",
"yX c #D4BAAC",
"uX c #CDB9B1",
"iX c #D3BCB3",
"pX c #D8BAB4",
"aX c #D8C2B6",
"sX c #DEC7C2",
"dX c #E8CCC0",
/* pixels */
"@ @ % @ O O # @ $ % $ $ $ O # # $ $ < < $ $ $ # # # # # $ $ $ $ < $ $ $ $ $ # # # # # $ $ $ # $ < $ $ @ = = @ o = - @ @ @ @ X + ",
"O O + O O X # O $ @ # # # # $ # . # # # > $ # # < # $ < < < w % < $ $ $ # # # # $ $ $ $ $ $ $ $ $ # o O @ @ @ + @ @ @ O X . . . ",
"8 8 0 0 8 0 e j e e e l k l l V B B D F H H H L l l k v B k l k e e e w w w 1 1 w < < < $ # # # 1 , , , , , , = , - @ - = + o @ ",
"n M C C C V G H H ^ ^ } | X.%.%.;.>.w.a.f.f.f.j.f.f.f.f.f.f.j.f.r.w.w.w.>.>.:.>.X.| | { ( ~ H H A M M l M M l j j h j a 0 a 0 0 ",
"n M G C N G G R { ( | #.%.>.w.w.p.h.k.n.n.n.h.T.C.C.C.C.T.T.T.E.C.C.M.M.M.M.k.k.k.k.j.f.w.1.>.;.} { W W ] W P H G S F M M M M v ",
"M N N G F C G H ^ { | %.>.w.r.w.h.n.n.B.T.T.T.T.B.V.V.V.C.C.C.C.b.M.M.M.k.k.k.r.j.j.f.w.1.;.=.=.| } } { { { Q W G H F F A A M M ",
"G T T T G G G H ^ ^ ^ | %.;.>.w.h.n.n.T.m.T.T.T.V.V.T.R.E.W.W.Q.E.E.C.C.C.M.M.M.n.k.k.f.w.p.1.>.| } { ] Q W W K F G G A F A A M ",
"C C T G N N C C V V H ~ ( ( #.#.,.<.p.p.p.p.p.p.f.f.h.h.n.m.M.B.C.M.M.M.k.k.f.j.w.p.1.1.;.=.=.X. .{ Q W W P K F K G G G F G M A ",
"G m R N T R N C V M F H W ^ | X. .=.=.,.p.p.,.,.p.p.h.' p.p.W.~.~.;.=.X.X.,.=.;. .X. .P L P  .X.W P H K H K G G v Q W A S G l l ",
"T m R G T R N C / / } o.%.*.9.e.a.h.h.n.h.T.T.T.T.T.~.T.W.B.~.^.%XM.k.f.h.n.p.f.h.h.p.p.p.,.X. . .} { Q Q W P K v W R A F F x l ",
"T N Y S G Q M C Q / } | %.>.9.e.M.V.T.T.T.T.T.~.T.T.Q.T.T.m.~.~.^.h.f.k.n.T.M.M.n.h.a.h.k.h.<.X.#...{ { [ W W F l ] W M M S n x ",
"T m T N T R m S H R W Q o.#.:.>.h.n.B.V.T.T.T.~.$XT.Q.h.n.p.T.T.W.f.k.k.k.V.V.E.M.h.p.<.p.p.,.=...| W W W K G A l W K v A A l j ",
"Y m T N N R N G T W Q / o.#.%.>.,.p.h.k.n.n.m.B.T.h.p.'  .' p.h.~ B ~ ' L ;.a.V.n.n.k.f.,.=.X.X.} Q P P H G M v j K K x M A j j ",
"T m S m m T m S R T W W / } o.#.-.;.<.p.h.h.p.p.=.' ' & 2           o X   < k P ~ X.;.1.;.X.{ { { [ W H K G F M j R H n M M j a ",
"Y b S b m T m N G T G T H W Q { X.X.=.-.p.=.' Z     & & p * p 4 f < w #   o . X X < k P { X.{ ~ [ W K H G K G M j K K j l M j a ",
"S b m t b S b N R R R R R W Q Q  .[ '  ...' a & u 2 g * p X >   #   < ; > k 4 o X X = h P { { ~ K H G G G G F M s H F l n v j r ",
"N m C r n T q n T T C ( C T T ( n ) W S K h = 5 # < < ; & & ; 4 & X * , , > @ O . @ .   5 ]  .K G C T T T S N M n v M l l j e e ",
"C m m q n T r m T C T T T C T T T C Q Q s O @ 0 # $ 2 4 < & o o 3 > o @ @ + O O + , , + , x K P S T T T T G N M j b l n l j e 1 ",
"n n C r n T t N U C C T C C C T T n R G @ O 0 , $ 1 e q 0 9 3 8 q q 0 t m r 7 7 O + - @ X = k { S G H T T G G N j j n l l j 0 1 ",
"n n m r n T t C T C T C C U C C C C V 0 % n n @ r t y y t t N Y m U ! 2.q.4.) E y % % 8 = o w H N T T T T H C N j n n V n r 0 1 ",
"n n n r n R t C T C T T T C N N V H r % e r 8 t ` ( E U y U ` ` 2.2.S.H.H.G.S.q.4.n r t 8 < 1 w G G R R T K G C r l M V V l e 1 ",
"r t m 8 n R n T R C T C N C C C H V e e r O % q.Y.P.S.S.4.4.S.H.H.H.H.K.I.H.A.F.Z.U t V e < w < C S T R R R T G l n V V V l e 8 ",
"r t n e N R n T R R T T T C C N H V r e 7 r 4.}.2X>X=X=XU.U.Y.Y.=X).U.).A.U.I.Z.Z.` &.@.e $ 5 e C C T R R Y K H b M C H H l e e ",
"r r y r m R m T E T E T T T T C V V V % O r.#XwX>X2X2XtX2X=X>XoX:X:X:X:X2X+XZ.Z.Z.!. XL.V @ h x N G T R R W T T n M H H H V r 8 ",
"r r b N T R E E / Q Q R R T T T H B V . 6 !.4XP.}.I.`.}.Y.2XtX>X=X:X2XeX>X].Z.Z.Z.J.A.%XJ.G @ j W W Q Q R R W R V C H H T V l e ",
"r b n n N C C C R T T T T T R R ( ( r O O.!.J.G.F.q.S.L.L.L.Y.oXeX7X>XU.L.Z.Z.A.Z.F.F.!.*X9.  q Y R R R R W R W G G H W W V r e ",
"b b n N C C T C N C N C C T R R j | *.G [ 6.q. X@XY.I.Y.Y.Y.Y.Y.U.].Y.U.P.Z.A.A.A.Z.!.J.%Xs.. m [ Q Q Q Q [ / Q R R W ^ ~ V j w ",
"r t n C R R E / R T R T R R Q / %.H o.o.$.G./. XI.P.H.u.L.Y.Y.S.S.F.L.P.Z.A.A.A.A.Z.!.P.8.Q s s o.o.o.o.o.o.o.o.W ^ ^ ^ ^ G r 8 ",
"r t m C R / / / ) / / / / / / o.:.} &.#.x.@X4X.XI./.H.u.F.Y.L.` P.F.S.G.Z.A.A.A.A.Z.'..Xb.t.7.Q #.o.O.O.O.o.#.o.} } } | ( H l 8 ",
"r b n m C C C C E R T T T T T R l 7.r.( J..X(.4X5X,X;XoX}.P.L.I.eXH.S.H.Z.Z.Z.Z.Z.Z. X@X&X'.8.*.o.) o.} / o.} o.} } | | ^ H M e ",
"j b b M m C C C C C N C C C T G ( | n y P.aX.X}.(.U.I.U.U.I.L.Y.eX].H.G.I.].].Y.oX#X'.Y.#XL.y _ ) Q } o.} } } / o.} | | ( ~ V j ",
"q r n n G R E / R E Q Q ) o.@.@.&.( ( _ F.wXaXdX9XeX=X].2X>X=X=XXX<X=XK.K.].{.`.Y.oX@X&X0XL.m ) o.o.o.o.o.o.o.+.} } | +.| ^ V l ",
"e j e V ( H t H R T R R / / ) _ ( &.&._ b.@XaXaXaXtXtXeX2X2X:X<X<X<X-XXXXXXXXX,X1X9X1XwX&Xu.E 3.*.$.#.O.O.#.-.$.O.:.#.} X./ M e ",
"e r 0 n ( H r C R C ( E E / ) _ _ ` 3.&.z. XuXaXtXtXeX2X:X=X=X=X<X,XXX_._.-X5XyX4X4X8XwX Xu.@.8.*.:.:.$.*.*.:.:.#.:.#.| %.| V e ",
"e j 8 l ^ H r H E R ^ R / ( _ @._ _ 8.r.r.!.uXuXaXaXeXeX2X:X<X<X<X-X_._.[.XX4XrX6X0XuX0XP.t.8.8.6.5.5.5.:.5.>.7.:.9.#.| *.| V l ",
"e j e l ^ C r C G ( R E / ) _ _ &._ 3.r.3.J.&XsXaXtXtXeXeX7X7X7X<X-X-X-XXX,X,X1XqXqXpX@Xx.7.u.0.9.9.9.5.9.5.9.9.:.5.:.#.:.| H l ",
"l l e l ^ C r G ( ( E ^ / _ @.#.7.&.>.7.O.D.&XsXaXaXtX7X7X<X7X<X<X<X,X,X6X6X6X4XrXuXuX'.6.6.l.6.0.9.9.5.9.5.0.9.:.>.%.+.;.#.V l ",
"l l r l ^ C l G R R E / ) _ +.@.&.&.*.3.5.s./.iXaXtX7X:X=X_._.)._.=XR.(._..X6XqXuXqX.XJ.6.0.s.6.0.9.6.9.9.9.9.9.:.9.:.#.:.#.H l ",
"l V j l ^ C r T ^ E / ( / _ +.&.@.7.*.5.8.5.d..XiX7X3X:X=X=X_._.R._.I.I./.}.#X6X4X*X!.q.s.l.s.0.0.0.0.9.9.9.s.0.>.0.>.%.>.&.H l ",
"V V j l ( H l R / / / / ) +.@.*.o.7.*.3.l.@.@.!.5X7X3X3X<X<X<X<X=X-XXX-X,X,X1X4X#X.XF.3.d.v.0.s.s.0.0.0.0.0.0.g.9.t.>.*.1.&.~ V ",
"l F V V H C V G / _ #.$.*.&.&._ 3.3.&.$.$.3.8.@.I.>XeX>X3X2X{.I.).R.=X=X|.+X+X#X`.+XJ.x.x.7.z.s.v.c.c.g.g.t.g.g.9.>.7.1.7.%.^ H ",
"V F V G ^ H V ( W ) @.&.*.3.&.@.&.&.7.z.x.8.q.q.u.].9X3X7X3X,X=X_.=X=X=X;XoX].Y.#X@Xi.y.x.v.J.z.g.s.0.0.0.g.g.z.0.7.>.7.>.%.^ H ",
"V G F H ^ W C / +.*.*.*.7.8.7.3.&.&.&.*.7.y.q.y._ I.9X9X3X<X;X<X=X=X<X=XoX}.Y.Y.&X8XL.y.l.z.G.c.c.c.z.g.z.j.z.k.9.>.9.1.>.%./ H ",
"V H C H / R T ( *.*.7.*.&.7.3.7.r.r.7._ *.v.8.4.u.`.9X9X:X|.].{.).=XK.).Y.}.oX#X#X8X'.b.z.c.c.l.c.c.c.c.z.x.x.c.e.0.>.7.>.:.} ^ ",
"V V V W } ^ H / | @.*.&.&.7.r.r.r.r.b.g.z.l.#.y.'.0XuX9X6XXX_._.U.U.U.U.`.oX1X9X1X&X!.x.z.J.N.m.g.g.g.l.z.z.j.c.t.7.1.7.w.>.| ^ ",
"V H C H { ^ R _ O.&.*.7.r.z.y.y.z.%.f.7.#.M n !.&XaXiXtXrXrX6X-X=X=X+X;X1X1X1X8X#XaX@X7.T } 9.J.v.c.v.c.z.l.g.t.g.e.9.>.7.>.X.( ",
"V H G W | / ( +.5.7.r.7.7.8.&.&.~ B H h 0 0 8 J.*XiXiXwXpXpXrXpX<X3X5X5X9X1X4X&X&X&XOXR + 9 x O.s.s.g.l.z.g.g.g.g.e.9.>.9.>.%.| ",
"G H P ^ #.} ^ #.*.:.*.+.^ C t 1   # x o h W 9 C  X0XuXiXpXiX7XpXeXeX1X1X1X1X4X8X&X!.&.X @ M =   l N W #.>.f.z.c.g.t.9.7.1.>.%.| ",
"R R o.#.#.O.#.{ W A h > o & 2 u s u z Z u u v M M J.wXsXpXrXrX6X3X1X1X4X4X&X#X.XJ.R + , x s p z > o o o 5 A | 1.9.a.s.a.5.a.-.[ ",
"{ W [ [ F M A z 5 u u 4 2 p z Z z u s x u u k k , ^ v.'.0XaXpXpX9X#XXX#X4X XF.@.V 8 , a p * 2 z Z Z p 2 > > 5 a a K -.a.j.s.-.] ",
"X.P H A h 5 5 < 2 4 p p p p g c Z u u z a 5 h f e w e W y.!.&X8X4X8X0X@XP.:.m % @ , a x p ; u z 5 5 5 5 5 5 5 p > a x K [ -.-.O.",
"~ F l k < 4 g 5 p p g p i i i u Z u u u z g w w B h 1 1 e C 7.b.J.L.P.x./ q - - h j a 4 u a z g p f f f f h 5 5 x a 5 = u A [ [ ",
"B f f w < w c k 5 i p p u p p z Z u u u z z p u w k v B w < w e v j 9 9 a j j a j a 4 * ; a p u c c k g p 5 5 5 h h a 5 a z a p ",
"f 4 4 5 : w f 5 5 5 5 4 i p a c z z u u Z z p p < w k c l k w w 5 3 1 2 > 3 p p > p a u 4 p a p 5 5 4 4 5 f c v 5 h h p a s p = ",
"w < 5 k 4 w w 2 p h f 5 u u u a z z u u Z z u Z p h a 4 w B D B c D ' D i & ; i p a x Z z p g k k k g p p 4 4 4 h h 5 4 5 h h p ",
"< 4 g k h h h 4 4 5 p p p p p z z z u u Z x s Z , v A h w k k 4 g i 2 p z Z k p Z g p p h 5 5 f h h k k h f w 4 5 f h g h k h 3 ",
"4 4 p k p p k f 5 p w g f g w g i g z g g z Z x Z s J a > h 2 z g g f g f : w : c c g f w e h k h h h h f h f p p f f h h h k g ",
"4 2 p k i p g i c g g w < i g k g Z z u u u g u Z u a p z Z 4 h p f f f f g g k k h h w h w w e f f p a p 5 5 5 < 4 4 w f h c c ",
"u 2 g c i f c g w f g w < : w g u i u u u u g g p a L L a u 2 Z p 5 w w w 5 w 5 j k x k k j h h k h h h k h h g v c v c c k h k ",
"i : f g 4 i g g 4 f g k k g k B z z Z x z u u u c p p p Z z u = 4 5 4 5 5 w 5 w 5 5 f a e w 5 1 a a a a a 5 0 p 2 4 4 p f g h g ",
"i : g g u i z a z a s s k r k e 6 u u s s 2 ; 2 i D ' Z z Z Z a 3 3 5 p h j k v z z Z Z v Z x x M Z x x x x x x k h h g h f f f ",
"i : i g : u z a x s 6 6 1 7 6 7 d d d ] S z a Z & c Z g u = z p 0 a 0 9 1 3 3 3 s s s x x x x x j s s j a a h a x x k h h h h f ",
"i : i g 2 u s s 6 d Y Y I I I I I d 6 s - . . = ,.D & g K z 3   a 9 9 3 3 - , = = - 2 = > u u u 3 3 3 3 , , 3 > * = > 4 p h k c ",
": : i : 2 u s d 6 [ D.G.D.2.2.2.D.d.d.d.D.N.Q.%X$X%X%X%Xn.u ] V.3 9 a s m A K K ] ] ' ' ' ' [ [ ....O..... . .{ -.X. .P F k h p "
};
