/* XPM */
static char *result[] = {
/* columns rows colors chars-per-pixel */
"64 64 224 2 ",
"   c #020103",
".  c #0B0404",
"X  c #0A0908",
"o  c #0C0B0B",
"O  c #120A06",
"+  c #150809",
"@  c #130D0B",
"#  c #0F100A",
"$  c #12130C",
"%  c #1A120E",
"&  c #070C10",
"*  c #0D0D12",
"=  c #130E12",
"-  c #180F10",
";  c #0E1114",
":  c #0D181C",
">  c #141314",
",  c #1A1415",
"<  c #141915",
"1  c #1C1B16",
"2  c #15151A",
"3  c #1B161A",
"4  c #161A1C",
"5  c #1B1C1D",
"6  c #270D16",
"7  c #291313",
"8  c #231A16",
"9  c #241618",
"0  c #231D1B",
"q  c #291E1B",
"w  c #1C211E",
"e  c #24221D",
"r  c #2C231E",
"t  c #32241D",
"y  c #39271D",
"u  c #181720",
"i  c #151C21",
"p  c #1C1D22",
"a  c #221E22",
"s  c #2A1C23",
"d  c #391C27",
"f  c #1D2223",
"g  c #1C2428",
"h  c #232324",
"j  c #2B2523",
"k  c #252926",
"l  c #2D2925",
"z  c #24252A",
"x  c #29252A",
"c  c #25292B",
"v  c #2B2A2B",
"b  c #322523",
"n  c #342A26",
"m  c #392826",
"M  c #332D2B",
"N  c #392E2B",
"B  c #2C312F",
"V  c #35312D",
"C  c #3B322E",
"Z  c #2B2B32",
"A  c #332D32",
"S  c #3A2E35",
"D  c #2E3133",
"F  c #353232",
"G  c #3C3532",
"H  c #3D3935",
"J  c #36353A",
"K  c #3B353B",
"L  c #33383C",
"P  c #3C3A3B",
"I  c #441B28",
"U  c #452A27",
"Y  c #482E35",
"T  c #413633",
"R  c #433A36",
"E  c #4B3B33",
"W  c #443C3B",
"Q  c #493E3B",
"!  c #563B3A",
"~  c #3D403E",
"^  c #46413D",
"/  c #4B423C",
"(  c #4A4839",
")  c #52463D",
"_  c #524A3E",
"`  c #604B3E",
"'  c #3D3C41",
"]  c #423D41",
"[  c #463F43",
"{  c #454244",
"}  c #4B4442",
"|  c #4D4945",
" . c #47434A",
".. c #4C464B",
"X. c #4C4A4B",
"o. c #514644",
"O. c #574747",
"+. c #544B45",
"@. c #5A4C43",
"#. c #534D4A",
"$. c #5A4E4A",
"%. c #56524D",
"&. c #5B5548",
"*. c #5C534C",
"=. c #4D4D51",
"-. c #534E51",
";. c #545455",
":. c #5B5551",
">. c #5D5956",
",. c #56555A",
"<. c #58575D",
"1. c #5C5B5B",
"2. c #724C4D",
"3. c #62544D",
"4. c #69564A",
"5. c #635553",
"6. c #685654",
"7. c #635A55",
"8. c #6B5C55",
"9. c #645C5A",
"0. c #6A5D5B",
"q. c #735D55",
"w. c #5F605C",
"e. c #63615E",
"r. c #68655A",
"t. c #6B615E",
"y. c #72625B",
"u. c #7A6659",
"i. c #5D5C61",
"p. c #615F64",
"a. c #6C5F60",
"s. c #7F5867",
"d. c #646364",
"f. c #6D6361",
"g. c #65646A",
"h. c #696769",
"j. c #6B6A6C",
"k. c #726663",
"l. c #746965",
"z. c #7A6A64",
"x. c #756B69",
"c. c #7A6D6A",
"v. c #7C736C",
"b. c #6D6C72",
"n. c #706F75",
"m. c #737274",
"M. c #7B7473",
"N. c #75747A",
"B. c #79777C",
"V. c #7B7B7D",
"C. c red",
"Z. c #FF7300",
"A. c #816358",
"S. c #835C69",
"D. c #887569",
"F. c #8D706F",
"G. c #96786B",
"H. c #887A75",
"J. c #A27E73",
"K. c #908071",
"L. c #998579",
"P. c #A4867B",
"I. c #AB8C7D",
"U. c #A5927D",
"Y. c #7D7C82",
"T. c #807F86",
"R. c #828185",
"E. c #85848A",
"W. c #89888E",
"Q. c #998A86",
"!. c #8D8C92",
"~. c #949399",
"^. c #A58A84",
"/. c #AC8C83",
"(. c #B48E83",
"). c #B48E8A",
"_. c #AB9484",
"`. c #A79489",
"'. c #B29384",
"]. c #B4948A",
"[. c #B89689",
"{. c #B59B8B",
"}. c #BC9D8D",
"|. c #AB9B92",
" X c #B69D96",
".X c #BD9C92",
"XX c #B8A08D",
"oX c #AEA09C",
"OX c #BDA394",
"+X c #B4A39B",
"@X c #BBA69A",
"#X c #9C9BA1",
"$X c #A9A5A8",
"%X c #BEADA2",
"&X c #BAA8A5",
"*X c #C19C8E",
"=X c #C29D98",
"-X c #C3A495",
";X c #C9A696",
":X c #C7A996",
">X c #C5A49C",
",X c #C9A39C",
"<X c #C4AB9D",
"1X c #CCAD9A",
"2X c #CCAC9D",
"3X c #C4ADA2",
"4X c #CAACA2",
"5X c #CAA8A4",
"6X c #D3AEA6",
"7X c #C5B1A4",
"8X c #CDB3A3",
"9X c #C5B2AB",
"0X c #CCB3AB",
"qX c #CAB9AC",
"wX c #D2B4A4",
"eX c #D2B4AC",
"rX c #D5BBA8",
"tX c #D4BAAC",
"yX c #CDB9B1",
"uX c #D3BCB3",
"iX c #D8BAB4",
"pX c #D8C2B6",
"aX c #DEC7C2",
"sX c #E8CCC0",
/* pixels */
"@ @ % @ O O # @ $ % $ $ $ O # # $ $ < $ < $ # # # # # # # $ < $ $ $ $ $ $ # # # # # # $ $ $ $ $ $ $ $ @ = @ = @ @ , @ @ @ + X + ",
"O O + O O X # O $ @ # # # # $ # . # # # $ $ # # < # > < < < < 1 $ $ $ $ # # # # $ # $ < $ $ $ $ $ $ O @ @ @ + o @ @ @ O X X . . ",
"8 8 0 0 8 0 e j e e e l k l l V B B F F H H L H k l k l l B k l r k w e w w 1 w w < < < $ $ # # 5 , , , , , , > , - @ - = @ o @ ",
"n M C C C V G H H ^ ^ } | X.%.%.;.1.1.i.d.h.d.h.h.d.d.d.d.d.h.d.r.w.w.w.>.>.>.&.X.| | | ( H H L M N v l M M j j j a j a 0 0 0 0 ",
"n M G C N G G R { ( | #.%.>.w.w.i.g.j.b.b.b.g.Y.V.V.V.V.R.V.Y.R.V.V.m.m.m.m.j.j.j.j.h.d.w.1.;.;.} [ W W ] W P P A F A M A M M v ",
"M N N G F C G H ^ { | %.>.w.r.w.g.b.n.N.Y.Y.Y.Y.N.N.N.B.V.V.V.V.m.m.m.m.j.j.j.r.j.g.w.w.1.;.%.;.| } } { { { Q P G G G G A M A M ",
"G T T T G G G H ^ ^ ^ | %.;.>.w.g.b.b.Y.Y.n.Y.Y.B.B.Y.T.R.E.E.W.K.E.V.V.V.m.m.m.j.j.h.d.p.1.1.,.X.{ ^ ] Q ] W G K G F F A M M M ",
"C C T G N N C C V V H ~ ( ( #.#.,.<.i.i.i.i.i.i.d.d.g.g.b.n.m.N.V.m.m.m.j.j.d.h.d.i.1.1.;.=.X.X. .} Q W W P K G K G G G G G A A ",
"G m R N T R N C V M F H W ^ | X...=.=.,.i.i.,.,.i.i.g.=.i.i.E.!.W.;.=.=.X.,.=.;.X. . .P L P  .X.W P H K H K H A v Q P M F G v j ",
"T m R G T R N C / / } o.%.*.9.e.p.g.g.b.g.Y.Y.Y.Y.Y.!.Y.E.N.!.~.$Xm.j.d.g.b.i.p.g.g.p.i.i.,.=. . .} [ Q W ] R G v W W A G A M v ",
"T N Y S G Q M C Q / } | %.>.9.e.m.N.Y.Y.Y.Y.Y.!.Y.Y.W.n.Y.n.!.!.~.g.d.j.n.Y.m.m.b.g.p.d.j.g.,.X.#.| { { [ Q P H v W P M G A j j ",
"T m T N T R m S H R W Q o.#.:.>.g.b.N.B.Y.Y.Y.!.#XY.W.g.b.i.Y.Y.E.g.j.j.j.B.B.R.n.g.i.<.i.1.,.;.#. .W W W K G A j W K N M N v j ",
"Y m T N N R N G T W Q / o.#.%.>.,.i.g.j.b.n.b.Y.Y.p.i.'  .' i.g.~ B { P L =.p.N.m.b.j.p.,.=.X.X.{ Q W K H G M v x W T v M M x j ",
"T m S m m T m S R T W W / } o.#.=.;.<.i.g.p.i.i.=.' ' & 2           o X   < k P ~ X.;.1.;.X.{ ~ { [ W P K G S M j K G v M A j a ",
"Y b S b m T m N G T G T H W Q { =.X...;.i.=.' Z     * & p * p 2 f < w o   o X X X < k K |  .{ ~ ] W H H K H F A j G G j v M j 0 ",
"S b m t b S b N R R R R R W Q Q  .[ '  ...' a & u ; z & p X * X #   < ; > k 3 o X X > h L |  .~ W G G G G G M M j G G v b M a j ",
"N m C r n T q n T T C ( C T T ( n ) W S K h = 5 # : < ; * & ; 2 * & o < , @ O O + @ .   0 ]  .K G G G T T S M M n v M v l l e 0 ",
"C m m q n T r m T C T T T C T T T C Q Q s O @ 0 # $ 4 2 : o * o , = @ @ = @ O O @ , - @ > x J P S G T T T G N N j b l n l r e 1 ",
"n n C r n T t N U C C T C C C T T n R G @ O 0 , O 8 r r 0 8 8 8 q 9 8 b n t 7 q O + @ @ o = k { S G T T T H N N j j n l l r 0 1 ",
"n n m r n T t C T C T C C U C C C C V 0 % n n @ r t t y r t m Y m U ! 2.q.4.) ! y % % 0 = o h H G S T R T T G C j n n V n r e 1 ",
"n n n r n R t C T C T T T C N N V H r % e r 8 t _ ( E U y U ` ` 2.2.A.G.G.F.A.q.4.m r t e $ w w N G T T R T S C r l V V V l e 1 ",
"r t m 8 n R n T R C T C N C C C H V e e r O % q.U.P.A.A.4.4.A.G.G.G.G.J.P.G.G.A.C.m y N e $ 1 < N G T R W R K G l n V V V l e 1 ",
"r t n e N R n T R R T T T C C N H V r e 7 r 4.{.:X:X:X*XI.I.U.U.*X(.(.(.Z.I.P.C.C.+.&.+.e $ 5 h G G T R T R T T j M C H G n r 0 ",
"r r y r m R m T E T E T T T T C V V V % O r.@XqX:X1X1X1X1X:X:XXX;X;X;X;X2XOXC.C.C.U.|.K.V o j j N G T R W R R S n M G H H V e e ",
"r r b N T R E E / Q Q R R T T T H B V . 6 Q.3XL.{.P._.{.U.1XrX:X*X;X1XwX:X'.C.C.C.H.Z.$XH.G @ j W Q Q R W W R R C C H R H C l e ",
"r b n n N C C C R T T T T T R R ( ( r O O.Q.H.F.D.q.A.K.K.K.U.XXwX6X-XI.K.C.C.Z.C.c.D.Q.&X0.  s Y R R R R R R W C G H H W V j e ",
"b b n N C C T C N C N C C T R R j | *.G [ 6.q.|.+XU.P.U.U.U.U.U.I.'.U.U.L.C.Z.Z.Z.C.Q.H.$Xa.. b [ Q Q Q Q [ / / R R W ^ W V e e ",
"r t n C R R E / R T R T R R Q / %.H o.o.$.F.^.|.P.L.G.u.K.U.U.A.A.D.K.L.C.Z.Z.Z.Z.C.^.L.8.Q s j o.o.o.o.o.O.o.o.^ ^ ^ ^ ^ C l 1 ",
"r t m C R / / / ) / / / / / / o.:.} &.#.z.+X3X XP.^.G.u.D.U.K.` P.D.q.G.C.Z.Z.Z.Z.C.`.|.v.t.7./ O.o.O.O.O.o.o.o./ } | ( ^ H l e ",
"r b n m C C C C E R T T T T T R l 7.r.( H. X/.3X4X>X-XXXU.P.K.P.8XG.A.G.C.C.C.C.C.C.|.+X@X`.8.*.} o.} | } o.o.} } | | | ^ H n e ",
"j b b M m C C C C C N C C C T G ( | n y L.pX X{./.I.P.I.}.L.K.I.wX(.F.G.P.'.'.U.OX@X`.U.%XK.y _ / ) o.} / } } } | } | | } ^ V e ",
"q r n n G R E / R E Q Q ) o.@.@.&.( ( _ D.qXpXsX8XwX*X'.:X:X*X*X.X>X*XP.J.'.[._.U.{.@X@X9XK.m ) o.o.o.o.o.o.o.o.} | | #.} ^ V l ",
"e l e n ( R r ( H R T R / / ) _ ( &.&.` v.+XuXpXpXrXrXwX1X;X;X,X,X,X=X=X.X.XOX-X4X7X<XqX%Xu.E 3.*.$.O.$.O.O.#.$.O.:.o.} #.} v e ",
"0 j e n ( V r H R E R R E / _ _ _ &.&.&.z.|.uXuXrXrXwX1X;X*X*X*X5X=X).).).=X4XtX3X3X7XqX|.u.@.8.*.:.:.$.:.$.>.:.#.:.#.| %.} V r ",
"e j 0 l ^ G l C E R R ( / ( _ +._ _ 7.8.r.L.yXyXpXrXwXwX1X;X,X,X,X=X).).]..X4XeX4X3XyX9XL.y.8.0.9.5.5.:.5.>.5.7.:.>.%.| :.| V l ",
"e l e l ^ C r C G ( R E / ) _ +.&._ 7.t.3.H.9XaXpXpXrXrXwX6X6X6X=X,X,X=X X>X>X<X0XyXiX+Xz.7.y.8.6.9.9.6.5.9.9.9.:.9.:.#.:.%.V l ",
"j l e l ^ V t C ( ( E R / ) +.@.7.&.>.7.$.c.&XaXpXiXrXwX6X,X6X,X,X,X5X=X5X5X5X4XeXyXyX`.6.6.k.6.9.9.6.9.9.5.9.9.:.>.%.#.%.#.V l ",
"l v e l ^ V r H R R / / ) _ +.@.&.&.*.3.5.q.^.yXpXrX6X2X*X).).(.).*XT./.). X3X0XyX0X XH.6.0.k.6.0.0.9.6.9.9.9.9.:.9.*.X.:.#.H l ",
"v V r l ^ G t T / E / ( ) _ #.@.@.5.*.5.8.5.z. XeX6X2X=X*X*X).).T.).P.P./.{. X5X3X&XQ.q.a.a.a.0.0.0.9.9.9.9.0.0.7.0.>.&.>.%.H l ",
"V V r n ^ H l T / / / / _ +.@.&.o.7.*.3.s.$.O.L.0X6X2X2X,X,X,X5X*X=X.X=X>X>X3X3X@X XD.3.s.c.0.f.a.0.a.0.9.0.a.f.9.e.>.&.w.:.H V ",
"v V M V H C V T / o.&.*.&.*.&._ 3.3.&.@.*.6.8.` P.<XwX:X2X2X[.J.(.T.*X*X}.XXOX@X_.XXH.D.z.6.k.f.c.x.x.f.f.r.f.f.9.7.>.e.>.%.^ H ",
"V C V C ^ H V ^ R ) #.@.*.3.&.&.&.&.7.l.k.8.q.q.u.I.wX1X6X2X;X.X(.*X*X,X-XXX{.U.@X+Xu.8.z.v.H.k.f.f.0.0.e.f.k.l.9.9.7.7.>.%.^ G ",
"V F V H ( T C ( #.*.>.*.3.8.7.3.&.&.&.*.7.y.q.y._ U.8X8X1X;X-X,X*X*X*X*XXX{.U.U.<X%XK.y.k.l.M.x.x.x.k.f.k.k.k.x.9.9.>.1.>.%.( H ",
"V H H H } ^ T / *.*.3.*.&.7.7.3.r.r.r./ 3.c.8.3.u._.wX8X;X}.].[.*X*X(.J.U.{.XX@X%X7X|.v.l.z.x.k.x.x.x.x.x.x.x.x.t.9.>.7.7.;.| ^ ",
"V H C H ^ ^ H ( _ #.&.@.*.r.r.r.r.d.M.r.k.f.@.y.`.3XyX8X5X X).).I.I.I.I.'.XX<X8X%X%X`.y.l.H.F.n.a.f.f.f.k.k.x.k.t.9.1.7.7.>.| ^ ",
"V G F H } ^ T | #.*.3.7.r.y.u.y.l.%.r.1.#.V n Q.%XpXpX8XiX9X5X=X[.*XOXOX<X<X<X7X@XpX+X7.H | p.H.c.c.c.x.x.k.f.d.f.e.7.>.1.>.#.( ",
"V H H W | / / +.*.7.r.7.3.7.3.+.( k G j 0 0 8 H.%XyXyXuXiXiXeXiX,X2X4X4X8X4X<X%X%X9X|.T + 9 s ..0.t.f.k.k.f.f.f.f.e.7.9.9.:.%.| ",
"G H H ^ #.} / %.*.5.:.+.^ C l 1   # x o h Q 3 G oX9XyXuXiXeX6XiXwX4X2X<X<X@X7X7X%XQ.%.. + M =   M S W #.>.d.l.x.f.t.1.9.1.>.%.| ",
"H R [ $.#...$.[ W F h 2 & * 2 5 s u x Z u u v V M H.yXaXiXeX6X6X2X<X<X3X3X%X+X XH.R + 3 x z p z > @ o o 5 F #.1.9.p.p.9.9.p.-.[ ",
"} R [ [ F V A z p 2 u 2 > p z Z u u z x p 3 c l % ^ x.`.9XiXiXeX8XOXOX@X7X|.D.@.V 8 , 0 p = = g Z c p 2 = 2 3 p a K -.p.h.a.-.] ",
"X.P K F e 5 5 ; > 2 p p p i g z z u u z p p h w e w j R y.`.@X9X3X7X9X+XL.*.m % @ , h z u > u Z 5 5 5 5 5 5 5 5 2 0 v K [ -.-.O.",
"~ V v k 4 5 f f p p g g p u u i ' u u u h f f 4 B k < 1 e H 7.v.H.K.L.z.Q q - , j j a 3 u a z g p f f f f f 0 5 x a 3 = a A [ [ ",
"B f f w : w k z 4 4 p p i i p z Z u u u z z u u w k v B w < w e v j 9 9 a x j a h h , * ; p p u k k h f f 5 5 p h h a 5 a s a p ",
"w 4 4 w < 4 f 5 p p 5 3 i p p Z Z u u u z Z u z < w k c l k w w 3 5 5 2 > 2 5 a > p a u 3 p a p p i 4 4 w f k c 5 h h a a a u = ",
"w < f h w 5 w < f h p 5 u 3 p a z z u u Z z u Z 5 h a 4 w B B B z J P Z 4 * ; i p a z Z k p h z z k g f 5 5 4 4 h h 5 4 5 h z p ",
"4 < h k g h h 5 2 5 p p p p p g z Z u u Z z s Z , Z A h w k k 4 g i 4 p c Z z p Z g p p g 5 5 f h h k z h g w 4 4 f h f z h h 5 ",
"2 < f z p 5 g p 5 p w g g g w g g g g u g z Z x x z K p > z 2 z f g g f 4 w : 4 c k g f w f h k h h h h h f f f f f f h h k g k ",
"3 2 f z p 5 g f k g g w < w w g g z z g u u g u A u a p z Z u p f f f f g g k g k g h e w e w e f f f a p 5 5 p < 2 4 p f h z k ",
"i 2 g g w f g g f g g w < : g k i u u u u u g g p a ' D z > 2 D i 5 w w w 5 w 4 j k l z k j f h k h h h h h a a c c c k k k k g ",
"i 4 g g : f z g w w f g k k c c z z Z Z z u u u Z p p p z Z u * 5 4 5 5 w 5 w w 5 5 w p h e 5 1 a a a a a 5 p p 4 3 5 f f g h z ",
"i : g g u i g g x s s s k l l r 6 u 6 s s > ; 2 i D ' Z z Z Z a 2 3 5 a h j v v a x Z Z Z Z Z s M v v v v v v x z h h h f f f f ",
"i : i g 2 u z s x s 6 6 1 % 6 6 d d d ' S x z Z & z Z g u ; z p a a 9 0 3 3 3 , s s s Z x z z x s x s s a a a a x c k z h h h h ",
": : i i 2 u s s 6 d Y Y I I d I I d 6 6 = .   = ,.D & g K s 3   0 a 9 3 , , > = = u = = , 2 u a 3 9 3 3 , , , 2 o = ; 4 p h z c ",
"i : i i u u s s 6 [ S.F.S.2.2.2.S.s.s.S.n.F.W.$X#X$X$X$Xj.a ] B., 9 s s x N K K ] ] ] ' ' ' [ [ [ ........{  . .-.X.{ P F k h f "
};
