/* XPM */
static char *result[] = {
/* columns rows colors chars-per-pixel */
"64 64 228 2 ",
"   c #020103",
".  c #0B0404",
"X  c #0A0908",
"o  c #0C0B0B",
"O  c #120A06",
"+  c #150809",
"@  c #130D0B",
"#  c #0F100A",
"$  c #12130C",
"%  c #1A120E",
"&  c #070C10",
"*  c #0D0D12",
"=  c #130E12",
"-  c #180F10",
";  c #0E1114",
":  c #0D181C",
">  c #141314",
",  c #1A1415",
"<  c #141915",
"1  c #1C1B16",
"2  c #15151A",
"3  c #1B161A",
"4  c #161A1C",
"5  c #1B1C1D",
"6  c #270D16",
"7  c #291313",
"8  c #231A16",
"9  c #241618",
"0  c #231D1B",
"q  c #291E1B",
"w  c #1C211E",
"e  c #24221D",
"r  c #2C231E",
"t  c #32241D",
"y  c #39271D",
"u  c #181720",
"i  c #151C21",
"p  c #1C1D22",
"a  c #221E22",
"s  c #2A1C23",
"d  c #391C27",
"f  c #1D2223",
"g  c #1C2428",
"h  c #232324",
"j  c #2B2523",
"k  c #252926",
"l  c #2D2925",
"z  c #24252A",
"x  c #29252A",
"c  c #25292B",
"v  c #2B2A2B",
"b  c #322523",
"n  c #342A26",
"m  c #392826",
"M  c #332D2B",
"N  c #392E2B",
"B  c #2C312F",
"V  c #35312D",
"C  c #3B322E",
"Z  c #2B2B32",
"A  c #332D32",
"S  c #3A2E35",
"D  c #2E3133",
"F  c #353232",
"G  c #3C3532",
"H  c #3D3935",
"J  c #36353A",
"K  c #3B353B",
"L  c #33383C",
"P  c #3C3A3B",
"I  c #441B28",
"U  c #452A27",
"Y  c #482E35",
"T  c #413633",
"R  c #433A36",
"E  c #4B3B33",
"W  c #443C3B",
"Q  c #493E3B",
"!  c #563B3A",
"~  c #3D403E",
"^  c #46413D",
"/  c #4B423C",
"(  c #4A4839",
")  c #52463D",
"_  c #524A3E",
"`  c #604B3E",
"'  c #3D3C41",
"]  c #423D41",
"[  c #463F43",
"{  c #454244",
"}  c #4B4442",
"|  c #4D4945",
" . c #47434A",
".. c #4C464B",
"X. c #4C4A4B",
"o. c #514644",
"O. c #574747",
"+. c #544B44",
"@. c #5A4C43",
"#. c #534D4A",
"$. c #5A4E4A",
"%. c #56524D",
"&. c #5B5548",
"*. c #5C534C",
"=. c #4D4D51",
"-. c #534E51",
";. c #545455",
":. c #5B5551",
">. c #5D5956",
",. c #56555A",
"<. c #58575D",
"1. c #5C5B5B",
"2. c #724E4D",
"3. c #62544D",
"4. c #6A564A",
"5. c #635553",
"6. c #685654",
"7. c #635A55",
"8. c #6B5C55",
"9. c #645C5A",
"0. c #6A5D5B",
"q. c #745D54",
"w. c #5F605C",
"e. c #63615E",
"r. c #68655A",
"t. c #6B615E",
"y. c #72625B",
"u. c #7A6659",
"i. c #7F705B",
"p. c #5D5C61",
"a. c #615F64",
"s. c #6C5F60",
"d. c #7F5867",
"f. c #646364",
"g. c #6D6361",
"h. c #65646A",
"j. c #696769",
"k. c #6B6A6C",
"l. c #726663",
"z. c #746965",
"x. c #7A6A64",
"c. c #756B69",
"v. c #7A6D6A",
"b. c #7C736C",
"n. c #6D6C72",
"m. c #706F75",
"M. c #737274",
"N. c #7B7473",
"B. c #75747A",
"V. c #79777C",
"C. c #7B7B7D",
"Z. c red",
"A. c #816358",
"S. c #835C69",
"D. c #896B6C",
"F. c #897568",
"G. c #96786B",
"H. c #887A75",
"J. c #967D75",
"K. c #A27E73",
"L. c #908071",
"P. c #9A8579",
"I. c #A58177",
"U. c #A4857A",
"Y. c #A38A7C",
"T. c #AB8C7D",
"R. c #A5927D",
"E. c #7D7C82",
"W. c #807F86",
"Q. c #828185",
"!. c #85848A",
"~. c #89888E",
"^. c #998A86",
"/. c #8D8C92",
"(. c #949399",
"). c #A48C82",
"_. c #A78986",
"`. c #AB8C82",
"'. c #B48E82",
"]. c #B48E8A",
"[. c #AB9384",
"{. c #A79589",
"}. c #B29384",
"|. c #B4948A",
" X c #B89689",
".X c #B59B8C",
"XX c #BB9D8D",
"oX c #AB9B92",
"OX c #B69D96",
"+X c #BD9C92",
"@X c #B8A08D",
"#X c #AEA09C",
"$X c #BCA394",
"%X c #B4A39B",
"&X c #BBA69A",
"*X c #9C9BA1",
"=X c #A9A5A8",
"-X c #BEADA2",
";X c #BAA8A5",
":X c #C19C8E",
">X c #C29D98",
",X c #C3A495",
"<X c #C9A696",
"1X c #C7A996",
"2X c #C5A49C",
"3X c #C9A39C",
"4X c #C4AB9D",
"5X c #CCAD9A",
"6X c #CCAC9D",
"7X c #C4ADA2",
"8X c #CAACA2",
"9X c #CAA8A4",
"0X c #D3AEA6",
"qX c #C5B1A4",
"wX c #CDB3A3",
"eX c #C5B2AB",
"rX c #CCB3AB",
"tX c #CAB9AC",
"yX c #D2B4A4",
"uX c #D2B4AC",
"iX c #D5BBA8",
"pX c #D4BAAC",
"aX c #CDB9B1",
"sX c #D3BCB3",
"dX c #D8BAB4",
"fX c #D8C2B6",
"gX c #DEC7C2",
"hX c #E8CCC0",
/* pixels */
"@ @ % @ O O # @ $ % $ $ $ O # # $ $ $ > < $ # # # # # # $ $ $ $ < $ $ $ $ $ # # $ # # $ $ $ # $ < $ @ @ - - = @ = - @ @ @ @ @ . ",
"O O + O O X # O $ @ # # # # $ # X # # $ $ $ # # < # ; < < < 1 < $ $ $ $ $ # # # $ $ $ $ $ $ $ $ $ # X @ @ @ @ . @ @ @ o . . . X ",
"8 8 0 0 8 0 e j e e e l k l l V B B D F J H H H l l k l l B k B r k w w w w 1 1 w < < < $ $ # # 1 , , , , , , = , - @ @ @ @ @ @ ",
"n M C C C V G H H ^ ^ } | X.%.%.;.>.w.a.f.j.f.j.f.f.f.f.f.f.r.f.e.e.w.w.>.>.%.>.X.X.( { ( ~ H H F M l n v M l j j h j s a a 0 0 ",
"n M G C N G G R { ( | #.%.>.w.w.p.h.k.n.n.n.h.E.C.C.C.E.C.E.E.Q.C.C.M.M.M.M.k.k.n.k.j.f.w.1.;.;.} [ W W W ] P H A G V S M M M l ",
"M N N G F C G H ^ { | %.>.w.r.w.h.n.n.B.E.E.E.E.B.V.V.V.C.C.C.C.b.M.M.M.k.k.k.k.k.f.e.w.1.;.%.;.X.} } { } { Q W H F G F A A A M ",
"G T T T G G G H ^ ^ ^ | %.;.>.w.h.n.n.E.m.E.E.E.C.C.E.E.Q.!.!.!.Q.Q.Q.C.C.M.b.M.n.k.j.f.a.1.<.;.| } [ ] W ] W K G F F F A M M A ",
"C C T G N N C C V V H ~ ( ( #.#.,.<.p.p.p.p.p.p.a.f.h.h.n.m.B.B.C.M.M.k.k.k.f.f.f.w.<.1.;.=.=.X. .} W W W P H F H K F G G G A M ",
"G m R N T R N C V M F H W ^ | X. .=.=.,.p.p.,.,.p.p.h.' p.p.!././.;.=.X.X.,.=.;.X. . .' L ' { X.W P H K K H G F M W W A A F M l ",
"T m R G T R N C / / } o.%.*.9.e.a.h.h.n.h.E.E.E.E.E./.E.!.B./.(.=XM.k.f.h.n.p.a.h.h.p.1.p.,.=. ...} { Q Q W P G v W W A G M v l ",
"T N Y S G Q M C Q / } | %.>.9.e.M.V.E.E.E.E.E./.E.E.~.E.E.m././.(.h.f.k.m.E.M.M.n.h.a.h.k.h.<.X.#...{ { [ W W K v W K M S A v b ",
"T m T N T R m S H R W Q o.#.:.>.h.n.B.V.E.E.E./.*XE.~.h.n.p.E.E.!.f.k.k.k.V.V.Q.M.h.p.<.1.p.,.;.| } W W W K G A b W K M M N x j ",
"Y m T N N R N G T W Q / o.#.%.>.,.p.h.k.n.n.m.B.E.h.p.'  .' p.h.~ B ~ ' L ;.a.V.m.n.k.f.<.=.X.X. .[ W H H F S v x W T v M M x j ",
"T m S m m T m S R T W W / } o.#.-.;.<.p.h.h.p.p.=.' ' & >           o X   > k P ~ X.;.<.;.X.{ ~ { ^ W K K G N M j T K v M A j h ",
"Y b S b m T m N G T G T H W Q { X.X.=.-.p.=.' Z     & & p * p 2 f < w #   o X X X < k H { X.{ ~ ] W K H K H G M s K G l l N j 0 ",
"S b m t b S b N R R R R R W Q Q  .[ '  ...' a & u 2 g * p & * X #   < ; > k , o X X > h P { { ~ W H G G G F M M j H F b v v r h ",
"N m C r n T q n T T C ( C T T ( n ) W S K h = 5 # < < ; & & ; 2 * o o > 3 @ $ O + @ .   a ' { K S G G T T S N M n l l V l k e 0 ",
"C m m q n T r m T C T T T C T T T C Q Q s O @ 0 X $ 4 4 ; o o o 3 = o @ % O O O @ , - @ > x J P G C T T T G N M j b n v l r e 1 ",
"n n C r n T t N U C C T C C C T T n R G @ O 0 , $ 8 q q e 0 9 8 q 0 0 b b t 7 7 O O @ @ . = v { S T T T H G C N j j n n l j 8 1 ",
"n n m r n T t C T C T C C U C C C C V 0 % n n @ r t y y r t N Y m U ! 2.q.4.) ! y % % 0 $ = w H G G T T T T G N j n M M l r e 8 ",
"n n n r n R t C T C T T T C N N V ( r % e r 8 t ` ( ( U U U ` ` 2.2.A.G.K.F.A.2.4.m r t 8 $ w w M T T R T T S C j l n V V l e 1 ",
"r t m 8 n R n T R C T C N C C C V V e e r O % q.R.L.A.A.4.` A.G.G.G.G.K.I.G.F.F.2.m y n e < w < N G T T W T T G l n V V V l e 8 ",
"r t n e N R n T R R T T T C C N V V r e 8 r 4..X1X1X1X:XT.T.R.}.:X:X'.'.T.T.I.Y.y.@.&.Z.e $ w e S C T R W W T T b M C H G l e 0 ",
"r r y r m R m T E T E T T T T C V V V % O 8.&XtX1X5X5X5X5X1X@X@X<X:X<X<X5X,XXX@XP.R.oXZ.M @ h x C G T W R R T K n M H H H V r e ",
"r r b N T R E E / Q Q R R T T T ( V V . 9 ^.7XP..XY.[..XR.5XiX1X:X:X5XyX1XT.T.@X%XH.Z.=XH.G @ j W Q R Q W R R R V C H H R V l e ",
"r b n n N C C C R T T T T T R R ( ~ j O O.^.H.F.D.q.A.J.L.L.R.@XyX0X,XR.L.F.A.A.4.Z.F.^.;X9.  s Y W R R R R W W C G H R H G j e ",
"b b n N C C T C N C N C C T R R j | %.G ! 5.0.oX$XR.P.R.R.R.R.R.T.}.[.Y.P.P.R.`.Z.{.^.H.=Xs.. b [ Q [ Q Q Q / Q R R W ^ R V e e ",
"r t n C R R E / R T R T R R Q / %.G o.o.$.H._.].).P.G.u.L.R.R.A.A.F.L.P.G.F.Z.Z.|.H._.P.0.! q s o.O.o.o.o.o.o.o.^ ^ ^ ^ ^ C l 1 ",
"r t m C R / / / ) / / / / / / o.:.} &.&.z.%X7XOXU.).G.u.F.R.L.4.I.D.u.G.F.q.Z.Z.P.u.{.OXv.y.3.^ O.O.o.#.O.o.#.o.} / } } ^ H l e ",
"r b n m C C C C E R T T T T T R l 7.7.( F.%X{.9X8X2X$X@X@XP.L.P.wXJ.q.G.T.Y.U.[..XR.oX%X-X{.r.3./ o.o.} } o.} o.| | | | ^ H n e ",
"j b b M m C C C C C N C C C T G ( | l y ^.fX.X.X`.T.I.T.T.I.L.R.yX}.G.F.I.}.}.T.@X&X{.R.&XL.y _ ) [ } ) } / } / } | +.| | R V k ",
"q r n n G R E / R E Q Q ) o.@.@.&.( _ _ F.tXfXhX8XyX:X X5X1X:X:X+X3X+XI.K.}..XT.R..X%X-XeXL.m ) o.o.o.o.o.o.o.+.} } | | | ^ V l ",
"e l e V ( C t H R H T E / / / _ ( &.&.` b.#XfXfXfXiXiXyX5X5X<X>X6X3X>X+X+X+X+X,X4XqX4XtX-Xu.E 3.*.$.$.O.O.#.-.$.O.:.| } #.{ M e ",
"e e 0 n ( H l C R E R T / / _ _ _ &.&.&.z.oXfXsXiXiXyX5X<X:X:X:X9X>X+X].].>X8XpX8X7XwXtXoXy.@.8.*.:.*.$.*.*.:.:.$.:.%.| %.| V e ",
"e j 8 n ( H r H R T R ( ( / _ _ _ _ 7.7.r.P.aXsXfXiXiXyX5X<X3X3X3X>X].].].OX8XuX7X7XaXeXP.y.8.8.5.5.5.:.5.>.5.7.:.>.-.o.:.| C k ",
"e j 0 k ^ G r C R ( R / E ) +.@.&._ 8.r.3.H.eXfXfXfXiXyXyX0X0X0X>X3X>X>X>X2X2X4XrXaXdX%Xx.7.z.8.0.9.9.5.5.7.9.9.:.7.:.o.:.+.G l ",
"l l 0 l ^ G r C ( T ( E / _ _ +.7.&.>.8.$.D.;XgXfXdXiXyX0X3X3X3X>X3X3X>X9X9X8X8XuXaXaX{.6.6.c.5.0.9.9.5.5.9.9.9.:.7.*.X.%.#.V l ",
"l M e l ^ G r H T ( E / / _ @.@.&.&.*.*.5.0.^.uXfXiX0X3X:X].:X].].]._._.`.OX9XrXaXrXOXH.6.0.s.6.0.9.9.5.9.9.9.9.:.9.%.#.:.#.H l ",
"v M r l ^ V t R ^ / / / _ +.@.$.+.5.*.5.8.5.l.OXuXuX6X<X:X:X].]._.W.U._.`.|.&X9X7X-X^.q.0.d.s.0.s.0.0.9.9.9.s.0.>.9.>.&.>.%.H l ",
"V V r M ( H r T / / / / _ _ @.$.+.8.*.*.d.$.O.U.rX0X6X<X3X3X3X9X:X3X+X$X2X2X7X7X$X%XD.3.l.v.0.g.s.0.0.0.0.0.s.g.9.t.>.:.>.&.~ V ",
"M V M V H C V R ^ ) @.*.&.*.&._ 3.3.$.$.&.6.8.` U.1XyX1X6X6X XK.W.'.:X:X@X$X$X&X[.%XG.x.z.6.l.t.v.c.c.g.t.t.g.g.9.7.>.9.>.*.^ H ",
"V F V G ^ H N ^ W _ @.%.*.3.&.@.&.&.7.z.l.8.8.q.u.}.wX6X0X6X3XXX:X:X:X:X,X@X}.[.&X%Xi.r.c.D.H.z.g.t.0.0.t.g.l.z.9.9.7.>.>.%.^ H ",
"V H V H ( R C ( @.*.3.*.3.7.r.7.&.&.*.&.6.y.q.y._ Y.5XwX6X<X,X3X:X:X:X:X@X XR.R.-XqXL.y.l.l.N.c.c.c.g.z.g.z.l.k.e.9.>.7.>.&.{ H ",
"V F G H ^ ^ H / *.>.*.*.*.8.3.*.7.r.r._ *.v.q.3.u.[.iXwX<XXX|. X:X'.T.T.R..X@X&X&XqX{.b.x.c.c.l.c.c.c.c.c.c.c.c.t.7.7.1.>.:.} ^ ",
"V H C H ^ ^ G / } @.*.@.*.7.r.r.r.r.b.g.l.l.+.y.{.eXpXqX9X+X].].'.'.T.T.[.@X4XwX4X-X{.z.y.C.N.v.g.g.g.l.z.z.z.z.t.9.7.>.1.:.| ^ ",
"V F G H } ^ R _ +.*.>.7.r.y.u.r.z.:.f.>.#.V n ^.;XfXfXtXuXrX9X>X X.X$X,X4X4X7X4X&XfX%X7.T +.a.H.c.v.v.c.k.l.g.t.t.e.7.e.e.:.=.( ",
"V H H W | / ^ +.*.7.r.8.8.7.&.&.~ l K e 0 5 8 H.;XsXsXaXfXdXuXdX2X6X8X8XwX7X7X-X-X-XoXT O 9 x O.0.t.g.g.l.g.g.t.j.e.7.>.7.>.%.} ",
"G H H ^ +.| ^ %.:.:.*.+.^ C t w   # x o j Q 1 G oXeXaXsXdXuX0XdXuXwX4X4X1X4XqXqX-X^.;.O + M =   M S W #.>.g.c.c.t.t.9.1.9.>.%.| ",
"T T } -.#.O.#.[ P F z > X * > p s u x Z u 3 v V M H.aXgXdXuX0X9X6X4X4X7X7X-X&XOXH.R + , x s p z = * o o 5 F | 9.1.a.a.a.9.9.-.[ ",
"} W [ [ F V A z 5 u 2 i u i z Z p u p Z u u k l < R v.{.rXfXdXdXwX$X$X&X7XoXF.$.V 8 , a p * 2 z Z v h 2 > > 5 p s K #.a.j.s.-.] ",
"X.P H A f 5 5 > > 2 p p p i g z z u u z a f k w e w j W y.^.&XeX7XqXeX%XP.*.b % @ , a c 5 = u Z 4 5 4 5 5 5 5 5 > p v K [ -.-.O.",
"~ V v k 1 4 g p p f z p p i i u ' u u u h f p 4 B e < 1 e H 7.b.H.L.P.x./ q - > r h a 3 p p a g f h 5 f h p p 5 z s 3 = a A [ [ ",
"B f f w : w k z 4 p p p i u g z Z u u u z z p u w k v B w < 1 k v j 9 3 0 j j s x s 2 o 2 p p u k k k f f 5 5 p a h a 5 a s a p ",
"w w 4 w ; w f 5 5 5 5 2 u p p Z Z u u u Z z p p 4 w k k l k w w 3 5 1 3 2 2 p a 2 p p u 2 p p p p p 4 4 5 f k v p h h a a a u 2 ",
"w < p k w w w < f h p p 3 3 p p z z u u Z x u x 5 h a 4 w B D B z L ' Z 4 & ; i p f c x z f h k k z f p f 4 4 4 k f p 4 5 h h p ",
"< 2 f x f f k 4 4 5 p p p p i z z z u u Z x u ' > Z F h w k k 4 g i 2 p c Z z p Z z p f h p 5 f f k z k k f 5 4 4 p h p k c h 2 ",
"2 > f z 5 5 g p 5 p w g f g w g u g z g u z Z x x x K p 2 h 2 z g g f f f : w : c c f w w h f h h h h h f h f f f f f g k h h k ",
"4 2 f c p f g p k g g w < i w k g Z z g u u u g A u a p z Z u a f f f f f g g k k k h f w e e f f f p a p 5 5 5 < 4 4 p f k k z ",
"u 2 f g 4 f g g f g f w < : w c u i u u u u g g p p ' D a 2 2 D 5 5 w w w 5 w 4 j k k x k k j h k h h h k h h a v v k k c k g z ",
"i i g g i f z g 4 f g k k g c c z z Z x z u u u Z p i p x Z u * 4 5 4 5 w 5 w w 5 5 w a e 5 5 1 a s a a a 5 p 5 2 4 5 p p f g k ",
"i : g g u u z g z p s d k l r e 6 u u s s 2 ; 2 i D ' Z x Z Z z 2 3 5 a h x l l a x Z Z Z v x x v Z v v x x x c h h h h h f f p ",
"i : i g 2 u z a x s 6 6 1 8 6 7 d d d ] S x z Z & z Z g u ; a u a 0 0 9 1 3 3 3 s s z x x x z x j s s s s a h a x c c k k f k h ",
"i : i i 2 u z 6 s d Y Y I I d I I d 6 s + .   = ,.D & g ' a 3   a 0 9 3 , , = = = 3 = = 3 2 u u 3 9 3 3 3 , , 2 o = ; 4 p f k c ",
": : i i 2 u s d 6 [ S.D.S.2.2.2.S.d.d.d.S.N.~.=X*X=X=X=Xk.a ] V., 9 s s x S K K ] ] ' ' ' ' [ [ ........ .}  . .-.X. .P F x h 5 "
};
