/* XPM */
static char *result[] = {
/* columns rows colors chars-per-pixel */
"64 64 228 2 ",
"   c #020103",
".  c #0B0404",
"X  c #0A0908",
"o  c #0C0B0B",
"O  c #120A06",
"+  c #150809",
"@  c #130D0B",
"#  c #0F100A",
"$  c #12130C",
"%  c #1A120E",
"&  c #070C10",
"*  c #0D0D12",
"=  c #130E12",
"-  c #180F10",
";  c #0E1114",
":  c #0D181C",
">  c #141314",
",  c #1A1415",
"<  c #141915",
"1  c #1C1B16",
"2  c #15151A",
"3  c #1B161A",
"4  c #161A1C",
"5  c #1B1C1D",
"6  c #270D16",
"7  c #291313",
"8  c #231A16",
"9  c #241618",
"0  c #231D1B",
"q  c #291E1B",
"w  c #1C211E",
"e  c #24221D",
"r  c #2C231E",
"t  c #32241D",
"y  c #39271D",
"u  c #181720",
"i  c #151C21",
"p  c #1C1D22",
"a  c #221E22",
"s  c #2A1C23",
"d  c #391C27",
"f  c #1D2223",
"g  c #1C2428",
"h  c #232324",
"j  c #2B2523",
"k  c #252926",
"l  c #2D2925",
"z  c #24252A",
"x  c #29252A",
"c  c #25292B",
"v  c #2B2A2B",
"b  c #322523",
"n  c #342A26",
"m  c #392826",
"M  c #332D2B",
"N  c #392E2B",
"B  c #2C312F",
"V  c #35312D",
"C  c #3B322E",
"Z  c #2B2B32",
"A  c #332D32",
"S  c #3A2E35",
"D  c #2E3133",
"F  c #353232",
"G  c #3C3532",
"H  c #3D3935",
"J  c #36353A",
"K  c #3B353B",
"L  c #33383C",
"P  c #3C3A3B",
"I  c #441B28",
"U  c #452A27",
"Y  c #482E35",
"T  c #413633",
"R  c #433A36",
"E  c #4B3B33",
"W  c #443C3B",
"Q  c #493E3B",
"!  c #563B3A",
"~  c #3D403E",
"^  c #46413D",
"/  c #4B423C",
"(  c #4A4839",
")  c #52463D",
"_  c #524A3E",
"`  c #604B3E",
"'  c #3D3C41",
"]  c #423D41",
"[  c #463F43",
"{  c #454244",
"}  c #4B4442",
"|  c #4D4945",
" . c #47434A",
".. c #4C464B",
"X. c #4C4A4B",
"o. c #514644",
"O. c #574747",
"+. c #544B45",
"@. c #5A4C43",
"#. c #534D4A",
"$. c #5A4E4A",
"%. c #56524D",
"&. c #5B5548",
"*. c #5C534C",
"=. c #4D4D51",
"-. c #534E51",
";. c #545455",
":. c #5B5551",
">. c #5D5956",
",. c #56555A",
"<. c #58575D",
"1. c #5C5B5B",
"2. c #724E4D",
"3. c #62544D",
"4. c #6A564A",
"5. c #635553",
"6. c #685654",
"7. c #635A55",
"8. c #6B5C55",
"9. c #645C5A",
"0. c #6A5D5B",
"q. c #745D54",
"w. c #5F605C",
"e. c #63615E",
"r. c #68655A",
"t. c #6B615E",
"y. c #72625B",
"u. c #7A6659",
"i. c #7F705B",
"p. c #5D5C61",
"a. c #615F64",
"s. c #6C5F60",
"d. c #7F5867",
"f. c #646364",
"g. c #6D6361",
"h. c #65646A",
"j. c #696769",
"k. c #6B6A6C",
"l. c #726663",
"z. c #746965",
"x. c #7A6A64",
"c. c #756B69",
"v. c #7A6D6A",
"b. c #7C736C",
"n. c #6D6C72",
"m. c #706F75",
"M. c #737274",
"N. c #7B7473",
"B. c #75747A",
"V. c #79777C",
"C. c #7B7B7D",
"Z. c red",
"A. c #816358",
"S. c #835C69",
"D. c #846E62",
"F. c #897569",
"G. c #96786B",
"H. c #8B6A71",
"J. c #887A75",
"K. c #967D75",
"L. c #A27E73",
"P. c #908071",
"I. c #9A8579",
"U. c #A58177",
"Y. c #A4857A",
"T. c #A38A7C",
"R. c #AB8C7D",
"E. c #A5927D",
"W. c #7D7C82",
"Q. c #807F86",
"!. c #828185",
"~. c #85848A",
"^. c #89888E",
"/. c #998A86",
"(. c #8D8C92",
"). c #949399",
"_. c #A48C82",
"`. c #A78986",
"'. c #AB8C82",
"]. c #B48E82",
"[. c #B48E8A",
"{. c #AB9384",
"}. c #A7958A",
"|. c #B29384",
" X c #B4948A",
".X c #B89689",
"XX c #B59B8C",
"oX c #BB9D8D",
"OX c #AB9B92",
"+X c #B69D96",
"@X c #BD9C92",
"#X c #B8A08D",
"$X c #AEA09C",
"%X c #BCA394",
"&X c #B4A39B",
"*X c #BBA69A",
"=X c #9C9BA1",
"-X c #A9A5A8",
";X c #BEADA2",
":X c #BAA8A5",
">X c #C19C8E",
",X c #C29D98",
"<X c #C3A495",
"1X c #C9A696",
"2X c #C7A996",
"3X c #C5A49C",
"4X c #C9A39C",
"5X c #C4AB9D",
"6X c #CCAD9A",
"7X c #CCAC9D",
"8X c #C4ADA2",
"9X c #CAACA2",
"0X c #CAA8A4",
"qX c #D3AEA6",
"wX c #C5B1A4",
"eX c #CDB3A3",
"rX c #C5B2AB",
"tX c #CCB3AB",
"yX c #CAB9AC",
"uX c #D2B4A4",
"iX c #D2B4AC",
"pX c #D5BBA8",
"aX c #CDB9B1",
"sX c #D3BCB3",
"dX c #D8BAB4",
"fX c #D8C2B6",
"gX c #DEC7C2",
"hX c #E8CCC0",
/* pixels */
"@ @ % @ O O # @ $ % $ $ $ O # # $ $ $ < $ $ # # # # # # # $ < $ $ $ $ $ $ # # # $ # # $ $ $ # $ < $ $ @ = = @ o = - = @ @ @ + X ",
"O O + O O X # O $ @ # # # # $ # X # # $ $ $ # # $ < < $ $ w < 1 < $ $ $ $ # # # $ $ $ $ $ $ $ $ $ # O O @ @ @ + @ @ @ O X . . . ",
"8 8 0 0 8 0 e j e e e l k l l V B B F F J H J H l l k k k l l B e e w w w w 1 w w < < < $ # # # 1 , , > , , , = - - - @ @ + @ o ",
"n M C C C V G H H ^ ^ } | X.%.%.;.1.1.p.f.j.j.j.f.f.f.f.j.f.f.f.r.e.e.w.>.>.>.&.X.X.( { ( ~ H H A M v M M M l j j h j a a a 0 0 ",
"n M G C N G G R { ( | #.%.>.w.w.p.h.k.n.n.n.h.W.C.C.W.C.!.C.W.W.C.C.M.M.M.M.k.k.k.k.j.f.w.1.>.;.} { W W W ] P H A G V S M M M v ",
"M N N G F C G H ^ { | %.>.w.r.w.h.n.m.B.W.W.W.W.B.V.B.V.C.C.C.C.N.M.M.M.k.k.k.r.k.h.f.w.1.>.=.=...| } { } { Q W H F G F A A M M ",
"G T T T G G G H ^ ^ ^ | %.;.>.w.h.n.n.W.W.m.W.W.C.C.W.W.!.~.~.^.!.!.C.C.C.M.M.M.k.k.h.f.w.<.<.,.| } [ [ W ] W K G F F F F M A M ",
"C C T G N N C C V V H ~ ( ( #.#.,.<.p.p.p.p.p.p.a.f.h.h.n.m.M.B.M.M.M.M.k.k.f.j.f.w.1.1.,.=.=.X.} { Q P W P H F H K F G G F S M ",
"G m R N T R N C V M F H W ^ | X...=.=.,.p.p.,.,.p.p.h.' p.p.W.).(.w.X.X.X.;.=.,.X.X. .' ' L  .X.W P H K H K G G M W P M F G v j ",
"T m R G T R N C / / } o.%.*.9.e.a.h.h.n.h.W.W.W.W.W.(.W.W.B.).).-XM.k.f.k.n.p.p.h.a.p.p.p.,.=.{ ..} [ W Q Q K K M W W A S F M j ",
"T N Y S G Q M C Q / } | %.>.9.e.M.B.W.W.W.W.W.(.W.W.^.W.W.W.(.(.).h.f.k.m.W.M.M.n.h.p.h.k.h.<.X.#...} { [ W W F l W K M M S l l ",
"T m T N T R m S H R W Q o.#.:.>.h.n.B.V.W.W.W.(.=XW.^.h.h.p.W.W.~.f.k.k.k.V.V.!.m.h.p.<.w.w.,.=.| } ^ W P K F M x W K N M A x j ",
"Y m T N N R N G T W Q / o.#.%.>.,.p.h.k.n.m.n.W.W.h.p.' ..' p.h.~ B ~ P L ;.a.V.M.n.k.a.,.=.X.X.{ ] W P H F M M j R K m A M l j ",
"T m S m m T m S R T W W / } o.#.=.;.<.p.h.a.p.p.=.' ' & ;           o X   > k P ~ X.;.1.;.X.{ { } [ W H K G F S j K H x M M j a ",
"Y b S b m T m N G T G T H W Q { =.X...;.p.=.' Z     & & p * p 4 f < w ;   o X X X > k P { X.{ ~ ] W K H K H G A j K H l v M j a ",
"S b m t b S b N R R R R R W Q Q  .[ '  ...' a & u ; z & p & ;   #   > ; > k , o X X > h P { { ~ W H G G G G M M j F F j M j j j ",
"N m C r n T q n T T C ( C T T ( n ) W S K h = 5 # < ; > & & ; 4 * o o > , = @ @ + @ .   a ] { P S S G T G G N M b M l v l k e 0 ",
"C m m q n T r m T C T T T C T T T C Q Q s O @ 0 # $ 4 < ; ; o o 2 = @ @ = O O O + , - @ > x J P G G T T T G N M j j n M n r e 1 ",
"n n C r n T t N U C C T C C C T T n R G @ O 0 , $ 1 e t 0 8 8 8 q 9 8 b n t 7 7 O + - @ X = c { S T T T T H N N j b M l l e 0 1 ",
"n n m r n T t C T C T C C U C C C C V 0 % n n @ r t y y r t N Y U U ! 2.q.4.) E t % % 1 % o e J N H T T T T G C j b M M n r e 8 ",
"n n n r n R t C T C T T T C N N V ( r % e r 8 t ` ` E U U U ` ` @.2.A.G.L.F.A.2.4.m r r w $ w e G G T R T T G S j l V V V l e 1 ",
"r t m 8 n R n T R C T C N C C C V V e e r O % q.E.P.D.4.4.` A.G.L.G.G.L.L.G.F.G.4.U y N e < 1 < G N T R T W G G n l V C V l e 8 ",
"r t n e N R n T R R T T T C C N V V r e 8 r 4.XX2X6X>X>XR.R.E.|.>X].].].R.R.T.T.q.+.&.+.e $ f 0 N G G R W W G T j n C H H l e e ",
"r r y r m R m T E T E T T T T C V V V % O 8.*XyX2X6X6XpX6X>X#X#X1X1X1X1X6X<XoX#XI.E.OXP.n @ h x G C T R W Y R G n V C H H V j 8 ",
"r r b N T R E E / Q Q R R T T T ( V V . 9 /.8XI.+XT.'.XXE.6XpX2X>X1X6XuX2XR.|.oX*XK.}.-XJ.F @ j W W Q Q Q R R W M C H H T G l e ",
"r b n n N C C C R T T T T T R R ( ~ j O O./.J.F.D.q.A.K.P.P.E.#XuXqX<XE.P.F.A.u.4.v.F./.:X9.  s W T R R W T W R C G H W R V r w ",
"b b n N C C T C N C N C C T R R j | %.G ! 5.0.OX%XT.T.E.E.E.E.E.R.|.{.R.I.I.T.R.F.`./.J.-Xs.. b Q Q Q [ W Q / / R R W ^ W V l w ",
"r t n C R R E / R T R T R R Q / %.G o.o.$.J.`.[._.T.F.u.P.E.E.A.A.F.P.P.G.D.Z.Z.OXK.`.I.0.Q s t O.O.o.o.o.o.o.o.^ ^ ^ ^ ^ G r 8 ",
"r t m C R / / / ) / / / / / / o.:.} &.&.z.&X8X+XY._.G.u.F.E.P.4.Y.D.u.G.F.q.Z.Z.I.u.}.OXv.y.7.R o.O.O.O.O.o.#.o./ } } } ^ H l e ",
"r b n m C C C C E R T T T T T R l 7.7.( F.&X}.0X5X3X%X#XXXI.P.P.uXK.q.G.R.T.Y.{.XXE. X&X;X}.r.3.[ o.o./ / o.} o.| | | | ^ H l e ",
"j b b M m C C C C C N C C C T G ( | l y /.fXXXXX].R.Y.R.R.U.P.E.uX|.G.F.U.|.|.E.%X*X}.E.*XP.y ) ) } } ) } } } / | } +.| ( ^ V r ",
"q r n n G R E / R E Q Q ) o.@.@.&.( _ _ F.yXfXhX9XuX>X.X6X2X>X2X@X4X@XU.L.|.oXR.E.XX&X;XrXP.n ) o.o.o.o.o.o.o.o.} | | | } ~ G l ",
"e r e n ( H r R T R R E / / _ o.( &.&.@.b.&XfXfXfXpXpXuX6X1X1X4X4X4X,X,X>X@X<X<X8X5X5XyX;Xu.E 3.$.$.$.#.#.-.$.$.#.:.#.} | } v e ",
"e j e n ( H r C R R R T E / _ _ _ &.&.&.i.OXaXsXpXpXuX6X1X>X>X>X0X,X[.[.[.,X9XiX8X9XyXyXOXy.@.8.5.*.$.$.$.$.$.5.#.>.#.| %.| V r ",
"e j e l / H r H ( T R ( ( / _ _ _ _ 3.r.r./.aXaXfXpXuXuX6X1X4X4X,X,X[.[.[.+X9XiX9XwXaX8XI.t.8.8.9.5.5.5.>.:.5.7.:.9.#.| :.| F l ",
"e k 0 l ^ C r C ( T R E / ) _ +.&._ 7.8.3.J.rXgXfXfXpXuXuXuXqXqX0X,X4X,X,X3X5X5XtXaXsX:Xi.7.l.8.9.9.9.5.5.7.9.9.:.5.:.#.:.#.V l ",
"j l e l W C r G E R R / / _ +.@.7.@.7.7.O.H.:XfXhXdXpXuXqX4XqX4X4X3X4X4X0X0X0X9XiXaXaX`.6.6.l.6.0.9.6.6.5.9.9.0.:.>.%.| %.| G l ",
"l M e l ( V r H R ( E ( ) _ +.@.&.&.*.7.5.0./.dXpXpXuX4X>X[.[.[.[.[.`.`.'.+X8XtXiXtX$XJ.6.6.l.5.0.6.9.9.9.9.9.0.:.9.*.%.:.%.G l ",
"v M r l ^ H t T R ( / / ) _ O.&.@.5.*.3.8.5.d.+XiXuX9X,X>X>X[.[.Q.[.Y.Y.`.XX,X8XrX8X/.0.s.l.s.0.s.0.9.9.9.9.0.9.7.0.>.&.>.%.H l ",
"V V j n ^ H l R / / / / ) +.+.&.o.9.$.3.l.@.@./.tXqX7X7X4X4X4X0X>X,X@X,X3X3X8X8X*X+XD.3.d.v.s.g.s.0.s.0.9.0.g.g.9.e.>.%.w.%.W V ",
"M V n V H C V T E | &.%.&.3.&._ 3.3.#.&.$.4.8.@.Y.5XuX2X7X7X.XL.Q.].].>XoX%X%X*X}.&XK.x.x.6.l.s.b.c.c.g.t.f.g.g.9.7.7.>.>.%.{ H ",
"V V V H ^ H V ( / o.+.@.*.3.&.@.&.&.8.z.z.8.q.q.u.{.eX6XqX7X3X>X>X>X>X,X2X#X|.{.*X#Xu.r.x.v.J.z.g.t.0.t.t.g.l.l.9.9.7.1.7.%.^ H ",
"V H F H ^ H C / #.*.3.*.7.8.8.3.>.&.&.&.7.y.q.q._ R.eXeX7X1X<X1X>X>X>X>X#X|.E.E.wX;XP.u.l.x.v.c.c.z.l.g.g.z.z.z.0.7.>.7.>.%.^ H ",
"V F C H / ( H / &.*.:.*.&.7.3.>.3.r.r._ :.v.8.3.u.{.uX6X1XoX X.X].>XR.R.E.XX#X%X*XrX}.b.v.c.c.l.c.c.c.c.z.c.c.c.e.9.1.7.w.:.} ^ ",
"B G C H } R H / / #.&.&.*.7.r.r.r.r.b.g.z.l.+.y.}.;XsXeX0X@X[.[.|.R.R.R.{.#X5XyX;XwX}.z.y.J.N.N.s.g.g.g.l.l.k.c.t.7.7.>.>.:.| ^ ",
"V G C H } ^ R | +.%.3.7.r.y.u.r.z.%.f.7.#.N n /.;XfXfXyXsXtX0X,X.XoX%X%X5X5X5X8X*XfX&X7.H | 9.J.v.v.v.v.c.l.g.t.t.e.e.9.r.*.%.{ ",
"V H G W | / ^ +.5.8.r.7.8.8.&.&.~ l G h 0 0 8 J.:XsXsXaXdXdXiXdX5X4X9XeXeX8X8X;X*X;XOXT + 9 x ..g.0.g.g.l.g.g.g.g.e.7.>.w.:.%.} ",
"G H H ^ #.| / %.*.:.:.| ^ C t w   # c o j [ , G OXrXaXsXdXiXqXdXiXuX7X5X2X5X8XwX;X/.:.X + A @   x S W #.7.t.k.v.g.e.9.1.7.>.%.| ",
"R R ..#.#.#.#.[ W S h > o * = p u u x Z u 3 v V V J.aXgXdXiXiXqX7X2X5X8X8X;X&X+XJ.R @ , v a p z > @ o o 5 F X.9.1.a.s.a.9.a.-.[ ",
"| R [ [ F F A x 5 2 u 2 u i z Z z u s Z 3 u k l $ W v.}.rXfXdXiXeX*XoX*XwXOXF.@.V 8 , 0 a * 2 z F c p 2 > > 3 p h K #.a.j.s.-.Y ",
"X.~ H A e 4 5 > ; 2 p p p p g z z u u u a f h f e w j R u./.:XyX8XrXrX&XI.*.m % @ , a x u 2 u z 5 5 5 5 5 5 5 5 > a v K [ -.-.=.",
"~ V v h 4 4 f 5 i h g g p u i i ' u u g z f w 4 B h < 1 e C >.b.N.K.I.v.Q q - , j h a 3 u a z g f f p f h a 5 p x a 3 = a A [ [ ",
"B w f w < f k c 4 4 p p i p p z Z u u u z z p u w h c B e $ w r M j 9 9 0 j j a j a 2 * ; p a u k c h h w 5 5 5 h h a 5 a a a a ",
"f 4 4 w : 4 f f i p 5 2 i i z z Z u u u Z Z p u 4 w c k B k w w 5 1 5 2 3 2 p p 2 p p 3 u p p p i 5 4 4 5 g c k p h h 0 a a u ; ",
"w < w h w w w > h h h 5 u u i a Z z u u x z u Z w h h 4 w B D k z J P Z 4 & > p p g x Z h f h k c h g p w 4 4 5 h f p 4 5 h x p ",
"4 > h c f h h 4 2 5 p p p p p a u Z u u Z x s Z , v A h 4 k k w f i 4 f z Z z i Z f p p h p 5 f h h k c h g w 4 4 f f h z k f 3 ",
"2 > f z 5 i h i 5 i w g g g w g i z z g g z Z Z x a J a 2 h 2 z g g g f f : w : c k h f w w h h h h h h h f f f f f f h h k g h ",
"4 2 h z p f z f c k g w < i w k g z z i u u p u J u a p z Z p p i f f f f g k g k h h h f e w f w f f a 5 5 p 5 > 2 5 w f h c k ",
"i 4 g g 5 f g g f g g w : : w c u i u u u u g z p a L L p 2 2 A i 5 w w w 4 4 w k k k x k k j j h x h h h h h f v c v c k k c h ",
"i 4 g g : f g g 4 w f k k k k c Z z Z x z u u : z p p p Z x i * 5 5 5 5 w w 5 w 5 5 w a e 5 4 1 h a a a p a 0 p 4 4 5 i f g h g ",
"i : g g u i z g z a s s k r j e 6 u u s a 2 * 2 i D ' Z z x Z a 3 3 5 a h h v v s z Z Z A c Z z v v v Z v x c x h h h f h f f f ",
"i : i g : u z s x s 6 6 1 8 6 7 d d d ] S x z Z & z Z g u 2 x p a p 9 0 9 3 1 , s s z x x x z s j s s s s a a a c x k z h h h f ",
"i : : g 2 u s s 6 d Y Y I I I I I d 6 6 + . . = ,.L & g K a 3   a 0 9 3 , , , = = - 2 = 2 2 u u 9 9 3 3 , , > , = = > 4 p h c k ",
"i : : i 2 u s d 6 [ S.H.S.2.2.2.S.d.d.d.N.H.(.-X).-X-X-Xn.u [ V., 9 s s x S S K ] ] ' ' ' ' [ [ .......... . . .=.X. .P F c h p "
};
