/* XPM */
static char *result[] = {
/* columns rows colors chars-per-pixel */
"64 64 227 2 ",
"   c #020103",
".  c #0B0404",
"X  c #0A0908",
"o  c #0C0B0B",
"O  c #120A06",
"+  c #150809",
"@  c #130D0B",
"#  c #0F100A",
"$  c #12130C",
"%  c #1A120E",
"&  c #070C10",
"*  c #0D0D12",
"=  c #130E12",
"-  c #180F10",
";  c #0E1114",
":  c #0D181C",
">  c #141314",
",  c #1A1415",
"<  c #141915",
"1  c #1C1B16",
"2  c #15151A",
"3  c #1B161A",
"4  c #161A1C",
"5  c #1B1C1D",
"6  c #270D16",
"7  c #291313",
"8  c #231A16",
"9  c #241618",
"0  c #231D1B",
"q  c #291E1B",
"w  c #1C211E",
"e  c #24221D",
"r  c #2C231E",
"t  c #32241D",
"y  c #39271D",
"u  c #181720",
"i  c #151C21",
"p  c #1C1D22",
"a  c #221E22",
"s  c #2A1C23",
"d  c #391C27",
"f  c #1D2223",
"g  c #1C2428",
"h  c #232324",
"j  c #2B2523",
"k  c #252926",
"l  c #2D2925",
"z  c #24252A",
"x  c #29252A",
"c  c #25292B",
"v  c #2B2A2B",
"b  c #322523",
"n  c #342A26",
"m  c #392826",
"M  c #332D2B",
"N  c #392E2B",
"B  c #2C312F",
"V  c #35312D",
"C  c #3B322E",
"Z  c #2B2B32",
"A  c #332D32",
"S  c #3A2E35",
"D  c #2E3133",
"F  c #353232",
"G  c #3C3532",
"H  c #3D3935",
"J  c #36353A",
"K  c #3B353B",
"L  c #33383C",
"P  c #3C3A3B",
"I  c #441B28",
"U  c #452A27",
"Y  c #482E35",
"T  c #413633",
"R  c #433A36",
"E  c #4B3B33",
"W  c #443C3B",
"Q  c #493E3B",
"!  c #563B3A",
"~  c #3D403E",
"^  c #46413D",
"/  c #4B423C",
"(  c #4A4839",
")  c #52463D",
"_  c #524A3E",
"`  c #604B3E",
"'  c #3D3C41",
"]  c #423D41",
"[  c #463F43",
"{  c #454244",
"}  c #4B4442",
"|  c #4D4945",
" . c #47434A",
".. c #4C464B",
"X. c #4C4A4B",
"o. c #514644",
"O. c #574747",
"+. c #544B45",
"@. c #5A4C43",
"#. c #534D4A",
"$. c #5A4E4A",
"%. c #56524D",
"&. c #5B5548",
"*. c #5C534C",
"=. c #4D4D51",
"-. c #534E51",
";. c #545455",
":. c #5B5551",
">. c #5D5956",
",. c #56555A",
"<. c #58575D",
"1. c #5C5B5B",
"2. c #724E4D",
"3. c #62544D",
"4. c #6A564A",
"5. c #635553",
"6. c #685654",
"7. c #635A55",
"8. c #6B5C55",
"9. c #645C5A",
"0. c #6A5D5B",
"q. c #745D54",
"w. c #5F605C",
"e. c #63615E",
"r. c #68655A",
"t. c #6B615E",
"y. c #72625B",
"u. c #7A6659",
"i. c #7F705B",
"p. c #5D5C61",
"a. c #615F64",
"s. c #6C5F60",
"d. c #7F5867",
"f. c #646364",
"g. c #6D6361",
"h. c #65646A",
"j. c #696769",
"k. c #6B6A6C",
"l. c #726663",
"z. c #746965",
"x. c #7A6A64",
"c. c #756B69",
"v. c #7A6D6A",
"b. c #7C736C",
"n. c #6D6C72",
"m. c #706F75",
"M. c #737274",
"N. c #7B7473",
"B. c #75747A",
"V. c #79777C",
"C. c #7B7B7D",
"Z. c red",
"A. c #816358",
"S. c #835C69",
"D. c #896B6C",
"F. c #897568",
"G. c #96786B",
"H. c #887A75",
"J. c #967D75",
"K. c #A27E73",
"L. c #908071",
"P. c #9A8579",
"I. c #A58177",
"U. c #A4857A",
"Y. c #A38A7C",
"T. c #AB8C7D",
"R. c #A5927D",
"E. c #7D7C82",
"W. c #807F86",
"Q. c #828185",
"!. c #85848A",
"~. c #89888E",
"^. c #998A86",
"/. c #8D8C92",
"(. c #949399",
"). c #A48C82",
"_. c #A78986",
"`. c #AB8C82",
"'. c #B48E82",
"]. c #B48E8A",
"[. c #AB9384",
"{. c #A7958A",
"}. c #B29384",
"|. c #B4948A",
" X c #B89689",
".X c #B59B8C",
"XX c #BB9D8D",
"oX c #AB9B92",
"OX c #B69D96",
"+X c #BD9C92",
"@X c #B8A08D",
"#X c #BCA394",
"$X c #B4A39B",
"%X c #BBA69A",
"&X c #9C9BA1",
"*X c #A9A5A8",
"=X c #BEADA2",
"-X c #BAA8A5",
";X c #C19C8E",
":X c #C29D98",
">X c #C3A495",
",X c #C9A696",
"<X c #C7A996",
"1X c #C5A49C",
"2X c #C9A39C",
"3X c #C4AB9D",
"4X c #CCAD9A",
"5X c #CCAC9D",
"6X c #C4ADA2",
"7X c #CAACA2",
"8X c #CAA8A4",
"9X c #D3AEA6",
"0X c #C5B1A4",
"qX c #CDB3A3",
"wX c #C5B2AB",
"eX c #CCB3AB",
"rX c #CAB9AC",
"tX c #D2B4A4",
"yX c #D2B4AC",
"uX c #D5BBA8",
"iX c #D4BAAC",
"pX c #CDB9B1",
"aX c #D3BCB3",
"sX c #D8BAB4",
"dX c #D8C2B6",
"fX c #DEC7C2",
"gX c #E8CCC0",
/* pixels */
"@ @ % @ O O # @ $ % $ $ $ O # # $ $ $ > < $ # # # # # # $ $ $ $ < $ $ $ $ $ # # $ # # $ $ $ # $ < $ @ @ - - = @ = - @ @ @ @ @ . ",
"O O + O O X # O $ @ # # # # $ # X # # $ $ $ # # < # ; < < < 1 < $ $ $ $ $ # # # $ $ $ $ $ $ $ $ $ # X @ @ @ @ . @ @ @ o . . . X ",
"8 8 0 0 8 0 e j e e e l k l l V B B D F J H H H l l k l l B k B r k w w w w 1 1 w < < < $ $ # # 1 , , , , , , = , - @ @ @ @ @ @ ",
"n M C C C V G H H ^ ^ } | X.%.%.;.>.w.a.f.j.f.j.f.f.f.f.f.f.r.f.e.e.w.w.>.>.%.>.X.X.( { ( ~ H H F M l n v M l j j h j s a a 0 0 ",
"n M G C N G G R { ( | #.%.>.w.w.p.h.k.n.n.n.h.E.C.C.C.E.C.E.E.Q.C.C.M.M.M.M.k.k.n.k.j.f.w.1.;.;.} [ W W W ] P H A G V S M M M l ",
"M N N G F C G H ^ { | %.>.w.r.w.h.n.n.B.E.E.E.E.B.V.V.V.C.C.C.C.b.M.M.M.k.k.k.k.k.f.e.w.1.;.%.;.X.} } { } { Q W H F G F A A A M ",
"G T T T G G G H ^ ^ ^ | %.;.>.w.h.n.n.E.m.E.E.E.C.C.E.E.Q.!.!.!.Q.Q.Q.C.C.M.b.M.n.k.j.f.a.1.<.;.| } [ ] W ] W K G F F F A M M A ",
"C C T G N N C C V V H ~ ( ( #.#.,.<.p.p.p.p.p.p.a.f.h.h.n.m.B.B.C.M.M.k.k.k.f.f.f.w.<.1.;.=.=.X. .} W W W P H F H K F G G G A M ",
"G m R N T R N C V M F H W ^ | X. .=.=.,.p.p.,.,.p.p.h.' p.p.!././.;.=.X.X.,.=.;.X. . .' L ' { X.W P H K K H G F M W W A A F M l ",
"T m R G T R N C / / } o.%.*.9.e.a.h.h.n.h.E.E.E.E.E./.E.!.B./.(.*XM.k.f.h.n.p.a.h.h.p.1.p.,.=. ...} { Q Q W P G v W W A G M v l ",
"T N Y S G Q M C Q / } | %.>.9.e.M.V.E.E.E.E.E./.E.E.~.E.E.m././.(.h.f.k.m.E.M.M.n.h.a.h.k.h.<.X.#...{ { [ W W K v W K M S A v b ",
"T m T N T R m S H R W Q o.#.:.>.h.n.B.V.E.E.E./.&XE.~.h.n.p.E.E.!.f.k.k.k.V.V.Q.M.h.p.<.1.p.,.;.| } W W W K G A b W K M M N x j ",
"Y m T N N R N G T W Q / o.#.%.>.,.p.h.k.n.n.m.B.E.h.p.'  .' p.h.~ B ~ ' L ;.a.V.m.n.k.f.<.=.X.X. .[ W H H F S v x W T v M M x j ",
"T m S m m T m S R T W W / } o.#.-.;.<.p.h.h.p.p.=.' ' & >           o X   > k P ~ X.;.<.;.X.{ ~ { ^ W K K G N M j T K v M A j h ",
"Y b S b m T m N G T G T H W Q { X.X.=.-.p.=.' Z     & & p * p 2 f < w #   o X X X < k H { X.{ ~ ] W K H K H G M s K G l l N j 0 ",
"S b m t b S b N R R R R R W Q Q  .[ '  ...' a & u 2 g * p & * X #   < ; > k , o X X > h P { { ~ W H G G G F M M j H F b v v r h ",
"N m C r n T q n T T C ( C T T ( n ) W S K h = 5 # > < ; & & ; 2 * o o > , > + O . @ .   a ' { K S G G T T S N M n l l V l k e 0 ",
"C m m q n T r m T C T T T C T T T C Q Q s O @ 0 # $ 4 4 ; o o o 3 = o @ @ O O O @ , - @ > x F P G C T T T G N M j b n v l r e 1 ",
"n n C r n T t N U C C T C C C T T n R G @ O 0 , $ 1 q q e 0 9 8 q 9 0 b n t 7 q + + - @ o = v { S T T T H G C N j j n n l j 8 1 ",
"n n m r n T t C T C T C C U C C C C V 0 % n n @ r t y y r t N Y m U ! 2.q.4.) E y % % 8 = o f H G G T T T T G N j n M M l r e 8 ",
"n n n r n R t C T C T T T C N N V ( r % e r 8 t ` ( ( U U U ` ` 2.2.A.G.G.F.A.2.4.m r t 8 < 1 w M T T R T T S C j l n V V l e 1 ",
"r t m 8 n R n T R C T C N C C C V V e e r O % q.R.L.A.A.4.` A.G.G.G.G.K.I.K.F.G.4.U y n e < w < N G T T W T T G l n V V V l e 8 ",
"r t n e N R n T R R T T T C C N V V r e 8 r 4..X<X<X<X;XT.T.R.}.;X'.T.'.T.T.Y.P.y.` &.+.e # w h S C T R W W T T b M C H G l e 0 ",
"r r y r m R m T E T E T T T T C V V V % O 8.%XrX<X4X4X4X4X<X@X<X,X,X,X4X4X;XXX.XR.^.oXL.V @ e x C G T W R R T K n M H H H V r e ",
"r r b N T R E E / Q Q R R T T T ( V V . 9 ^.6XP..XY.[..XR.4XuX4X;X,X4XtX<XT.}..X$XJ.{.*XH.F @ s W Q R Q W R W W V C H H R V l e ",
"r b n n N C C C R T T T T T R R ( ~ j O O.^.H.D.F.q.A.J.L.L.R.R.tX9X<XT.L.F.A.u.4.Z.F.^.-Xa.. q W R R R R R R R C G H R H G j e ",
"b b n N C C T C N C N C C T R R j | %.G ! 5.0.oX#XR.P.R.R.R.R.R.T.}.[.T.P.P.Y.R.Z.{.^.H.*Xs.. v Q [ [ Q Q Q / Q R R W ^ R V e e ",
"r t n C R R E / R T R T R R Q / %.G o.o.$.H._.].).P.G.u.L.R.R.A.A.F.L.L.G.F.Z.Z.{.J.).P.8.! s q O.[ o.o.o.o.o.o.^ ^ ^ ^ ^ C l 1 ",
"r t m C R / / / ) / / / / / / o.:.} &.&.z.$X6XOXU.).G.u.F.R.L.4.Y.A.A.F.F.q.Z.Z.P.u.{.oXb.t.8.R O.O.O.+.+.O.O.#.} / } } ^ H l e ",
"r b n m C C C C E R T T T T T R l 7.7.( F.$X{.8X7X1X#X@X@XP.L.P.tXJ.A.G.T.U.U.[..XR.oX$X=X{.8.3.) o.o.o./ o.} } | | | | ^ H n e ",
"j b b M m C C C C C N C C C T G ( | l y ^.dX.X.X`.T.I.T.T.I.L.R.yX}.F.G.U.}.}.T.#X%X{.).%XL.y _ ) [ Q o.} } } / } | +.| | R V k ",
"q r n n G R E / R E Q Q ) o.@.@.&.( _ _ F.rXdXgX7XtX;X X4X<X;X;X+X2X+XI.K.}..XT.R.@X%X=X=XL.m ) o.o.o.o.o.o.o.o.} } | | | ^ V l ",
"e r e n ( H t H T H E R Q / / _ ( &.&._ b.$XdXdXdXuXuXtX4X4X,X2X2X2X:X+X+X+X+X>X5X0X3XrX=Xu.E 3.$.$.$.O.O.O.%.$.#.:.X.} #.} l e ",
"e j e l ( H r C E R R ^ E ( _ _ _ ` 3.&.i.oXpXaXuXuXtX4X,X;X;X;X8X1X+X].].:X7XiX6X0X0XrXoXu.@.8.*.:.:.$.%.%.5.:.$.:.#.} %.| V r ",
"e j e n } C r H R ( E R / ( _ _ _ _ 7.r.r.^.pXpXdXdXtX9X4X,X2X:X:X:X].].].OX7XyX6X0XpX6XP.y.8.0.9.5.5.>.:.5.5.>.:.1.$.#.%.| F l ",
"r k 8 k ^ H t C R C R Q / ) +.@.&._ 7.8.*.H.wXfXdXuXuXuXtX9X9X9X2X2X:X:X:X1X1X3XeXpXsX-Xz.8.y.0.9.9.6.5.7.7.9.9.:.5.:.| %.#.G l ",
"j l e l ^ V r C ( R ( E / ) @.@.7.&.>.r.O.S.-XfXdXdXuX9X9X2X2X2X1X2X1X2X8X8X8X7XpXpXpX_.6.6.l.6.0.6.5.9.>.5.9.0.:.7.*.| :.#.V l ",
"l M e l ^ C k T R / ^ / ( +.+.@.&.&.*.*.5.0._.aXdXuX9X,X:X].;X'.].]._._.`.OX8XeXpXeXOXH.6.0.l.5.0.9.9.9.6.9.9.0.:.7.;.#.:.%.G l ",
"v M r l ^ C l T Q / / ( / +.@.@.@.5.*.3.0.6.x.OXpX9X5X,X;X;X].].W.].U.U.`.|.%X6X6X=X^.q.0.d.s.0.0.0.0.0.9.9.0.0.>.0.>.&.>.%.H l ",
"V V j n ( G n T / E Q ( _ o.@.&.o.0.$.3.u.O.O.^.9XtX5X2X2X2X2X8X;X:X+X#X1X1X8X6X%XOXD.3.l.c.0.g.s.0.0.0.0.s.f.t.9.g.>.%.w.&.~ V ",
"v V V V H C M R E | &.&.*.*.&._ 3.*.$.$.&.3.8.@.U.3XtX<X5X4X XK.W.'.'.;XXX#X#X%X{.$XH.b.z.7.l.g.v.c.c.g.t.t.t.j.9.>.7.1.7.%.^ H ",
"V C V C ^ H M ( ^ | @.#.*.3.&.&.&.*.8.z.z.8.q.q.u.}.qX4X4X9X1X;X;X;X;X:X<X@X}.[.%X@Xi.8.x.D.H.z.g.g.0.0.e.g.l.l.0.7.>.7.>.%.^ H ",
"V F V H / R C ( @.*.*.3.5.8.7.3.&.&.&.&.7.t.q.q._ Y.4XqX4X,X1X,X;X;X;X;X@X}.R.R.3X=XL.u.l.l.N.c.c.c.l.l.z.g.l.c.9.9.>.7.>.&.{ H ",
"V H H H } R H / &.*.5.%.*.8.7.&.7.r.r._ 3.v.q.3.u.[.tXqX,X+X}. X X'.'.T.R..X@X#X=X0X{.b.x.c.c.l.c.c.c.c.c.c.c.c.e.9.7.1.>.:.} ^ ",
"V F C H { ^ H / | @.%.&.*.r.r.r.r.r.b.g.z.l.+.y.{.=XaXqX8XOX].].}.T.T.T.[.@X3XrX=X=X^.x.z.H.N.v.t.g.g.g.l.l.k.x.e.7.>.7.w.:.#.^ ",
"V H C H ( ^ R o.@.*.>.3.8.y.u.r.z.%.f.7.#.V n ^.=XdXdXrXaXeX8X:XXX;X#X>X3X3X3X6X=XrX$X8.T | a.H.v.v.v.c.z.z.g.t.g.0.e.7.7.:.#.{ ",
"V H G W | / ( o.*.7.r.7.7.8.&.&.~ l H h s 0 8 H.-XpXaXiXsXsXyXsX1X3X7X7XqX3X3X=X=X=XoXR + 3 x O.0.t.g.l.z.g.g.g.g.e.e.>.w.>.%.| ",
"G H P ^ #.} ^ %.*.5.:.| ^ C t w   # h o h Q , G OXwXpXpXsXpX9XsXyXqX5X3X3X3X0X0XrXP.%.. + A +   M A W #.>.t.k.c.g.t.7.>.>.>.%.| ",
"R T ..O.#.#.#.[ W A h > * * > p s u s Z u u v V n H.pXfXsXyX9X9X5X3X5X6X6X=X%XOXH.T + 3 v z p z > = X o 5 A | 1.9.a.s.a.9.p.-.[ ",
"| R [ } F F A z 5 u u u 2 i z Z z u z z a u k v 1 R v.{.wXdXsXyXqX%X@X%X6XoXF.$.C 8 2 0 u * > z Z v p 2 > 2 5 a s K -.a.j.s.-.W ",
"| P K F e 1 5 > > 2 p p i p g z Z u u z p f h w e w j H y.).-XrX6XwXwX$XP.*.b % O , h x p = u z 5 5 5 5 5 5 p 0 > p v K [ -.-.[ ",
"~ B B h 4 4 f w p f g p p i i i Z u u u a f f 4 B f 1 1 e G >.b.N.J.P.x./ 0 % > h j a 3 u a z z p f f f f a 5 5 k a 3 = s S [ [ ",
"B f f w : w c k 5 i p i i u p z Z u u u z z p u w k v B w < 1 r M r 0 9 s h j s x h , * > p p u k k z f f 5 i 5 h h a 5 p a x p ",
"w w w w < 4 f 5 p p 5 2 u p z z z z u u Z z p u 4 w k k k k w w 5 3 3 3 > 2 p a 2 5 p u u p p p p i 4 4 5 f k v 5 h h p a a u = ",
"w 2 w h 4 w f 2 h h a 5 2 u p p Z z u u Z z u Z w h a 5 w B D B k L P D 4 * * p p f v x z p h k k z f f f 4 4 4 h h p 5 5 h z a ",
"2 < f c f h h 4 2 5 p p p p p z u Z u u Z x s Z > v A z w k k 4 f i 2 i c Z z i D z i p f 5 p w h h k k h f w 4 5 i f h h k h 2 ",
"4 2 f z 5 i h i 5 5 w f g g w g u z z g u z Z Z Z s J p > h 2 z g g g f 4 w 4 : c k h f w h h k h h h h h f p f f f f h f k h k ",
"2 2 p k p f g f g k f w w : w k g z g g u u u g Z u a p x Z u p p f f g g g g k k h h f w e w h f a f p 5 p 5 5 2 4 4 f f h z k ",
"u 2 g g 5 f g f f g g w : : g k u g u u u u g g p a ' D g 2 2 D i 5 w w f 5 w 1 h k k c k j h h h h h h h h a h v v c c c k k g ",
"f : g g 4 f z g w w g g k g k c z z Z x z u u u Z p p p Z x u * 5 5 4 5 5 5 w w 5 5 h a h w 1 1 h h a h 0 p p p < 4 5 5 f f f z ",
"i : g g : i z z x a s d k t r k 6 u u s a > ; 2 i D ' Z z Z Z z 3 3 5 a h x v v a z Z Z Z Z x x v Z v v v v x k h h h f h h f f ",
"i : i g u u z a s s 6 6 1 7 9 7 d d d ] S x z x & z Z g u > a a 0 a 9 u 1 3 , 2 s s s x x x z x j s s s a s a a c v k z z f h f ",
"i : i i 2 u s s 9 d Y [ I I d I I d 6 6 - .   2 ,.D & g K a 3   a 0 9 9 3 , , = = 3 = = 2 3 u p 3 9 9 3 , , , > * = 2 2 p f k c ",
": : i i = u s d 6 [ S.S.S.2.2.2.S.d.d.d.N.D.~.*X&X*X*X*Xn.u ] E., 9 q s x A G K ] ] ' ' ' ' [ [ [ ........ . . .-.X.{ P F v h p "
};
