/* XPM */
static char *result[] = {
/* columns rows colors chars-per-pixel */
"64 64 227 2 ",
"   c #020103",
".  c #0B0404",
"X  c #0A0908",
"o  c #0C0B0B",
"O  c #120A06",
"+  c #150809",
"@  c #130D0B",
"#  c #0F100A",
"$  c #12130C",
"%  c #1A120E",
"&  c #070C10",
"*  c #0D0D12",
"=  c #130E12",
"-  c #180F10",
";  c #0E1114",
":  c #0D181C",
">  c #141314",
",  c #1A1415",
"<  c #141915",
"1  c #1C1B16",
"2  c #15151A",
"3  c #1B161A",
"4  c #161A1C",
"5  c #1B1C1D",
"6  c #270D16",
"7  c #291313",
"8  c #231A16",
"9  c #241618",
"0  c #231D1B",
"q  c #291E1B",
"w  c #1C211E",
"e  c #24221D",
"r  c #2C231E",
"t  c #32241D",
"y  c #39271D",
"u  c #181720",
"i  c #151C21",
"p  c #1C1D22",
"a  c #221E22",
"s  c #2A1C23",
"d  c #391C27",
"f  c #1D2223",
"g  c #1C2428",
"h  c #232324",
"j  c #2B2523",
"k  c #252926",
"l  c #2D2925",
"z  c #24252A",
"x  c #29252A",
"c  c #25292B",
"v  c #2B2A2B",
"b  c #322523",
"n  c #342A26",
"m  c #392826",
"M  c #332D2B",
"N  c #392E2B",
"B  c #2C312F",
"V  c #35312D",
"C  c #3B322E",
"Z  c #2B2B32",
"A  c #332D32",
"S  c #3A2E35",
"D  c #2E3133",
"F  c #353232",
"G  c #3C3532",
"H  c #3D3935",
"J  c #36353A",
"K  c #3B353B",
"L  c #33383C",
"P  c #3C3A3B",
"I  c #441B28",
"U  c #452A27",
"Y  c #413633",
"T  c #4F3537",
"R  c #433A36",
"E  c #4B3B33",
"W  c #443C3B",
"Q  c #493E3B",
"!  c #3D403E",
"~  c #46413D",
"^  c #4B423C",
"/  c #4A4839",
"(  c #52463D",
")  c #524A3E",
"_  c #604B3E",
"`  c #3D3C41",
"'  c #423D41",
"]  c #463F43",
"[  c #454244",
"{  c #4B4442",
"}  c #4D4945",
"|  c #47434A",
" . c #4C464B",
".. c #4C4A4B",
"X. c #514644",
"o. c #574747",
"O. c #544B45",
"+. c #5A4C43",
"@. c #534D4A",
"#. c #5A4E4A",
"$. c #56524D",
"%. c #5B5548",
"&. c #5C534C",
"*. c #4D4D51",
"=. c #534E51",
"-. c #545455",
";. c #5B5551",
":. c #5D5956",
">. c #56555A",
",. c #58575D",
"<. c #5C5B5B",
"1. c #724E4D",
"2. c #62544D",
"3. c #6A564A",
"4. c #635553",
"5. c #685654",
"6. c #635A55",
"7. c #6B5C55",
"8. c #645C5A",
"9. c #6A5D5B",
"0. c #745D54",
"q. c #5F605C",
"w. c #63615E",
"e. c #68655A",
"r. c #6B615E",
"t. c #72625B",
"y. c #7A6659",
"u. c #7F705B",
"i. c #5D5C61",
"p. c #615F64",
"a. c #6C5F60",
"s. c #7F5867",
"d. c #646364",
"f. c #6D6361",
"g. c #65646A",
"h. c #696769",
"j. c #6B6A6C",
"k. c #726663",
"l. c #746965",
"z. c #7A6A64",
"x. c #756B69",
"c. c #7A6D6A",
"v. c #7C736C",
"b. c #6D6C72",
"n. c #706F75",
"m. c #737274",
"M. c #7B7473",
"N. c #75747A",
"B. c #79777C",
"V. c #7B7B7D",
"C. c red",
"Z. c #816358",
"A. c #835C69",
"S. c #846E62",
"D. c #897568",
"F. c #96786B",
"G. c #8B6A71",
"H. c #887A75",
"J. c #967D75",
"K. c #A27E73",
"L. c #908071",
"P. c #9A8579",
"I. c #A58177",
"U. c #A4857A",
"Y. c #A38A7C",
"T. c #AB8C7D",
"R. c #A5927D",
"E. c #7D7C82",
"W. c #807F86",
"Q. c #828185",
"!. c #85848A",
"~. c #89888E",
"^. c #998A86",
"/. c #8D8C92",
"(. c #949399",
"). c #A48C82",
"_. c #A78986",
"`. c #B48E82",
"'. c #B48E8A",
"]. c #AB9384",
"[. c #A7958A",
"{. c #B29384",
"}. c #B4948A",
"|. c #B89689",
" X c #B59B8C",
".X c #BB9D8D",
"XX c #AB9B92",
"oX c #B69D96",
"OX c #BD9C92",
"+X c #B8A08D",
"@X c #AEA09C",
"#X c #BCA394",
"$X c #B4A39B",
"%X c #BBA69A",
"&X c #9C9BA1",
"*X c #A9A5A8",
"=X c #BEADA2",
"-X c #BAA8A5",
";X c #C19C8E",
":X c #C29D98",
">X c #C3A495",
",X c #C9A696",
"<X c #C7A996",
"1X c #C5A49C",
"2X c #C9A39C",
"3X c #C4AB9D",
"4X c #CCAD9A",
"5X c #CCAC9D",
"6X c #C4ADA2",
"7X c #CAACA2",
"8X c #CAA8A4",
"9X c #D3AEA6",
"0X c #C5B1A4",
"qX c #CDB3A3",
"wX c #C5B2AB",
"eX c #CCB3AB",
"rX c #CAB9AC",
"tX c #D2B4A4",
"yX c #D2B4AC",
"uX c #D5BBA8",
"iX c #D4BAAC",
"pX c #CDB9B1",
"aX c #D3BCB3",
"sX c #D8BAB4",
"dX c #D8C2B6",
"fX c #DEC7C2",
"gX c #E8CCC0",
/* pixels */
"@ @ % @ O O # @ $ % $ $ $ O # # # $ $ < < < $ # # # # # # $ $ < $ $ $ $ $ # # # $ # # $ $ $ $ $ $ $ $ @ = = @ @ = = @ @ @ @ o . ",
"O O + O O X # O $ @ # # # # $ # X # # # $ $ # # $ < < $ < w 1 < $ $ $ $ # # # # $ # $ $ $ $ $ $ $ # @ o @ @ @ O @ @ @ @ . . . . ",
"8 8 0 0 8 0 e j e e e l k l l V v V D F F H H L k l k l l k k l r k w e w w 1 w w < < < $ $ # # 3 1 , , , , , = - > = = = @ = @ ",
"n M C C C V G H H ~ ~ { } ..$.$.-.<.<.d.d.h.d.h.h.d.d.d.d.d.h.d.e.q.q.q.:.:.:.%...} } ~ / ! H H M M v l M M l j j s j q 0 0 0 0 ",
"n M G C N G G R [ / } @.$.:.q.q.i.g.g.b.b.b.g.E.V.V.V.V.Q.V.E.Q.V.V.m.m.m.j.m.j.j.j.j.d.q.<.-.-.{ ] W ' W W P H F V S A A M M v ",
"M N N G F C G H ~ [ } $.:.q.e.q.g.b.n.N.E.E.E.E.N.N.N.B.V.V.V.V.m.m.m.m.j.j.j.e.h.h.d.q.<.-.-.$.} } { [ [ [ Q W H G G F A M A M ",
"G Y Y Y G G G H ~ ~ ~ } $.-.:.q.b.b.b.E.n.E.E.E.B.B.E.W.Q.!.!.~.L.!.Q.V.V.m.m.m.j.j.h.d.q.<.<.>. .{ Q ' [ W P K F G F G F M M M ",
"C C Y G N N C C V V H ! / / @.@.*.,.i.i.i.i.i.i.d.d.g.g.b.n.m.N.V.m.m.j.j.j.d.h.d.i.,.>.-.-.*... .[ W W W W H F H K F G F G A A ",
"S N Y G Y R N C V M F H W ~ } .. .*.*.*.i.i.>.>.i.i.g.` i.i.E.(./.-.*...*.-.*.-...| | ` L P | ..W P G K H H G S n ' W A A F n x ",
"Y m R N Y R N C ^ ^ { X.$.&.8.w.p.p.g.b.b.E.E.E.E.E./.E.E.N.(.(.*Xm.j.d.h.b.i.i.g.g.i.i.i.,...|  .{ [ Q W W P H l W W A G F l l ",
"Y N T S G Q M C Q ^ { } $.:.8.w.n.E.E.E.E.E.E./.E.E.~.E.E.E././.(.g.d.j.b.E.m.m.b.g.p.d.g.g.,.....} { ] ] W P H x W K M M S l l ",
"Y m Y N Y R m S H R W Q X.@.;.:.g.b.n.E.E.E.E./.&XE.~.g.g.i.E.E.!.g.j.j.j.B.B.Q.m.h.i.,.i.i.>.-...{ ' W W K G A n W K M A N x x ",
"Y m Y m N R N G Y W Q ^ X.@.$.:.-.i.g.j.b.n.n.N.E.g.i.` | ` i.g.! B ! ` L *.d.N.n.n.j.p.>.*.....| Q W P G G A v x R K M M A k j ",
"Y m S m m Y m S R Y W W ^ { X.@.=.-.,.p.g.g.i.i.*.` ` & >           o X   < k P P ..-.<.-...[ ! | Q W K P G F M j K G l M M j s ",
"Y d N m m Y m N G Y G Y H W Q [ ....*.-.,.*.` Z     & & p * p 4 f < f #   o X X X < k P ....! ! ] W H H K G G A s H H l v M j q ",
"U b N s b S b N R R R R R W Q Q | ] ` |  .` a & u 2 g * p & *   #   > ; > k 3 o X X = h H [ ..P W H F G G G M M s H F x n n e h ",
"N N N r y Y r n Y Y Y / C Y Y Y y O.W G K h = 3 # > < ; ; & ; 2 & X * , , > O O . @ .   a ' | G S G Y Y Y S N M n l l v l j e 1 ",
"N M N r n C r N Y C C Y C Y Y Y Y G Q W q O @ 0 # $ 4 2 ; & o * 3 = @ @ @ + O O @ , - @ > x J P S C Y Y Y G N M b l n M n j 0 e ",
"n m C q n Y t N U C C Y Y Y Y Y Y n Q C @ O h , O w q t 0 8 1 9 q 9 q b m t 7 7 + + - @ . = c [ S G H Y Y H C N l b n v n e e 1 ",
"n n N q n Y t C Y N Y C N N N C C V N e % n n O r t y y t t U Y U U T 3.0.3.( T y % % 1 % * f H C Y Y Y Y G G N j j n M M r 8 1 ",
"b n n q n Y n C Y C Y Y C C C N V H r % 8 r 8 y ) / E y U U _ _ +.1.Z.F.F.F.0.0.3.m r r 8 < w e S C Y R R Y G S r l M V M l e 1 ",
"t t n q n R n Y Y Y Y C Y C N C H V e e r O 7 7.R.I.S.Z.3._ Z.L.K.F.F.K.K.K.F.D.3.U y n e < < < C C R R W Y Y G l n V C V l e 1 ",
"r j n q n E n Y Y Y Y Y Y N C C V V l r % r 3.[.4X<X<X;XT.T.R.{.;X;X`.`.T.T.U.Y.t.+.%.%.e $ w 0 G N Y R W R H G l n G H V n r e ",
"r t n r n Y m Y / Y E Y Y Y C C V V V % O 6.%XdX<X4X4X4X4X;X+X<X,X;X,X2X5X>X+X+XP.P.XXL.M @ h x V G Y R T K Y Y n V H H G V r w ",
"q r b N Y R E Q Q ^ Q Y Y Y Y G / B V . 9 ^.6XP.oX).]. XR.<XuX4X;X;X4XtX<XT.{..X%XH.[.*XH.G @ j W W Q R W W W R V C H H H C l e ",
"r b n N N C C C Y Y Y R Y Y E Q / / e O o.^.H.D.D.1.Z.L.L.L.R.R.tX9X<XR.L.S.Z.0.3.c.D.^.-Xa.  s T R R R R R R W C G R H R F j e ",
"r b n N C C C Y U N N N C Y Y R l } &.G ] 1.0.XX#XY.Y.R.R.R.R.R.T.{.].Y.P.Y.R.].C.).P.H.*Xa.. b ' Q Q Q Q ] Q Q R R W ~ ~ V e e ",
"r t n C Y E Q Q R Y R R R R ^ ^ #.G X.X.#.H._.[.).P.F.y.L.R.R.S.Z.D.L.P.F.S.C.C.XXJ._.P.5.Q s b o.X.X.o.X.X.} X.~ ~ ~ ~ R C l 1 ",
"r t n C Y Q ^ ^ / ( ^ ^ ^ ^ ^ } :.{ %.%.l.$X6XoXU.).F.y.F.R.L._ U.S.y.F.D.0.C.C.P.y.[.$Xc.t.2.Q o.o.O.o.O.O.O.o.{ ^ { { ~ H l 0 ",
"j b n N C C C C R R Y Y Y Y Y R l :.6./ H.oX_.7X3X1X+X.X+XL.F.L.tXJ.0.F.T.Y.U.]. XR.[.$X=X[.e.2.{ { X.{ { X.{ X.{ } } { / P l e ",
"t j n n N N C C C C N C C C Y Y / } l y P.dX X X`.T.U.{.{.P.L.+XtX'.F.D.I.{.].T.#X%X[.R.%XL.m ) X.Q { { { ^ { ^ } } } $.{ R V l ",
"q r b N Y R E ^ Q E Q Q ( ( o.+.%./ ) ) H.rXdXgX7XtX;X{.<X<X;X;XOX2XOXI.K.{..XT.R. X$X=XwXL.y ( X.X.X.X.X.X.X.X.{ { } } } ~ V l ",
"e l e V / H l C / Y R E ^ ^ ( ) ) %.%.) v.$XdXdXuXuXuXtX4X4X,X2X2X2X:X:XOXOXOX>X7X0X3XrX=Xy.E 2.&.#.O.o.o.#.@.#.@.;...{ O.{ v e ",
"e r 0 n ^ H t C G Y R Y E ^ ) ) ) %.%.2.u.XXpXaXuXuXtX4X,X;X;X;X2X1X'.'.'.:X7XiX7X6X0XrXXXy.+.7.2.;.;.;.o.;.;.;.=.;.@.} $.} V e ",
"e j 8 l / H r H R R R / ^ / ) O.) ) 6.6.e.^.pXpXdXuXtXtX4X,X2X2X2X:X'.'.}.oX7XyX7X6XpXwXL.r.7.7.5.4.4.;.4.6.4.6.;.6.#.} $.} C l ",
"e j e l ~ V r C Y / R E ^ ( ) O.%.) 6.7.2.H.pXsXdXdXuXuXtX9X9X9X:X2X1X1X:X1X1X3XeXpXsX$Xz.7.l.7.8.8.5.4.6.6.8.8.;.6.-.o.$.@.G l ",
"j l e l ~ C r G R Q R ^ ^ ) ) O.6.) e.6.o.G.-XfXgXsXuXtX2X8X2X2X:X2X2X:X1X8X7X6XpXpXpX[.5.5.k.5.9.8.4.6.4.8.8.8.;.6.&.} ;.@.V l ",
"l M e l ~ C l G / E Q / ( O.+.+.%.%.&.2.4.a.^.pXsXuXtX2X;X;X'.'.'.'._._.'.oX8XeXyXwXoXH.5.5.k.5.5.8.8.8.4.8.8.8.;.6.-.O.;.$.G l ",
"M V r l ~ C r Y ^ E ^ ^ ^ O.O.%.+.4.&.2.0.5.z.oXyXtX5X>X;X;X'.'.'.W.U._._.}.%X8X7X=XW.0.a.k.a.9.a.9.9.8.8.9.9.9.:.w.:.$.:.$.H l ",
"V V r v / H l Y ^ / ^ ^ ( O.+.+.) 6.&.4.0.o.o.^.eX7X9X2X2X2X2X8X;X:XOX>X1X1X3X6X1X>XG.2.k.c.9.a.a.a.a.9.9.a.d.r.8.r.6.$.q.%.! V ",
"v V M V R G M H ^ ^ %.#.&.2.%.) 4.&.%.#.2.5.7.+.P.4XtX<X5X5X|.K.W.`.;X;XOX#X#X#X[.$XH.S.z.5.k.f.M.l.k.f.9.f.f.f.8.6.:.6.<.&.~ H ",
"V V V H ~ H N / ~ ) O.%.%.2.%.%.%.%.6.l.t.7.0.0.y.{.qX4X4X9X1X;X;X;X;X;X<X+X XR.%X+Xu.7.c.c.H.l.a.f.a.a.f.f.f.l.8.8.6.6.:.$.~ H ",
"V G F G ~ R C / O.&.&.&.4.6.7.2.%.%.2.&.5.r.0.t._ P.qXqX5X2X<X1X;X;X;X;X+X{.R.R.=X0XL.k.k.k.M.x.l.l.k.k.f.l.j.x.8.6.6.<.:.;.~ H ",
"V G F H ^ W G / &.&.4.&.%.6.6.2.6.e.e./ &.c.7.3.y.].qXqX<X.X}.|.|.`.T.T.R. X+X#X%X0X[.v.z.x.x.k.x.x.x.x.l.l.x.l.r.8.<.6.q.$.{ ~ ",
"V H C G { ~ H / / @.&.%.%.e.7.e.e.e.M.f.k.k.O.t.[.wXrXqX8XoX'.'.{.`.T.T.].#X<XrX3X=X[.k.k.H.M.c.f.f.f.l.f.l.l.l.e.w.6.6.:.;.} ~ ",
"V V H H { ~ R ^ O.$.4.4.7.k.y.r.j.$.e.:.@.V n ^.-XdXdXtXsXeX8X:X|..X#X>X3X<X0X0X%XdX$X6.Y { p.H.x.c.x.x.l.l.f.f.r.8.w.<.w.;.@.^ ",
"V H G W } ^ ~ O.&.7.w.7.6.6.%.%./ l H j a 0 8 H.-XaXaXaXsXsXyXsX3X3X7X7XqX0X3X%X=X=X@XR O 9 s o.a.9.f.k.l.f.f.f.f.9.6.6.q.:.$.} ",
"G H P ~ @.} ^ $.&.:.&.O.~ C l 1   # x . h Q 1 G XXwXpXpXsXyX9XsXyX7X5X3X%X3X0X0X=X^.$.. @ A =   n S W @.:.f.j.x.f.w.<.6.:.:.$.} ",
"Y R { =.@.o.*.| W A h 2 X & ; p u u x Z u 3 v V n H.pXfXsXyXyX9X5X<X3X7X7X=X$XoXH.R + 3 v s p z > = X o 5 F @.<.p.a.a.i.8.i.=.] ",
"{ W ] ] F F A z 3 3 2 4 2 p Z Z z u s Z 3 u k k 1 R x.[.wXdXsXyXqX#XoX%X0XXXD.#.V 8 , 0 p ; > p Z c f 2 > < 3 p a J =.p.h.a.=.W ",
"..H H A e 1 5 ; 2 2 i p p p p z Z u u z a f h f e w j W t.).%XwX6XwXwX$XP.&.m % @ , a z i 2 u Z 5 3 3 5 4 3 5 0 > 0 x K ] =.=.o.",
"! V v k 4 5 f w f f h g p i u i Z u u u h f f 5 B e < 1 e G 6.v.H.L.P.l.^ q - - r h a 3 u a z g f f f f h p p 5 x h 3 > u A ] ] ",
"B f f w : w c k 3 i p i i i p z Z u u u z z p u w k v B w < w e v r 9 9 a j j h x a , * ; a p u c k h h f 5 5 i h h a 5 a a z p ",
"f 4 5 w < 4 f 5 p p 5 3 u i p Z Z z u u Z z p u 4 w k k l k w w 4 5 4 3 2 2 3 a 2 p a u u i a p i i 4 4 5 f c k 5 h h a a s p = ",
"w < i h w w w 2 h f h 5 3 u p a z z u u Z z u Z p h h 4 w B D B k J P D i & ; p p a x c z a k k c h f f w 5 5 4 h h p 4 i h a p ",
"4 < h v f f h 4 4 5 p p i p p g p Z u u Z x s Z > v A h w k k 4 g i 4 p z Z z i D k i p h 5 i w k k z k h f i 5 4 f f h z k h 3 ",
"2 > p k i 5 f 5 5 5 w g g w g g i z z g g z Z Z Z s J p 2 h 2 h g g g f w : 4 4 c c h f w e h h f h h h h h f f f f f h h c f c ",
"u 4 f k p f g f g c g w w < w g g z z i u u p u Z u a p z A i p p i f f g g k g k h h f e f w f f h f p 5 i 5 3 < 4 5 i f h h c ",
"i 4 g g 5 f g g f g g w : : w c u i u u u u g g p a ` D a u 2 D i 5 w w 5 5 w 4 k k k x k k e j k j h h h h h h c v c k k c c f ",
"i : g g 4 f z g 4 w k g k k k c Z z Z x z u u u Z p p g z x u * 5 5 5 5 w w w w 1 5 f a h 5 5 1 a a a h 0 p p a 3 2 5 w f f h c ",
"i : g g : i z g z s u s k r r j 6 u u s z 2 * > i D ` Z z Z Z z 3 3 5 p h k l v z z Z Z A x x x x x M x x x x x z h h h f f f f ",
"i : i g u u z s x s 6 6 1 8 6 7 d d d ' S s z Z & z Z g u > p p p 9 0 0 1 3 3 , s s s x x x x x x j x s a a a a x k z z h h h h ",
": : i g 2 u s s 6 d T T I I d I I d 6 6 + .   2 >.D & g K s 3   a 0 9 3 3 3 - = = - 2 = 2 u u u a 9 3 3 , 3 , < o > < 2 i h k c ",
"i : i : 2 u s d 6 ] A.G.A.1.1.1.A.s.s.s.M.G.~.*X&X*X*X*Xj.a ' B.3 9 s s s S S ` ' ` ` ` ` ` ] ] ] ]  . .{ | | | =...| P F k h p "
};
