/* XPM */
static char *result[] = {
/* columns rows colors chars-per-pixel */
"64 64 225 2 ",
"   c #020103",
".  c #0B0404",
"X  c #0A0908",
"o  c #0C0B0B",
"O  c #120A06",
"+  c #150809",
"@  c #130D0B",
"#  c #0F100A",
"$  c #12130C",
"%  c #1A120E",
"&  c #070C10",
"*  c #0D0D12",
"=  c #130E12",
"-  c #180F10",
";  c #0E1114",
":  c #0D181C",
">  c #141314",
",  c #1A1415",
"<  c #141915",
"1  c #1C1B16",
"2  c #15151A",
"3  c #1B161A",
"4  c #161A1C",
"5  c #1B1C1D",
"6  c #270D16",
"7  c #291313",
"8  c #231A16",
"9  c #241618",
"0  c #231D1B",
"q  c #291E1B",
"w  c #1C211E",
"e  c #24221D",
"r  c #2C231E",
"t  c #32241D",
"y  c #39271D",
"u  c #181720",
"i  c #151C21",
"p  c #1C1D22",
"a  c #221E22",
"s  c #2A1C23",
"d  c #391C27",
"f  c #1D2223",
"g  c #1C2428",
"h  c #232324",
"j  c #2B2523",
"k  c #252926",
"l  c #2D2925",
"z  c #24252A",
"x  c #29252A",
"c  c #25292B",
"v  c #2B2A2B",
"b  c #322523",
"n  c #342A26",
"m  c #392826",
"M  c #332D2B",
"N  c #392E2B",
"B  c #2C312F",
"V  c #35312D",
"C  c #3B322E",
"Z  c #2B2B32",
"A  c #332D32",
"S  c #3A2E35",
"D  c #2E3133",
"F  c #353232",
"G  c #3C3532",
"H  c #3D3935",
"J  c #36353A",
"K  c #3B353B",
"L  c #33383C",
"P  c #3C3A3B",
"I  c #441B28",
"U  c #452A27",
"Y  c #482E35",
"T  c #413633",
"R  c #433A36",
"E  c #4B3B33",
"W  c #443C3B",
"Q  c #493E3B",
"!  c #563B3A",
"~  c #3D403E",
"^  c #46413D",
"/  c #4B423C",
"(  c #4A4839",
")  c #52463D",
"_  c #524A3E",
"`  c #604B3E",
"'  c #3D3C41",
"]  c #423D41",
"[  c #463F43",
"{  c #454244",
"}  c #4B4442",
"|  c #4D4945",
" . c #47434A",
".. c #4C464B",
"X. c #4C4A4B",
"o. c #514644",
"O. c #574747",
"+. c #544B45",
"@. c #5A4C43",
"#. c #534D4A",
"$. c #5A4E4A",
"%. c #56524D",
"&. c #5B5548",
"*. c #5C534C",
"=. c #4D4D51",
"-. c #534E51",
";. c #545455",
":. c #5B5551",
">. c #5D5956",
",. c #56555A",
"<. c #58575D",
"1. c #5C5B5B",
"2. c #724C4D",
"3. c #62544D",
"4. c #6A564A",
"5. c #635553",
"6. c #685654",
"7. c #635A55",
"8. c #6B5C55",
"9. c #645C5A",
"0. c #6A5D5B",
"q. c #735D55",
"w. c #5F605C",
"e. c #63615E",
"r. c #68655A",
"t. c #6B615E",
"y. c #72625B",
"u. c #7A6659",
"i. c #7F705B",
"p. c #5D5C61",
"a. c #615F64",
"s. c #6C5F60",
"d. c #7F5867",
"f. c #646364",
"g. c #6D6361",
"h. c #65646A",
"j. c #696769",
"k. c #6B6A6C",
"l. c #726663",
"z. c #746965",
"x. c #7A6A64",
"c. c #756B69",
"v. c #7A6D6A",
"b. c #7C736C",
"n. c #6D6C72",
"m. c #706F75",
"M. c #737274",
"N. c #7B7473",
"B. c #75747A",
"V. c #79777C",
"C. c #7B7B7D",
"Z. c red",
"A. c #FF7300",
"S. c #816358",
"D. c #835C69",
"F. c #887569",
"G. c #8D706F",
"H. c #96786B",
"J. c #887A75",
"K. c #A27E73",
"L. c #908071",
"P. c #998579",
"I. c #A58379",
"U. c #A38A7C",
"Y. c #AB8C7D",
"T. c #A5927D",
"R. c #7D7C82",
"E. c #807F86",
"W. c #828185",
"Q. c #85848A",
"!. c #89888E",
"~. c #998A86",
"^. c #8D8C92",
"/. c #949399",
"(. c #A78B83",
"). c #B48E83",
"_. c #B48E8A",
"`. c #AB9484",
"'. c #A79489",
"]. c #B29384",
"[. c #B4948A",
"{. c #B89689",
"}. c #B59B8B",
"|. c #BC9D8D",
" X c #AB9B92",
".X c #B69D96",
"XX c #BD9C92",
"oX c #B8A08D",
"OX c #AEA09C",
"+X c #BDA394",
"@X c #B4A39B",
"#X c #BBA69A",
"$X c #9C9BA1",
"%X c #A9A5A8",
"&X c #BEADA2",
"*X c #BAA8A5",
"=X c #C19C8E",
"-X c #C29D98",
";X c #C3A495",
":X c #C9A696",
">X c #C7A996",
",X c #C5A49C",
"<X c #C9A39C",
"1X c #C4AB9D",
"2X c #CCAD9A",
"3X c #CCAC9D",
"4X c #C4ADA2",
"5X c #CAACA2",
"6X c #CAA8A4",
"7X c #D3AEA6",
"8X c #C5B1A4",
"9X c #CDB3A3",
"0X c #C5B2AB",
"qX c #CCB3AB",
"wX c #CAB9AC",
"eX c #D2B4A4",
"rX c #D2B4AC",
"tX c #D5BBA8",
"yX c #D4BAAC",
"uX c #CDB9B1",
"iX c #D3BCB3",
"pX c #D8BAB4",
"aX c #D8C2B6",
"sX c #DEC7C2",
"dX c #E8CCC0",
/* pixels */
"@ @ % @ O O # @ $ % $ $ $ O # # $ $ < < $ < # # # # # # $ $ $ < $ $ $ $ $ # # # # # # $ $ $ $ $ $ $ $ @ - - - + - - + @ + o o O ",
"O O + O O X # O $ @ # # # # $ # X X # # $ # # # < # > < < < 1 < < $ $ $ # # # # $ $ $ $ $ $ $ $ $ # o @ @ @ o X o + @ o o X . . ",
"8 8 0 0 8 0 e j e e e l k l l V B V D F H H H H l v k v l B l B e e w e w w 1 w w < < < $ $ # # 3 , , , , , , , > > - - @ + + o ",
"n M C C C V G H H ^ ^ } | X.%.%.;.1.1.f.f.f.f.j.f.f.f.f.f.f.r.f.r.e.w.w.>.>.>.&.X.| | ^ ( ~ H H V M M l v M l j j j h q a a 0 0 ",
"n M G C N G G R { ( | #.%.>.w.w.p.h.h.n.n.h.n.R.C.C.R.R.R.R.C.R.C.C.M.M.M.k.M.k.k.k.j.f.w.1.;.;.{ { W W W ] W F F F S A M M v M ",
"M N N G F C G H ^ { | %.>.w.r.w.h.n.m.B.R.R.R.R.V.M.B.B.C.C.C.R.N.M.M.M.k.k.k.r.k.h.f.w.1.;.;.=.| | } { } { ] W G G G G F A M M ",
"G T T T G G G H ^ ^ ^ | %.;.>.w.h.n.m.m.R.R.R.R.V.C.C.E.W.W.Q.!.W.W.W.C.C.M.M.M.k.k.k.f.w.1.<.1...} [ [ W W W H F H F F G A A M ",
"C C T G N N C C V V H ~ ( ( #.#.,.<.p.p.p.p.p.<.f.f.h.h.n.M.B.B.N.M.M.k.k.k.f.j.f.w.<.1.;.=.X.X.} { Q P W P K F K F F G V F M A ",
"G m R N T R N C V M F H W ^ | X...=.=.=.p.p.,.,.p.p.h.' p.p.R./.^.1.X.X.X.,.X.;.X. . .' L P  .X.W P F P K K G A N W K A G G l l ",
"T m R G T R N C / / } o.%.*.9.e.a.h.h.n.n.R.R.R.R.R.^.R.R.B././.%XM.k.f.h.n.a.a.h.h.p.p.p.,.=. ...} } Q Q W W H v W W M A F M x ",
"T N Y S G Q M C Q / } | %.>.9.e.M.V.R.R.R.R.R.^.R.R.!.R.R.R.^.^./.h.f.k.m.R.M.M.n.h.a.f.k.h.<.X.X.| { { [ W K H l ] W M S A x j ",
"T m T N T R m S H R W Q o.#.:.>.h.n.B.V.R.R.R.^.$XR.!.h.h.p.R.R.Q.f.k.k.k.V.V.W.M.h.p.<.p.1.1.=.| ..W W W K G A l W K M M M M j ",
"Y m T N N R N G T W Q / o.#.%.>.,.p.h.k.n.m.m.R.R.h.p.'  .' p.h.~ B ~ P L ;.a.B.M.n.h.f.1.=.X.X.} Q P P H S M M j K K M M A j j ",
"T m S m m T m S R T W W / } o.#.=.;.<.p.a.a.p.p.=.' ' & >           * X   > k P ~ X.;.1.;.X.{ {  .[ W H H H F M j W G x M M j a ",
"Y b S b m T m N G T G T H W Q { =...=.;.p.=.' Z     & & a * p 4 g < w #   o X X X > k P {  .{ ~ [ W K H F K G A s H G l l M j a ",
"S b m t b S b N R R R R R W Q Q ..] '  ...' a & u ; z & p & *   #   > ; > k 3 o X X > h L | { ~ K H G G G G V M s H G x l M j e ",
"N m C r n T q n T T C ( C T T ( n ) W S K h = 5 # < 2 ; & & ; 4 & o * = 3 % @ @ o @ .   a ' { K G T G T G G N M M b v l l j e 1 ",
"C m m q n T r m T C T T T C T T T C Q Q s O @ 0 o $ 4 4 ; o o o 3 = + = @ O O + + , - @ > x J P S C T T T G N M j j n M n j e e ",
"n n C r n T t N U C C T C C C T T n R G @ O 0 , O 1 e r e 0 9 8 q 9 q t b t 7 7 + + - @ o = v ^ N T T T T H N N j b M l l e 1 1 ",
"n n m r n T t C T C T C C U C C C C V 0 % n n @ r t y y r t N Y m U ! 4.q.4.! E y % % 1 - o f H G S T W T T G C j b M M M r e 8 ",
"n n n r n R t C T C T T T C N N V H r % e r 8 t ` ( E U y U ` ` 2.2.S.H.K.F.q.q.4.y r r 8 < w e N G T R Y K S C r l V V V l 0 1 ",
"r t m 8 n R n T R C T C N C C C H V e e r O % q.T.P.S.S.4.4.S.H.H.H.H.K.K.H.H.F.4.U t N e < < < N G T R R R T G j l V C V l e 8 ",
"r t n e N R n T R R T T T C C N H V r e 7 r 4.}.>X>X>X=XY.Y.T.T.=X).Y.).A.Y.U.U.Z.@.&.&.e $ w 0 G G T R R R W G n n C H C l e e ",
"r r y r m R m T E T E T T T T C V V V % O r.#XwX>X2X2X2X2X>X>XoX:X:X:X2X3X;XZ.Z.Z.P. XL.M @ h x M G T R W R T G n M H H H V r e ",
"r r b N T R E E / Q Q R R T T T H B V . 9 ~.4XP.}.U.`.}.T.2XtX>X=X:X2XeX>X].Z.Z.Z.J.A.%XJ.G @ j W W Q W R W R R V C H R H G l e ",
"r b n n N C C C R T T T T T R R ( ( r O O.~.J.G.F.q.S.H.L.L.T.oXeX7X>XY.L.Z.Z.A.Z.F.F.~.*X9.  s Y R R R R W R W G G H H R V l 1 ",
"b b n N C C T C N C N C C T R R j | *.G [ 2.0. X+X(.P.T.T.T.T.T.Y.].`.U.P.Z.A.A.A.Z.~.J.%Xs.. b [ Q Q Q [ Q Q Q R P W ^ R V j e ",
"r t n C R R E / R T R T R R Q / %.H o.o.$.J.(._.(.U.F.i.L.T.T.S.S.F.L.P.Z.A.A.A.A.Z.(.L.0.Q t s o.O.o.o.o.O.o.o.Q ^ / ^ ^ C l 1 ",
"r t m C R / / / ) / / / / / / o.:.} &.&.z.@X4X.XP.(.H.u.F.T.L.` U.S.S.H.Z.A.A.A.A.Z.'.@Xv.t.7.E +.O.O.o.o.+.+.o.} ( } } ^ H l e ",
"r b n m C C C C E R T T T T T R l 7.7.( F.@X'.6X3X,X;XoX}.P.L.U.qXK.q.H.Z.Z.Z.Z.Z.Z. X@X&X'.r.*.o.} } o.o.} } o.} | | | ^ H l e ",
"j b b M m C C C C C N C C C T G ( | l y ~.aX}.}.(.Y.I.Y.Y.I.L.T.eX[.H.F.I.].].T.+X#X`.~.#XL.y _ ) } o./ / o.o.} } | | #.} R V l ",
"q r n n G R E / R E Q Q ) o.@.@.&.( _ _ F.wXaXdX5XeX=X{.2X>X=X=XXX,X=XI.K.].{.`.T.oX#X#XwXL.m ) o.o.o.o.} o.o.o.} } | | | ^ V l ",
"e j e n ( H r T R H G ( E / ) _ ( &.&.` b.@XaXaXaXtXtXeX2X2X:X<X<X<X-X-XXXXXXX;X1X8X1XwX&Xu.E 3.*.$.#.#.#.#.$.$.O.:.#.} | } v e ",
"e j e n ( H t H R E T R / ( ) _ _ &.&.&.x. XuXuXtXtXeX2X:X=X=X=X6X-X[._._.-X5XyX4X8X9XwX Xy.@.8.3.:.$.$.:.$.*.:.-.:.#.| %.| V r ",
"e j 0 l ^ G r G R T ^ E / / _ +._ _ 7.8.r.P.uXuXaXtXeXeX2X:X<X<X<X-X_._.[.XX5XqX4X6XuX0XP.t.8.8.5.5.5.5.:.5.5.7.:.9.#.| %.| V l ",
"e l e l ^ C r G T ( R E / ) _ +.&._ 7.t.:.L.0XsXaXaXtXeXeXeX7X7X-X<X<X-XXX,X,X1XqXuXpX@Xx.8.y.0.9.9.9.6.9.5.9.9.:.5.:.#.:.%.V l ",
"j k e l ^ V j C ( ^ ^ ( ( ) +.@.7.&.>.7.$.x.*XsXaXaXtX7X7X<X<X<X,X-X-X,X6X6X4X6XrXuXuX'.6.6.l.6.0.9.5.6.9.5.9.0.:.>.%.#.*.#.V v ",
"l M 0 n ( V r H E R ( E ) +.+.@.&.&.*.3.5.q.(.uXaXtX7X:X-X_.{._._._._.(._..X4XqXuXqX.XJ.6.0.l.6.0.0.9.9.9.9.9.9.:.7.*.#.:.#.H l ",
"M V r l ^ C t T R / E / / +.@.@.@.5.*.5.8.6.x..XrXeX3X:X=X=X_._.E.=XI.(.(.[.,X4X4X*X~.q.s.s.s.0.0.0.9.9.9.9.0.e.7.9.>.%.>.%.H l ",
"V V e n ( H l R / / / / _ o.@.&.o.7.*.3.d.O.O.~.qX7X3X<X<X<X<X<X=X-XXX-X,X,X4X4X#X.XF.3.d.v.s.s.s.s.0.0.0.0.s.g.9.g.>.&.w.:.H V ",
"v V V V H C N H E | &.&.*.*.&._ 3.3.&.@.$.6.8.` U.>XeX>X3X3X{.K.E.).).=X|.oX;X#X'.@XJ.F.l.6.z.s.N.c.z.g.g.t.g.t.9.>.>.7.1.%./ G ",
"V V V G ^ H N ^ Q o.@.#.*.3.&.&.&.&.7.z.x.8.8.q.u.].9X2X3X3X<X-X=X=X=X=X;XoX].`.#XoXu.8.c.F.J.l.s.g.9.s.t.t.z.k.9.7.7.7.>.%.^ H ",
"V F G H ^ R C ( +.*.:.*.5.8.7.3.&.&.&.*.7.t.q.y.` P.9X9X3X:X,X:X=X=X=X-XoX}.T.T.8X&XL.y.l.z.v.c.c.z.l.l.g.z.z.z.e.7.7.1.>.%.{ H ",
"V H V H ( ^ T ( &.*.5.&.&.7.7.3.r.r.r./ 3.v.8.4.u.`.9X9X3X|.].{.{.).Y.I.T.}.oX+X#XwX'.b.x.c.c.l.c.c.c.c.z.z.c.c.t.9.1.7.w.:.} ^ ",
"V F F H { R R ( } #.&.&.&.r.8.r.r.r.N.g.l.g.@.t.'.8XuX9X6X.X_._.].).Y.Y.`.oX1XwX&X&X'.y.z.J.N.N.s.g.g.l.l.k.z.z.t.9.>.r.>.:.| ^ ",
"V H C R } ^ R | @.&.5.7.e.y.u.r.k.%.r.>.#.C n ~.&XaXaX9XyXqX6X-X}.|.+X+X>X1X1X4X#XaX@X7.G | 9.J.v.v.v.c.c.l.g.t.t.e.>.>.r.*.#.{ ",
"V H F W | ( ^ o.*.7.r.7.7.3.3.&.( v H h a 0 8 J.*XuXiXrXpXpXrXpX,X3X5X5X9X4X4X&X&X0X XT O 9 s ..s.s.g.l.l.g.g.g.g.e.>.9.7.>.%.| ",
"G H R [ #.} / %.*.5.*.#.^ T l 1   X j o j Q , G OX0XuXuXpXpX7XpXeX9X5X1X1X1X4X8X&X~.%.. @ A = . M M W #.7.t.k.c.g.t.9.7.>.1.%.| ",
"R W [ $.#.#.#.[ K F s > & & > u u u x Z u u l M V J.uXsXpXrX7X6X1X>X1X5X4X&X#X.XJ.R @ 3 v s p z = * o o 5 F | 9.p.s.s.1.a.9.-.[ ",
"| R [ [ F V A x 5 u u 4 2 p c Z s u z x p 3 v k < R v.'.qXaXsX7X9X+X.X1X8X XF.@.M 8 , 0 p ; ; z Z v f 2 > > 5 p a J -.a.j.s.-.] ",
"| P H A e 5 5 ; > 4 u p p p g z z u u z p f h w e w h R y.~.#X0X4X0X0X@XP.:.m - @ , a x u > u z 5 5 5 5 5 5 5 5 > a v K [ -.-.[ ",
"~ D v k 4 5 f w p f g g p i u i ' u u u h f f 5 B h 1 1 e H 7.b.J.L.P.x.Q 0 % - j e a u p p z z 5 f p f f a p 5 x a 3 = s S [ [ ",
"B f f w : w k z 4 i p p i u g z Z u u u z z u u w k v B w < w r v j 9 8 a j j a x a 3 o ; p a u c k g h f 5 5 p h h a 5 p s z p ",
"w w 4 w : w f f p p 5 3 i u z c Z u u u z Z u g < w k k k k w w 5 3 3 3 > 3 p a 2 p p u 4 p p p p 5 4 4 5 f k v 5 h h p a a 5 = ",
"w < p h 1 w w > f h f 5 3 4 u a Z z u u Z x u Z a h a 2 w B D B z J P D i & ; p u f x Z z p h k k k f f w 4 4 4 h h p 5 5 f h p ",
"< 2 f v g h h 4 2 5 p p u p p z u Z u u Z x s Z > v F z w k k 4 g i 4 i c c z p D g p p h 5 p f g h k x h g w 4 4 p f h h x h 4 ",
"3 2 f k 5 p g p 5 5 w g g k g g g g g g g z Z x x z J p 2 z > z f g g f w 4 4 4 c k h f w e h h h h h h f h f f f f f h h h g k ",
"4 4 p k p p g f g k g w < < w g g z z u u u g u A u s p x Z u h f f f f g g g g k h h f e f w e f f p a p 5 5 5 > 4 4 p f k z k ",
"i 4 g g 4 f g g f g g w : : w c u i g u u u g g p p L J p 2 4 Z i 5 w w w 5 w w k k k x k k h h k h h h k h h f v v c c k k k z ",
"i 2 g g : f c g w f g f k k k c z z Z z z u u u c p p g x c u * 5 4 4 5 5 w 5 w 5 5 5 a w e 1 5 a a a a a 5 p 5 4 4 4 w f g h g ",
"i : g g u i z p z a a d k r k r u 6 s s a 4 * 2 i D ' Z z Z Z a 3 3 5 a h j v v s z Z A Z v Z x M Z v v x x v x h h h f f f f p ",
"i : i g 2 u z a x s 6 6 1 7 9 7 d d d ' S s x Z & c Z g u = h p a 0 0 3 1 3 3 > a s z x x z x s j s s s a s a a x c k x k h h h ",
": : i i u u s s 6 d Y Y I I d I I d 6 6 - . . ; ,.L & p K x 3   a 9 9 3 3 - , = = 3 = = 2 3 u u 3 9 3 3 , 2 3 > * = ; 4 p h z k ",
"i : i i ; u s d 6 [ D.G.D.2.2.2.D.d.d.d.D.N.^.%X/.%X%X%Xn.u ] V.3 9 s s n A K K ] ] ' ' ' ' [ [ ..........}  . .-.X. .P F k h f "
};
