/* XPM */
static char *result[] = {
/* columns rows colors chars-per-pixel */
"64 64 227 2 ",
"   c #020103",
".  c #0B0404",
"X  c #0A0908",
"o  c #0C0B0B",
"O  c #120A06",
"+  c #150809",
"@  c #130D0B",
"#  c #0F100A",
"$  c #12130C",
"%  c #1A120E",
"&  c #070C10",
"*  c #0D0D12",
"=  c #130E12",
"-  c #180F10",
";  c #0E1114",
":  c #0D181C",
">  c #141314",
",  c #1A1415",
"<  c #141915",
"1  c #1C1B16",
"2  c #15151A",
"3  c #1B161A",
"4  c #161A1C",
"5  c #1B1C1D",
"6  c #270D16",
"7  c #291313",
"8  c #231A16",
"9  c #241618",
"0  c #231D1B",
"q  c #291E1B",
"w  c #1C211E",
"e  c #24221D",
"r  c #2C231E",
"t  c #32241D",
"y  c #39271D",
"u  c #181720",
"i  c #151C21",
"p  c #1C1D22",
"a  c #221E22",
"s  c #2A1C23",
"d  c #391C27",
"f  c #1D2223",
"g  c #1C2428",
"h  c #232324",
"j  c #2B2523",
"k  c #252926",
"l  c #2D2925",
"z  c #24252A",
"x  c #29252A",
"c  c #25292B",
"v  c #2B2A2B",
"b  c #322523",
"n  c #342A26",
"m  c #392826",
"M  c #332D2B",
"N  c #392E2B",
"B  c #2C312F",
"V  c #35312D",
"C  c #3B322E",
"Z  c #2B2B32",
"A  c #332D32",
"S  c #3A2E35",
"D  c #2E3133",
"F  c #353232",
"G  c #3C3532",
"H  c #3D3935",
"J  c #36353A",
"K  c #3B353B",
"L  c #33383C",
"P  c #3C3A3B",
"I  c #441B28",
"U  c #452A27",
"Y  c #482E35",
"T  c #413633",
"R  c #433A36",
"E  c #4B3B33",
"W  c #443C3B",
"Q  c #493E3B",
"!  c #563B3A",
"~  c #3D403E",
"^  c #46413D",
"/  c #4B423C",
"(  c #4A4839",
")  c #52463D",
"_  c #524A3E",
"`  c #604B3E",
"'  c #3D3C41",
"]  c #423D41",
"[  c #463F43",
"{  c #454244",
"}  c #4B4442",
"|  c #4D4945",
" . c #47434A",
".. c #4C464B",
"X. c #4C4A4B",
"o. c #514644",
"O. c #574747",
"+. c #544B45",
"@. c #5A4C43",
"#. c #534D4A",
"$. c #5A4E4A",
"%. c #56524D",
"&. c #5B5548",
"*. c #5C534C",
"=. c #4D4D51",
"-. c #534E51",
";. c #545455",
":. c #5B5551",
">. c #5D5956",
",. c #56555A",
"<. c #58575D",
"1. c #5C5B5B",
"2. c #724E4D",
"3. c #62544D",
"4. c #6A564A",
"5. c #635553",
"6. c #685654",
"7. c #635A55",
"8. c #6B5C55",
"9. c #645C5A",
"0. c #6A5D5B",
"q. c #745D54",
"w. c #5F605C",
"e. c #63615E",
"r. c #68655A",
"t. c #6B615E",
"y. c #72625B",
"u. c #7A6659",
"i. c #5D5C61",
"p. c #615F64",
"a. c #6C5F60",
"s. c #7F5867",
"d. c #646364",
"f. c #6D6361",
"g. c #65646A",
"h. c #696769",
"j. c #6B6A6C",
"k. c #726663",
"l. c #746965",
"z. c #7A6A64",
"x. c #756B69",
"c. c #7A6D6A",
"v. c #7C736C",
"b. c #6D6C72",
"n. c #706F75",
"m. c #737274",
"M. c #7B7473",
"N. c #75747A",
"B. c #79777C",
"V. c #7B7B7D",
"C. c red",
"Z. c #816358",
"A. c #835C69",
"S. c #896B6C",
"D. c #897568",
"F. c #96786B",
"G. c #887A75",
"H. c #967D75",
"J. c #A27E73",
"K. c #908071",
"L. c #9A8579",
"P. c #A58177",
"I. c #A4857A",
"U. c #A38A7C",
"Y. c #AB8C7D",
"T. c #A5927D",
"R. c #7D7C82",
"E. c #807F86",
"W. c #828185",
"Q. c #85848A",
"!. c #89888E",
"~. c #998A86",
"^. c #8D8C92",
"/. c #949399",
"(. c #A48C82",
"). c #A78986",
"_. c #AB8C82",
"`. c #B48E82",
"'. c #B48E8A",
"]. c #AB9384",
"[. c #A79589",
"{. c #B29384",
"}. c #B4948A",
"|. c #B89689",
" X c #B59B8C",
".X c #BB9D8D",
"XX c #AB9B92",
"oX c #B69D96",
"OX c #BD9C92",
"+X c #B8A08D",
"@X c #AEA09C",
"#X c #BCA394",
"$X c #B4A39B",
"%X c #BBA69A",
"&X c #9C9BA1",
"*X c #A9A5A8",
"=X c #BEADA2",
"-X c #BAA8A5",
";X c #C19C8E",
":X c #C29D98",
">X c #C3A495",
",X c #C9A696",
"<X c #C7A996",
"1X c #C5A49C",
"2X c #C9A39C",
"3X c #C4AB9D",
"4X c #CCAD9A",
"5X c #CCAC9D",
"6X c #C4ADA2",
"7X c #CAACA2",
"8X c #CAA8A4",
"9X c #D3AEA6",
"0X c #C5B1A4",
"qX c #CDB3A3",
"wX c #C5B2AB",
"eX c #CCB3AB",
"rX c #CAB9AC",
"tX c #D2B4A4",
"yX c #D2B4AC",
"uX c #D5BBA8",
"iX c #D4BAAC",
"pX c #CDB9B1",
"aX c #D3BCB3",
"sX c #D8BAB4",
"dX c #D8C2B6",
"fX c #DEC7C2",
"gX c #E8CCC0",
/* pixels */
"@ @ % @ O O # @ $ % $ $ $ O # # $ $ $ > < $ # # # # # # $ $ $ $ < $ $ $ $ $ # # $ # # $ $ $ # $ < $ @ @ - - = @ = - @ @ @ @ @ . ",
"O O + O O X # O $ @ # # # # $ # X # # $ $ $ # # < # ; < < < 1 < $ $ $ $ $ # # # $ $ $ $ $ $ $ $ $ # X @ @ @ @ . @ @ @ o . . . X ",
"8 8 0 0 8 0 e j e e e l k l l V B B D F J H H H l l k l l B k B r k w w w w 1 1 w < < < $ $ # # 1 , , , , , , = , - @ @ @ @ @ @ ",
"n M C C C V G H H ^ ^ } | X.%.%.;.>.w.p.d.h.d.h.d.d.d.d.d.d.r.d.e.e.w.w.>.>.%.>.X.X.( { ( ~ H H F M l n v M l j j h j s a a 0 0 ",
"n M G C N G G R { ( | #.%.>.w.w.i.g.j.b.b.b.g.R.V.V.V.R.V.R.R.W.V.V.m.m.m.m.j.j.b.j.h.d.w.1.;.;.} [ W W W ] P H A G V S M M M l ",
"M N N G F C G H ^ { | %.>.w.r.w.g.b.b.N.R.R.R.R.N.B.B.B.V.V.V.V.v.m.m.m.j.j.j.j.j.d.e.w.1.;.%.;.X.} } { } { Q W H F G F A A A M ",
"G T T T G G G H ^ ^ ^ | %.;.>.w.g.b.b.R.n.R.R.R.V.V.R.R.W.Q.Q.Q.W.W.W.V.V.m.v.m.b.j.h.d.p.1.<.;.| } [ ] W ] W K G F F F A M M A ",
"C C T G N N C C V V H ~ ( ( #.#.,.<.i.i.i.i.i.i.p.d.g.g.b.n.N.N.V.m.m.j.j.j.d.d.d.w.<.1.;.=.=.X. .} W W W P H F H K F G G G A M ",
"G m R N T R N C V M F H W ^ | X. .=.=.,.i.i.,.,.i.i.g.' i.i.Q.^.^.;.=.X.X.,.=.;.X. . .' L ' { X.W P H K K H G F M W W A A F M l ",
"T m R G T R N C / / } o.%.*.9.e.p.g.g.b.g.R.R.R.R.R.^.R.Q.N.^./.*Xm.j.d.g.b.i.p.g.g.i.1.i.,.=. ...} { Q Q W P G v W W A G M v l ",
"T N Y S G Q M C Q / } | %.>.9.e.m.B.R.R.R.R.R.^.R.R.!.R.R.n.^.^./.g.d.j.n.R.m.m.b.g.p.g.j.g.<.X.#...{ { [ W W K v W K M S A v b ",
"T m T N T R m S H R W Q o.#.:.>.g.b.N.B.R.R.R.^.&XR.!.g.b.i.R.R.Q.d.j.j.j.B.B.W.m.g.i.<.1.i.,.;.| } W W W K G A b W K M M N x j ",
"Y m T N N R N G T W Q / o.#.%.>.,.i.g.j.b.b.n.N.R.g.i.'  .' i.g.~ B ~ ' L ;.p.B.n.b.j.d.<.=.X.X. .[ W H H F S v x W T v M M x j ",
"T m S m m T m S R T W W / } o.#.-.;.<.i.g.g.i.i.=.' ' & >           o X   > k P ~ X.;.<.;.X.{ ~ { ^ W K K G N M j T K v M A j h ",
"Y b S b m T m N G T G T H W Q { X.X.=.-.i.=.' Z     & & p * p 2 f < w #   o X X X < k H { X.{ ~ ] W K H K H G M s K G l l N j 0 ",
"S b m t b S b N R R R R R W Q Q  .[ '  ...' a & u 2 g * p & * X #   < ; > k , o X X > h P { { ~ W H G G G F M M j H F b v v r h ",
"N m C r n T q n T T C ( C T T ( n ) W S K h = 5 # < < ; & & ; 2 & o o > , = @ O . @ .   a ' { K S G G T T S N M n l l V l k e 0 ",
"C m m q n T r m T C T T T C T T T C Q Q s O @ 0 X $ 4 4 ; o o o 3 = @ @ = O O O + , - @ > x J P G C T T T G N M j b n v l r e 1 ",
"n n C r n T t N U C C T C C C T T n R G @ O 0 , $ 8 q q e 0 9 8 q 0 0 b b t 7 7 + + - @ o = v ^ S T T T H G C N j j n n l j 8 1 ",
"n n m r n T t C T C T C C U C C C C V 0 % n n @ r t y y r t N Y U U ! 2.q.4.` E y % % 8 = o f H G G T T T T G N j n M M l r e 8 ",
"n n n r n R t C T C T T T C N N V ( r % e r 8 t ` ( ( U U U ` ` @.2.Z.F.F.F.u.4.4.m r r 8 < w w M T T R T T S C j l n V V l e 1 ",
"r t m 8 n R n T R C T C N C C C V V e e r O % q.T.K.Z.Z.4.` Z.F.J.F.F.J.P.F.F.S.4.U y V e < 1 < N G T T W T T G l n V V V l e 8 ",
"r t n e N R n T R R T T T C C N V V r e 8 r 4. X<X<X<X;XY.Y.T.{.;X;X`.`.Y.Y.I.U.y._ &.@.e $ w 0 S C T R W W T T b M C H G l e 0 ",
"r r y r m R m T E T E T T T T C V V V % O 8.%XrX<X4X4X4X4X<X+X+X,X;X,X,X4X>X.X XU.T.XXC.M @ h x C G T W R R T K n M H H H V r e ",
"r r b N T R E E / Q Q R R T T T ( V V . 9 ~.6XL. XU.]. XT.4XuX<X;X;X4XtX<XY.{. X%XG.C.*XG.H @ j W Q R Q W R W W V C H H R V l e ",
"r b n n N C C C R T T T T T R R ( ~ j O O.~.G.D.S.q.Z.H.K.K.T.+XtX9X>XY.K.D.Z.q.4.C.D.~.-X9.  s W R R R R R R R C G H R H G j e ",
"b b n N C C T C N C N C C T R R j | %.G ! 5.0.XX#XT.L.T.T.T.T.T.Y.{.].U.L.L.T.].C.(.~.G.@Xa.. b Q [ [ Q Q Q / Q R R W ^ R V e e ",
"r t n C R R E / R T R T R R Q / %.G o.o.$.G.).'.(.L.F.u.K.T.T.Z.Z.D.K.L.F.D.C.C.XXH.).K.0.[ s t O.[ o.o.o.o.o.o.^ ^ ^ ^ ^ C l 1 ",
"r t m C R / / / ) / / / / / / o.:.} &.&.l.$X6XoXI.(.F.u.D.T.K.4.P.D.Z.F.D.q.C.C.L.u.[.$Xv.t.8.R O.O.O.+.+.O.O.#.} / } } ^ H l e ",
"r b n m C C C C E R T T T T T R l 7.7.( D.$X[.8X7X1X#X+X+XL.K.L.qXH.q.F.Y.U.P.]. X(.XX$X=X[.8.3.) o.o.o./ o.} } | | | | ^ H n e ",
"j b b M m C C C C C N C C C T G ( | l y ~.dX X X_.Y.P.Y.Y.P.K.T.tX{.F.D.P.{.].Y.+X%X[.T.=XK.y _ ) [ Q o.} } } / } | +.| | R V k ",
"q r n n G R E / R E Q Q ) o.@.@.&.( _ _ D.rXdXgX7XtX;X|.4X<X;X;XOX2XOXP.J.{.|.].T.+X%X%X0XG.m ) o.o.o.o.o.o.o.o.} } | | | ^ V l ",
"e l e M ( H r ( R R T ( / / ) ) ( &.&.` v.-XdXdXdXuXuXtX4X4X,X:X2X2X:X:XOXOXOX>X3XqX3XrX=Xu.E 4.%.$.$.O.#.#.$.$.O.:.o.} #.} v e ",
"e e e n / G r C R T R R / ( ) _ _ &.&.&.l.XXpXaXuXuXtX4X,X;X;X;X8X:X'.'.'.:X7XiX3X0X0XrXXXy._ 8.3.:.:.$.$.$.:.:.:.:.#.| %.| V e ",
"e j 8 l ^ H r H R T R E / ( ) +._ _ 7.8.r.L.pXaXdXuXuXtX4X,X2X2X2X:X'.'.}.oX7XyX8X0XpX6XL.y.8.t.5.9.5.:.>.>.5.7.:.5.-.| %.+.C k ",
"e j e l ^ C r C T ( R / E ) _ _ &._ 7.r.3.G.wXsXdXdXuXtXtX9X9X9X:X2X1X1X:X1X1X3XeXpXaX-Xz.8.y.9.9.6.9.6.5.9.9.9.:.:.:.#.:.+.G l ",
"j l e l P C r C ( E ( R / _ _ $.7.@.7.r.$.c.-XfXdXsXuXtX9X2X2X2X2X2X1X8X1X8X8X6XeXpXpX[.6.6.k.6.9.0.6.6.9.9.9.9.:.>.%.+.%.| H k ",
"l M e l ( G k T R / / / ) +.@.@.&.&.*.*.5.q.).pXdXuX9X2X;X'.;X'.'.'.).).'.oX8XeXpXeXoXG.6.0.k.6.9.6.9.9.5.9.9.9.:.9.:.#.:.%.G l ",
"v M r l ^ V r R T ( / / / _ +.&.$.5.*.5.8.5.z.oXyXyX5X,X;X;X'.'.E.E.I.J.). X%X8X6X-X~.q.a.s.a.0.a.0.9.9.9.9.0.0.7.0.>.%.:.%.H l ",
"V V j n ( H y T / / / / ) +.@.&.) 6.*.*.s.$.O.L.eX9X5X,X2X2X2X8X2X2XOX>X1X1X3X6X%XoXS.3.k.x.0.f.a.a.0.0.0.0.f.f.9.e.>.*.1.&.^ V ",
"M V n V H G M R / ) @.%.*.*.&._ 7.*.@.%.&.6.8.` U.<XtX<X4X5X|.J.`.J.`.;X#X#X#X%X].$XK.v.z.6.k.f.c.c.l.h.0.f.f.f.9.7.>.9.>.%.^ H ",
"V V V H ^ H M ( / o.@.%.*.3.3._ &.&.8.l.k.8.8.q.u.{.qX5X9X5X1X;X;X;X;X:X>X+X{.T.%X+Xu.8.c.c.G.k.f.0.9.0.t.f.k.j.9.9.7.7.>.%.^ H ",
"V J V H ^ R G ( O.%.:.*.3.r.7.3.&.&.3.*.7.y.q.y._ I.qXqX5X,X>X2X;X;X;X:X+X{.T.T.0X=XL.y.k.l.M.x.x.x.k.k.h.k.l.x.9.9.>.1.1.%.( P ",
"V G C H ( ^ G / &.*.3.&.&.8.7.3.7.r.r.( *.c.8.4.u.].tXqX,X.X}.|.`.;XY.Y.T. X+X#X%X0X[.v.z.x.x.k.x.x.x.x.l.x.l.l.t.9.>.7.7.%.} ^ ",
"V F C H / W H / / @.%.&.*.r.8.r.r.r.M.t.k.f.$.8.[.wXaXqX7XoX'.'.{.Y.Y.Y.{.+X3XrX=X0X[.k.k.M.M.c.a.f.f.k.h.l.l.l.t.9.w.7.7.:.| ^ ",
"V H C H } ^ R | +.%.7.7.y.r.y.y.j.%.r.7.#.C n ~.=XaXaXrXiXeX8X:X|..X#X#X3X3X3X6X%XdX$X8.T o.9.G.c.c.c.x.l.l.f.t.t.e.7.>.e.:.%.{ ",
"V H G W | / ( o.:.8.r.8.7.7.*.&.( l H h 0 0 8 G.-XaXaXaXsXsXyXsX2X5X5XqXqX0X6X=X=X=XXXT O 9 x O.0.t.f.k.l.f.f.f.f.e.9.>.w.>.%.| ",
"G H P ^ #.} / %.*.:.*.+.^ C l 1   # x o h Q 3 T XXwXpXaXaXyX9XsXyXqX3X3X>X3X6X0X=X~.%.X @ A =   M S R #.7.t.j.x.f.t.9.>.7.:.%.| ",
"R T } -.#.#.#.[ K F a 2 X & 2 p p u x Z u 3 v V M G.rXfXsXyX9X8X5X3X3X6X6X=X$XoXG.R + 3 c s u x > = X o 4 F #.9.1.p.p.9.9.p.-.[ ",
"} W [ [ F F A x 5 4 p 2 2 p z Z s u s Z p u c l % ^ x.[.wXdXfX9XqX#X#X%X0XXXD.$.V 8 , 5 p * 2 g Z c a 2 > , 4 a s K -.p.h.a.-.] ",
"| P H F e 5 5 ; 2 2 p p i p g z g u u z p p h w e w j W y.(.-X0X6X0XwX$XL.*.b % O , h x p = u Z 4 5 4 4 4 5 5 5 > p v K [ -.-.O.",
"~ V v z 4 1 g 5 p p g f p i i u ' u u u h f f 4 B w 1 1 e G 7.v.M.H.L.z./ q % > h j a 3 u a z g f f f h w h p 5 x a 3 = a A [ [ ",
"B f f w < w c k 5 5 p p i i p z Z u u u z z p u w k v B w < w r M r 9 3 s h j s x h 2 o ; p p u v z h g f 5 5 p h a h 5 a s a p ",
"w w 4 w < 4 g 4 p p 4 2 u p z x Z u u u Z x p p 4 w k k k k w w 5 5 1 , 2 3 5 a , p a u 3 p a p 5 5 4 4 5 f k v p h h 5 a a u = ",
"w < f h 4 5 f , f f p p 3 2 p p Z z u u Z z u Z w h a 5 w B D B z L ' D 4 & * i p h c Z z f h k k k f f w 5 4 4 h h p 5 4 h x p ",
": < f c k g h 5 5 4 p p p p p z u Z u u Z z s Z > Z A h w k k 4 f i 2 p c Z z p Z f p p f p 5 f g h k z h g 5 4 4 f f h z k h 2 ",
"2 2 f k 5 p h p 4 5 f g f k g w i z z u g z Z x x x J a 2 z 2 z g g f g f 4 4 4 c c h w w e f k h h h h h f f f f f f h g h k h ",
"3 2 g c p f g p k k f w < : g c g Z g g u u g u A u a p x Z u a f f f f f g g g k h g h e f e f f p f a 5 5 5 5 2 < 4 w f h k k ",
"i 2 f g 4 f g g g f g w : : w g u i u u u u g g p p ' D p 2 2 D i 5 w w w 5 w w k k v z k j h h z j h h z h h h c v k c k k c g ",
"f 2 g g : f g g 4 f g k k k k c z z Z x z u u u Z p p p c c u * 4 4 5 5 5 f 1 w 1 5 w f h 5 1 1 0 h a a p 0 p 5 5 2 5 p f g h z ",
"i : g g u i g z x p s d k r r j 6 u u s z 2 ; 2 i D ' Z c x Z a 2 3 3 a h x l v z x Z Z Z Z x x v v v v x x x z h h h f f f f f ",
"i : : g 2 u x a x s 6 6 1 8 6 7 d d d ] S s x Z & z Z g u = z p a 0 0 0 5 , 3 , s s s x x x x x x s x s h s h a x v k z h h h h ",
"i : i g 2 u s s 6 d Y Y I I d I I d 6 s + .   = ,.D & g K x 3   a 9 0 3 , , > = = - 2 = = u u u 9 9 3 3 3 , > , * = ; 4 p h z c ",
"i : : : u u s s 6 [ A.S.A.2.2.2.A.s.s.s.A.M.!.*X&X*X*X*Xb.u ] B.3 9 0 d x A K K ] ' ' ' ' ' [ [ ..[ .... .}  . .-.X. .P F k h f "
};
